<?xml version="1.0" standalone="no"?>
<!DOCTYPE svg PUBLIC "-//W3C//DTD SVG 20010904//EN"
 "http://www.w3.org/TR/2001/REC-SVG-20010904/DTD/svg10.dtd">
<svg version="1.0" xmlns="http://www.w3.org/2000/svg"
 width="236.000000pt" height="236.000000pt" viewBox="0 0 236.000000 236.000000"
 preserveAspectRatio="xMidYMid meet">
<metadata>
Created by potrace 1.15, written by Peter Selinger 2001-2017
</metadata>
<g transform="translate(0.000000,236.000000) scale(0.100000,-0.100000)"
fill="#000000" stroke="none">
<path d="M337 2246 c-107 -45 -189 -132 -228 -242 -19 -53 -19 -88 -17 -847
l3 -792 29 -60 c36 -73 114 -153 187 -191 l54 -29 825 0 825 0 63 34 c75 41
145 115 181 191 l26 55 0 810 0 810 -27 58 c-33 70 -116 155 -189 193 l-54 29
-810 2 -810 3 -58 -24z m1638 -41 c115 -30 207 -117 247 -235 17 -48 24 -1446
8 -1541 -23 -137 -110 -239 -239 -279 -61 -19 -93 -20 -801 -20 -708 0 -740 1
-801 20 -93 29 -157 81 -199 164 l-35 69 0 792 0 792 35 69 c42 82 105 135
195 164 57 18 98 19 795 19 628 1 745 -1 795 -14z"/>
<path d="M747 2016 c-14 -13 -29 -35 -32 -48 -8 -35 -155 -1462 -155 -1509 0
-31 7 -47 28 -69 34 -33 12 -30 450 -75 304 -32 336 -33 363 -20 16 9 35 25
43 38 11 15 37 238 91 752 42 401 76 749 77 772 1 45 -19 86 -51 102 -19 11
-664 81 -742 81 -35 0 -52 -6 -72 -24z m433 -232 c195 -20 357 -38 360 -40 5
-5 -116 -1183 -122 -1189 -4 -5 -771 74 -776 80 -2 2 23 268 57 592 34 323 61
592 61 596 0 4 15 6 33 3 17 -3 192 -22 387 -42z"/>
<path d="M1238 1652 c-197 -2 -258 -5 -258 -15 0 -6 11 -210 25 -452 14 -242
25 -459 25 -482 l0 -42 128 5 c207 8 252 13 252 31 0 14 -19 15 -169 10 l-170
-6 -5 62 c-5 53 -46 799 -46 835 0 9 24 12 88 12 204 0 402 13 402 26 0 7 -3
14 -7 16 -5 2 -124 2 -265 0z"/>
<path d="M1143 1593 l-103 -4 1 -37 c0 -20 10 -214 22 -431 l22 -394 137 2
c75 1 149 6 165 10 l28 7 42 400 c23 219 42 411 42 427 l1 27 -127 -2 c-71 -1
-174 -4 -230 -5z"/>
<path d="M1668 1663 c-34 -3 -48 -8 -48 -19 0 -11 15 -14 65 -14 l64 0 5 -32
c9 -59 50 -848 44 -854 -3 -3 -48 -7 -99 -10 -148 -8 -179 -13 -179 -31 0 -14
18 -15 158 -8 86 4 159 9 161 11 2 2 -8 214 -23 471 -14 258 -26 474 -26 481
0 12 -19 13 -122 5z"/>
<path d="M1665 1613 l-51 -4 -42 -417 c-24 -229 -43 -423 -42 -431 0 -11 21
-13 121 -8 66 3 123 8 126 10 3 3 -4 192 -16 419 -12 227 -21 419 -21 426 0 6
-6 11 -12 10 -7 -1 -36 -3 -63 -5z"/>
</g>
</svg>
