<?xml version="1.0" encoding="UTF-8"?>
<svg width="59px" height="59px" viewBox="0 0 59 59" version="1.1" xmlns="http://www.w3.org/2000/svg" xmlns:xlink="http://www.w3.org/1999/xlink">
    <!-- Generator: Sketch 44.1 (41455) - http://www.bohemiancoding.com/sketch -->
    <title>Rectangle</title>
    <desc>Created with Sketch.</desc>
    <defs></defs>
    <g id="Symbols" stroke="none" stroke-width="1" fill="none" fill-rule="evenodd">
        <g id="Avatar/Group-Copy-2">
            <g id="Group-4" transform="translate(-2.000000, 0.000000)">
                <rect id="Rectangle" fill="#DDDDE1" x="2" y="0" width="59" height="59"></rect>
                <g id="Group-3" transform="translate(0.000000, 11.000000)" fill="#FFFFFF">
                    <path d="M15.3015078,39.4922695 C14.81778,39.7582546 0.434918695,47.6492647 0.0333333333,48 C0.0333333333,48 62.9666667,48 62.9666667,48 C62.5285735,47.6284032 48.5444311,39.8182317 48.0150686,39.5535504 L39.1841022,35.1387191 C38.0432347,34.5676334 37.3195987,33.4019928 37.3195987,32.1229174 L37.3195987,28.6598955 C37.5699377,28.3795681 37.8541767,28.0131867 38.1553657,27.5855243 C39.3627295,25.8840019 40.2689042,24.0142831 40.8999669,22.0532948 C42.035619,21.7025595 42.871386,20.6581768 42.871386,19.4156091 L42.871386,15.7178946 C42.871386,14.9029892 42.5102199,14.1741379 41.9443496,13.6656369 L41.9443496,8.31725006 C41.9443496,8.31725006 43.0447978,0 31.7730269,0 C20.5077752,0 21.6069196,8.31725006 21.6069196,8.31725006 L21.6069196,13.6656369 C21.0423531,14.1741379 20.6798832,14.9029892 20.6798832,15.7178946 L20.6798832,19.4156091 C20.6798832,20.3882802 21.1949034,21.2436048 21.9589587,21.7429788 C22.885995,25.7666556 25.3046341,28.6598955 25.3046341,28.6598955 L25.3046341,32.0420787 C25.3046341,33.2690003 24.6279367,34.4046524 23.5483501,34.9952958 L15.3015078,39.4922695 Z" id="Fill-1"></path>
                </g>
            </g>
            <path d="M6.56358023,40.8778753 L1.64358912,43.560729 C1.3550015,43.7194133 1.09363913,43.9138793 0.854056951,44.1231248 C3.72204228,46.5415046 7.42623164,48 11.4703476,48 C15.4872384,48 19.167314,46.5632848 22.0267428,44.1775753 C21.7653804,43.955884 21.4760149,43.755195 21.1602021,43.5972886 L15.8917278,40.9634404 C15.2110966,40.6227359 14.779382,39.9273253 14.779382,39.1642405 L14.779382,37.0982331 C14.9287319,36.9309923 15.0983063,36.7124125 15.2779929,36.457273 C15.9982952,35.4421602 16.5389108,34.326703 16.9153971,33.1567952 C17.5929168,32.9475497 18.0915278,32.3244805 18.0915278,31.5831759 L18.0915278,29.377153 C18.0915278,28.8909879 17.8760594,28.4561618 17.5384663,28.1527948 L17.5384663,24.9619958 C17.5384663,24.9619958 18.1949837,20 11.4703476,20 C4.7496009,20 5.40534043,24.9619958 5.40534043,24.9619958 L5.40534043,28.1527948 C5.06852523,28.4561618 4.85227898,28.8909879 4.85227898,29.377153 L4.85227898,31.5831759 C4.85227898,32.1634626 5.15953534,32.6737415 5.61536376,32.9716635 C6.16842521,35.3721525 7.61136332,37.0982331 7.61136332,37.0982331 L7.61136332,39.1160129 C7.61136332,39.8479831 7.20765179,40.5255028 6.56358023,40.8778753 L6.56358023,40.8778753 Z" id="Fill-1-Copy" fill="#FFFFFF" opacity="0.4"></path>
            <path d="M42.5635802,40.8778753 L37.6435891,43.560729 C37.3550015,43.7194133 37.0936391,43.9138793 36.854057,44.1231248 C39.7220423,46.5415046 43.4262316,48 47.4703476,48 C51.4872384,48 55.167314,46.5632848 58.0267428,44.1775753 C57.7653804,43.955884 57.4760149,43.755195 57.1602021,43.5972886 L51.8917278,40.9634404 C51.2110966,40.6227359 50.779382,39.9273253 50.779382,39.1642405 L50.779382,37.0982331 C50.9287319,36.9309923 51.0983063,36.7124125 51.2779929,36.457273 C51.9982952,35.4421602 52.5389108,34.326703 52.9153971,33.1567952 C53.5929168,32.9475497 54.0915278,32.3244805 54.0915278,31.5831759 L54.0915278,29.377153 C54.0915278,28.8909879 53.8760594,28.4561618 53.5384663,28.1527948 L53.5384663,24.9619958 C53.5384663,24.9619958 54.1949837,20 47.4703476,20 C40.7496009,20 41.4053404,24.9619958 41.4053404,24.9619958 L41.4053404,28.1527948 C41.0685252,28.4561618 40.852279,28.8909879 40.852279,29.377153 L40.852279,31.5831759 C40.852279,32.1634626 41.1595353,32.6737415 41.6153638,32.9716635 C42.1684252,35.3721525 43.6113633,37.0982331 43.6113633,37.0982331 L43.6113633,39.1160129 C43.6113633,39.8479831 43.2076518,40.5255028 42.5635802,40.8778753 L42.5635802,40.8778753 Z" id="Fill-1-Copy-2" fill="#FFFFFF" opacity="0.4"></path>
        </g>
    </g>
</svg>