<?xml version="1.0" encoding="UTF-8"?>
<svg width="59px" height="59px" viewBox="0 0 59 59" version="1.1" xmlns="http://www.w3.org/2000/svg" xmlns:xlink="http://www.w3.org/1999/xlink">
    <!-- Generator: Sketch 44.1 (41455) - http://www.bohemiancoding.com/sketch -->
    <title>Rectangle</title>
    <desc>Created with Sketch.</desc>
    <defs></defs>
    <g id="Symbols" stroke="none" stroke-width="1" fill="none" fill-rule="evenodd">
        <g id="Avatar/Group-Copy">
            <g id="Group-4" transform="translate(-2.000000, 0.000000)">
                <rect id="Rectangle" fill="#DDDDE1" x="2" y="0" width="59" height="59"></rect>
                <g id="Group-3" transform="translate(0.000000, 11.000000)" fill="#FFFFFF">
                    <path d="M15.3015078,39.4922695 C14.81778,39.7582546 0.434918695,47.6492647 0.0333333333,48 C0.0333333333,48 62.9666667,48 62.9666667,48 C62.5285735,47.6284032 48.5444311,39.8182317 48.0150686,39.5535504 L39.1841022,35.1387191 C38.0432347,34.5676334 37.3195987,33.4019928 37.3195987,32.1229174 L37.3195987,28.6598955 C37.5699377,28.3795681 37.8541767,28.0131867 38.1553657,27.5855243 C39.3627295,25.8840019 40.2689042,24.0142831 40.8999669,22.0532948 C42.035619,21.7025595 42.871386,20.6581768 42.871386,19.4156091 L42.871386,15.7178946 C42.871386,14.9029892 42.5102199,14.1741379 41.9443496,13.6656369 L41.9443496,8.31725006 C41.9443496,8.31725006 43.0447978,0 31.7730269,0 C20.5077752,0 21.6069196,8.31725006 21.6069196,8.31725006 L21.6069196,13.6656369 C21.0423531,14.1741379 20.6798832,14.9029892 20.6798832,15.7178946 L20.6798832,19.4156091 C20.6798832,20.3882802 21.1949034,21.2436048 21.9589587,21.7429788 C22.885995,25.7666556 25.3046341,28.6598955 25.3046341,28.6598955 L25.3046341,32.0420787 C25.3046341,33.2690003 24.6279367,34.4046524 23.5483501,34.9952958 L15.3015078,39.4922695 Z" id="Fill-1"></path>
                </g>
            </g>
        </g>
    </g>
</svg>