<?xml version="1.0" encoding="UTF-8"?>
<svg width="124px" height="36px" viewBox="0 0 124 36" version="1.1" xmlns="http://www.w3.org/2000/svg" xmlns:xlink="http://www.w3.org/1999/xlink">
    <!-- Generator: Sketch 44.1 (41455) - http://www.bohemiancoding.com/sketch -->
    <title>Page 1</title>
    <desc>Created with Sketch.</desc>
    <defs>
        <polygon id="path-1" points="0 35.1219512 123.168057 35.1219512 123.168057 0.416195122 0 0.416195122"></polygon>
    </defs>
    <g id="iStaff-Apps" stroke="none" stroke-width="1" fill="none" fill-rule="evenodd">
        <g id="Login-User-Roles" transform="translate(-127.000000, -572.000000)">
            <g id="Page-1" transform="translate(127.000000, 572.000000)">
                <polygon id="Fill-1" fill="#FFFFFF" points="14.291044 18.2229366 23.8575121 5.1821561 38.1773135 5.1821561 28.628434 18.2229366"></polygon>
                <polygon id="Fill-2" fill="#FFFFFF" points="9.54298723 18.2376878 0.030164539 31.2310537 14.349966 31.2310537 23.8803773 18.2376878"></polygon>
                <path d="M0,0.8784 L1.59617021,3.05771707 L15.9150922,3.05771707 L14.318922,0.8784 L0,0.8784 Z M3.18530496,5.22913171 L4.77531915,7.40054634 L19.0942411,7.40054634 L17.504227,5.22913171 L3.18530496,5.22913171 Z M6.35741844,9.56230244 L7.94743262,11.7337171 L22.2663546,11.7337171 L20.675461,9.56230244 L6.35741844,9.56230244 Z M9.53832624,13.9060098 L11.1230638,16.0783024 L25.4419858,16.0783024 L23.8554894,13.9060098 L9.53832624,13.9060098 Z" id="Fill-3" fill="#FFFFFF"></path>
                <path d="M12.7295234,20.3839902 L14.3160199,22.5554049 L28.6349418,22.5554049 L27.0493248,20.3839902 L12.7295234,20.3839902 Z M15.906034,24.7276976 L17.4951688,26.8991122 L31.8140908,26.8991122 L30.2240766,24.7276976 L15.906034,24.7276976 Z M19.0772681,29.0617463 L20.6664028,31.2305268 L34.9853248,31.2305268 L33.3961901,29.0617463 L19.0772681,29.0617463 Z M22.2555376,33.4028195 L23.8525872,35.5838927 L38.1715092,35.5838927 L36.5744596,33.4028195 L22.2555376,33.4028195 Z" id="Fill-4" fill="#FFFFFF"></path>
                <g id="Group-41" transform="translate(0.000000, 0.461590)">
                    <path d="M104.391643,17.3120488 C104.391643,17.9723415 104.615898,18.5237561 105.066167,18.9671707 C105.514678,19.4132195 106.066082,19.6344878 106.718621,19.6344878 C107.391387,19.6344878 107.957742,19.4149756 108.414167,18.9777073 C108.869713,18.540439 109.098366,18.0127317 109.098366,17.3945854 C109.098366,16.7263902 108.87499,16.1697073 108.427359,15.7254146 C107.980607,15.281122 107.41865,15.0589756 106.744125,15.0589756 C106.079274,15.0589756 105.521713,15.2740976 105.069685,15.7043415 C104.617657,16.1354634 104.391643,16.6719512 104.391643,17.3120488 Z M109.098366,13.6637561 L110.680465,13.6637561 L110.680465,19.9716585 C110.680465,21.2817073 110.329572,22.3090244 109.625146,23.0562439 C108.919841,23.8025854 107.96126,24.1757561 106.744125,24.1757561 C105.832153,24.1757561 105.066167,23.9606341 104.447047,23.5303902 C103.827926,23.0992683 103.377657,22.4653171 103.097118,21.6267805 L104.805855,21.6267805 C104.987018,21.9744878 105.252607,22.2431707 105.595586,22.4310732 C105.940323,22.6180976 106.338706,22.7129268 106.793373,22.7129268 C107.458224,22.7129268 108.014905,22.4714634 108.461657,21.9902927 C108.910167,21.510878 109.133543,20.8918537 109.133543,20.1358537 L109.133543,20.0392683 C108.784409,20.4431707 108.39394,20.7434634 107.96038,20.9392683 C107.52594,21.1368293 107.043132,21.2351707 106.511075,21.2351707 C105.415302,21.2351707 104.496295,20.8602439 103.754933,20.1086341 C103.014451,19.3570244 102.64421,18.4341951 102.64421,17.3392683 C102.64421,16.2583902 103.010054,15.3443415 103.742621,14.5953659 C104.47343,13.8455122 105.375728,13.4723415 106.449515,13.4723415 C106.990366,13.4723415 107.481089,13.5698049 107.918167,13.7682439 C108.356125,13.9640488 108.761543,14.2687317 109.133543,14.6805366 L109.098366,13.6637561 Z M96.592834,13.6637561 L96.592834,14.5233659 C96.8540255,14.1800488 97.1503943,13.9254146 97.481061,13.7603415 C97.8117277,13.5952683 98.192522,13.5136098 98.6225645,13.5136098 C99.164295,13.5136098 99.6374298,13.6163415 100.044607,13.8218049 C100.450905,14.0281463 100.787728,14.3372195 101.058593,14.7499024 C101.242394,15.0282439 101.37343,15.3443415 101.451699,15.6938049 C101.529969,16.0441463 101.569543,16.5542927 101.569543,17.2224878 L101.569543,21.222 L99.7930894,21.222 L99.7930894,17.8757561 C99.7930894,16.8545854 99.674366,16.1582927 99.4395574,15.786878 C99.2029901,15.4163415 98.7975716,15.2301951 98.2241816,15.2301951 C97.6411177,15.2301951 97.2216284,15.4365366 96.9657135,15.8483415 C96.7080397,16.2610244 96.5787631,16.9722439 96.5787631,17.9863902 L96.5787631,21.222 L94.8744227,21.222 L94.8744227,13.6637561 L96.592834,13.6637561 Z M91.4200113,21.221122 L93.1401816,21.221122 L93.1401816,13.6637561 L91.4200113,13.6637561 L91.4200113,21.221122 Z M91.4191319,12.8945854 L93.1393021,12.8945854 L93.1393021,11.2175122 L91.4191319,11.2175122 L91.4191319,12.8945854 Z M83.4646638,17.3120488 C83.4646638,17.9723415 83.6889191,18.5237561 84.1391887,18.9671707 C84.5876993,19.4132195 85.1391035,19.6344878 85.7907631,19.6344878 C86.4644085,19.6344878 87.0298837,19.4149756 87.4871887,18.9777073 C87.9427348,18.540439 88.1722667,18.0127317 88.1722667,17.3945854 C88.1722667,16.7263902 87.9480113,16.1697073 87.5003801,15.7254146 C87.0536284,15.281122 86.4916709,15.0589756 85.8162667,15.0589756 C85.1531745,15.0589756 84.5947348,15.2740976 84.141827,15.7043415 C83.690678,16.1354634 83.4646638,16.6719512 83.4646638,17.3120488 Z M88.1722667,13.6637561 L89.754366,13.6637561 L89.754366,19.9716585 C89.754366,21.2817073 89.4017135,22.3090244 88.6981674,23.0562439 C87.9937418,23.8025854 87.0342809,24.1757561 85.8162667,24.1757561 C84.9051745,24.1757561 84.1391887,23.9606341 83.5200681,23.5303902 C82.9000681,23.0992683 82.450678,22.4653171 82.1710184,21.6267805 L83.8779972,21.6267805 C84.0600397,21.9744878 84.3256284,22.2431707 84.6694865,22.4310732 C85.0124652,22.6180976 85.4117277,22.7129268 85.8655149,22.7129268 C86.5312454,22.7129268 87.0879262,22.4714634 87.534678,21.9902927 C87.9814298,21.510878 88.2048057,20.8918537 88.2048057,20.1358537 L88.2048057,20.0392683 C87.8565504,20.4431707 87.4660823,20.7434634 87.032522,20.9392683 C86.5998411,21.1368293 86.1161532,21.2351707 85.5849759,21.2351707 C84.4883234,21.2351707 83.5693163,20.8602439 82.8279546,20.1086341 C82.0874723,19.3570244 81.7172312,18.4341951 81.7172312,17.3392683 C81.7172312,16.2583902 82.0830752,15.3443415 82.8147631,14.5953659 C83.5455716,13.8455122 84.4487489,13.4723415 85.5225362,13.4723415 C86.0633872,13.4723415 86.5541106,13.5698049 86.9911887,13.7682439 C87.4291461,13.9640488 87.8345645,14.2687317 88.2048057,14.6805366 L88.1722667,13.6637561 Z M75.6878411,13.6637561 L75.6878411,14.5233659 C75.9507915,14.1800488 76.2454014,13.9254146 76.5751887,13.7603415 C76.9058553,13.5952683 77.2866496,13.5136098 77.7175716,13.5136098 C78.2601816,13.5136098 78.7333163,13.6163415 79.1396142,13.8218049 C79.5450326,14.0281463 79.8836142,14.3372195 80.1544794,14.7499024 C80.3374014,15.0282439 80.4675574,15.3443415 80.545827,15.6938049 C80.6240965,16.0441463 80.6636709,16.5542927 80.6636709,17.2224878 L80.6636709,21.222 L78.8889759,21.222 L78.8889759,17.8757561 C78.8889759,16.8545854 78.7702525,16.1582927 78.5336851,15.786878 C78.2979972,15.4163415 77.8916993,15.2301951 77.3191887,15.2301951 C76.7352454,15.2301951 76.3166355,15.4365366 76.0598411,15.8483415 C75.8030468,16.2610244 75.6737702,16.9722439 75.6737702,17.9863902 L75.6737702,21.222 L73.9685504,21.222 L73.9685504,13.6637561 L75.6878411,13.6637561 Z M66.4151035,17.3814146 C66.4151035,18.0267805 66.6323234,18.5615122 67.0667631,18.9856098 C67.4985645,19.4088293 68.0411745,19.620439 68.692834,19.620439 C69.2899688,19.620439 69.8000397,19.4079512 70.227444,18.9820976 C70.6548482,18.5553659 70.8676709,18.0496098 70.8676709,17.4630732 C70.8676709,16.8264878 70.6522099,16.2935122 70.2204085,15.8623902 C69.7886071,15.4321463 69.2521532,15.2179024 68.6101674,15.2179024 C68.0007206,15.2179024 67.4827348,15.426 67.0553305,15.8421951 C66.6288057,16.2583902 66.4151035,16.7729268 66.4151035,17.3814146 Z M70.8949333,21.222 L70.9213163,20.1762439 C70.6654014,20.5889268 70.3426496,20.8953659 69.9556993,21.0946829 C69.5687489,21.293122 69.097373,21.3932195 68.5415716,21.3932195 C67.4229333,21.3932195 66.4863376,21.0112683 65.7344227,20.2456098 C64.9816284,19.4817073 64.6052312,18.5351707 64.6052312,17.4077561 C64.6052312,16.2996585 64.9772312,15.3662927 65.7212312,14.6094146 C66.4634723,13.8516585 67.3895149,13.4723415 68.5002383,13.4723415 C68.9918411,13.4723415 69.4350752,13.5689268 69.8316993,13.7629756 C70.2283234,13.9587805 70.5924085,14.2590732 70.9213163,14.6664878 L70.879983,13.6637561 L72.6010326,13.6637561 L72.6010326,21.222 L70.8949333,21.222 Z M58.7455716,11.2183902 L58.7455716,14.5233659 C59.0067631,14.1800488 59.3022525,13.9254146 59.6329191,13.7603415 C59.9627064,13.5952683 60.3443801,13.5136098 60.7744227,13.5136098 C61.7154156,13.5136098 62.4409475,13.8042439 62.9527773,14.3890244 C63.4637277,14.9720488 63.720522,15.8053171 63.720522,16.8861951 L63.720522,21.222 L61.9440681,21.222 L61.9440681,17.8898049 L61.9440681,17.3392683 C61.9440681,16.6201463 61.8165504,16.0889268 61.559756,15.7464878 C61.3029617,15.4022927 60.9080965,15.2301951 60.3769191,15.2301951 C59.7929759,15.2301951 59.3734865,15.4365366 59.1158128,15.8483415 C58.8598979,16.2610244 58.7315007,16.9722439 58.7315007,17.9863902 L58.7315007,21.222 L57.024522,21.222 L57.024522,11.2183902 L58.7455716,11.2183902 Z M53.9781674,16.3497073 C53.7583092,15.9519512 53.4848057,15.6560488 53.1594156,15.461122 C52.8340255,15.2661951 52.4497135,15.1687317 52.0038411,15.1687317 C51.4067064,15.1687317 50.909827,15.3847317 50.5079262,15.8140976 C50.1051461,16.2452195 49.9046355,16.7852195 49.9046355,17.4358537 C49.9046355,18.072439 50.1104227,18.6054146 50.5219972,19.0330244 C50.9318128,19.4623902 51.4454014,19.674878 52.0654014,19.674878 C52.5464511,19.674878 52.944834,19.5739024 53.2596709,19.3701951 C53.5745078,19.1656098 53.8084369,18.8609268 53.9649759,18.4526341 L55.8364085,18.4526341 C55.6297418,19.368439 55.1882667,20.0919512 54.5111035,20.6231707 C53.8348199,21.1543902 53.023983,21.420439 52.0794723,21.420439 C50.9555574,21.420439 50.0075291,21.0314634 49.2336284,20.2526341 C48.4606071,19.4746829 48.0745362,18.539561 48.0745362,17.4499024 C48.0745362,16.3453171 48.4632454,15.4014146 49.2415433,14.616439 C50.0180823,13.8305854 50.9397277,13.4372195 52.0038411,13.4372195 C52.9817702,13.4372195 53.8119546,13.697122 54.4979121,14.2178049 C55.1838695,14.7376098 55.6358979,15.4470732 55.8504794,16.3497073 L53.9781674,16.3497073 Z" id="Fill-5" fill="#FFFFFF"></path>
                    <polygon id="Fill-7" fill="#FFFFFF" points="43.2153191 17.7009366 40.7995177 21.2157659 38.171773 21.2157659 41.9955461 16.1704976 38.2702695 11.2200585 40.9068085 11.2200585 43.2153191 14.6936195 45.5159149 11.2200585 48.1436596 11.2200585 44.4430071 16.1704976 48.2500709 21.2157659 45.6144113 21.2157659"></polygon>
                    <path d="M47.5167121,28.682078 L46.8078894,30.9017854 L48.2132227,30.9017854 L47.5167121,28.682078 Z M48.6133645,32.0704683 L48.3847121,31.4128098 L46.6364,31.4128098 L46.4139035,32.0704683 L45.8229248,32.0704683 L47.3074071,27.7662732 L47.7145844,27.7662732 L49.2043433,32.0704683 L48.6133645,32.0704683 Z" id="Fill-9" fill="#FFFFFF"></path>
                    <path d="M51.7086156,28.2705366 L51.7086156,31.5667317 L52.4789986,31.5667317 C53.5378355,31.5667317 54.1358496,30.7483902 54.1358496,29.9186341 C54.1358496,29.0818537 53.5378355,28.2705366 52.4789986,28.2705366 L51.7086156,28.2705366 Z M52.4789986,27.7665366 C53.9071972,27.7665366 54.7145163,28.8298537 54.7145163,29.9186341 C54.7145163,31.0065366 53.9071972,32.0707317 52.4789986,32.0707317 L51.1475376,32.0707317 L51.1475376,27.7665366 L52.4789986,27.7665366 Z" id="Fill-11" fill="#FFFFFF"></path>
                    <polygon id="Fill-13" fill="#FFFFFF" points="57.3604652 27.766361 58.0015716 27.766361 56.6885787 29.9184585 58.0015716 32.0705561 57.3604652 32.0705561 56.3684652 30.4040195 55.3764652 32.0705561 54.7423943 32.0705561 56.0483518 29.9184585 54.7423943 27.766361 55.3764652 27.766361 56.3684652 29.4320195"></polygon>
                    <path d="M62.311583,30.7425951 C62.0952426,31.5477659 61.319583,32.1694244 60.2906468,32.1694244 C58.8809163,32.1694244 58.030505,31.117522 58.030505,29.912839 C58.030505,28.7441561 58.8615688,27.6676683 60.2106184,27.6676683 C61.4611716,27.6676683 62.1506468,28.3753756 62.311583,29.2727415 L61.7197248,29.2727415 C61.5904482,28.6449366 61.0794979,28.1716683 60.2783348,28.1716683 C59.2186184,28.1716683 58.6030156,29.0075707 58.6030156,29.912839 C58.6030156,30.8593756 59.244122,31.6654244 60.3583631,31.6654244 C60.9502213,31.6654244 61.5165759,31.2773268 61.6951007,30.7425951 L62.311583,30.7425951 Z" id="Fill-15" fill="#FFFFFF"></path>
                    <polygon id="Fill-17" fill="#FFFFFF" points="65.1706184 28.2705366 64.0554979 28.2705366 64.0554979 27.7665366 66.8520936 27.7665366 66.8520936 28.2705366 65.7316965 28.2705366 65.7316965 32.0707317 65.1706184 32.0707317"></polygon>
                    <path d="M67.1716794,30.4107805 L68.7924738,30.4107805 C68.7924738,29.9243415 68.4530128,29.6170244 68.0036227,29.6170244 C67.522573,29.6170244 67.1848709,29.9059024 67.1716794,30.4107805 L67.1716794,30.4107805 Z M67.1655234,30.816439 C67.1901475,31.2897073 67.4179206,31.6892195 68.0335234,31.6892195 C68.4530128,31.6892195 68.6561617,31.4872683 68.7423461,31.2466829 L69.2840766,31.2466829 C69.1926156,31.7199512 68.7361901,32.1387805 68.0335234,32.1387805 C67.0916511,32.1387805 66.636105,31.4802439 66.636105,30.6750732 C66.636105,29.8321463 67.1347433,29.2052195 68.0159348,29.2052195 C68.7423461,29.2052195 69.3095801,29.7522439 69.3095801,30.4652195 C69.3095801,30.545122 69.3095801,30.6627805 69.2840766,30.816439 L67.1655234,30.816439 Z" id="Fill-19" fill="#FFFFFF"></path>
                    <path d="M71.9862213,30.2932976 C71.9431291,29.9491024 71.7338241,29.6848098 71.2105617,29.6848098 C70.6310156,29.6848098 70.3416823,30.1519317 70.3416823,30.6752488 C70.3416823,31.2038341 70.6187035,31.6586634 71.2404624,31.6586634 C71.703044,31.6586634 71.9061929,31.4435415 71.9923773,31.111639 L72.5279518,31.111639 C72.4426468,31.6893951 72.0170014,32.1389561 71.2035262,32.1389561 C70.292434,32.1389561 69.8061078,31.4312488 69.8061078,30.6752488 C69.8061078,29.9183707 70.292434,29.2053951 71.1982496,29.2053951 C72.1040652,29.2053951 72.473427,29.7524195 72.5217957,30.2932976 L71.9862213,30.2932976 Z" id="Fill-21" fill="#FFFFFF"></path>
                    <path d="M73.2160199,27.766361 L73.7515943,27.766361 L73.7515943,29.7709463 C73.9186865,29.4320195 74.2634241,29.2054829 74.7374383,29.2054829 C75.1261475,29.2054829 75.4093248,29.3407024 75.5755376,29.5742634 C75.7294383,29.783239 75.7909986,30.0290927 75.7909986,30.4224585 L75.7909986,32.0705561 L75.2545447,32.0705561 L75.2545447,30.5892878 C75.2545447,30.0721171 75.0698638,29.6787512 74.5474809,29.6787512 C74.011027,29.6787512 73.7515943,30.1335805 73.7515943,30.6323122 L73.7515943,32.0705561 L73.2160199,32.0705561 L73.2160199,27.766361 Z" id="Fill-23" fill="#FFFFFF"></path>
                    <path d="M76.6333191,29.2788878 L77.1688936,29.2788878 L77.1688936,29.7714732 C77.3359858,29.4325463 77.6807234,29.2051317 78.1547376,29.2051317 C78.5434468,29.2051317 78.8266241,29.3403512 78.9928369,29.5739122 C79.1467376,29.7828878 79.2082979,30.0287415 79.2082979,30.4229854 L79.2082979,32.0710829 L78.671844,32.0710829 L78.671844,30.5889366 C78.671844,30.0717659 78.4871631,29.6784 77.9647801,29.6784 C77.4283262,29.6784 77.1688936,30.1341073 77.1688936,30.631961 L77.1688936,32.0710829 L76.6333191,32.0710829 L76.6333191,29.2788878 Z" id="Fill-25" fill="#FFFFFF"></path>
                    <path d="M82.2362723,30.6748976 C82.2362723,30.1401659 81.8669106,29.6844585 81.288244,29.6844585 C80.7210099,29.6844585 80.3516482,30.1401659 80.3516482,30.6748976 C80.3516482,31.2096293 80.7210099,31.6583122 81.288244,31.6583122 C81.8669106,31.6583122 82.2362723,31.2096293 82.2362723,30.6748976 M79.8222298,30.6748976 C79.8222298,29.8820195 80.4008965,29.2050439 81.288244,29.2050439 C82.1870241,29.2050439 82.7665702,29.8820195 82.7665702,30.6748976 C82.7665702,31.4616293 82.1870241,32.1386049 81.288244,32.1386049 C80.4008965,32.1386049 79.8222298,31.4616293 79.8222298,30.6748976" id="Fill-27" fill="#FFFFFF"></path>
                    <mask id="mask-2" fill="white">
                        <use xlink:href="#path-1"></use>
                    </mask>
                    <g id="Clip-30"></g>
                    <polygon id="Fill-29" fill="#FFFFFF" mask="url(#mask-2)" points="83.4352908 32.0707317 83.9708652 32.0707317 83.9708652 27.7665366 83.4352908 27.7665366"></polygon>
                    <path d="M87.0559149,30.6748976 C87.0559149,30.1401659 86.6865532,29.6844585 86.1078865,29.6844585 C85.5406525,29.6844585 85.1712908,30.1401659 85.1712908,30.6748976 C85.1712908,31.2096293 85.5406525,31.6583122 86.1078865,31.6583122 C86.6865532,31.6583122 87.0559149,31.2096293 87.0559149,30.6748976 M84.6418723,30.6748976 C84.6418723,29.8820195 85.220539,29.2050439 86.1078865,29.2050439 C87.0066667,29.2050439 87.5862128,29.8820195 87.5862128,30.6748976 C87.5862128,31.4616293 87.0066667,32.1386049 86.1078865,32.1386049 C85.220539,32.1386049 84.6418723,31.4616293 84.6418723,30.6748976" id="Fill-31" fill="#FFFFFF" mask="url(#mask-2)"></path>
                    <path d="M88.5580738,30.6748976 C88.5580738,31.2096293 88.9274355,31.6583122 89.4937901,31.6583122 C90.0733362,31.6583122 90.4426979,31.2096293 90.4426979,30.6748976 C90.4426979,30.1401659 90.0733362,29.6844585 89.4937901,29.6844585 C88.9274355,29.6844585 88.5580738,30.1401659 88.5580738,30.6748976 L88.5580738,30.6748976 Z M90.9721163,32.249239 C90.9721163,33.2458244 90.4119177,33.6453366 89.4823574,33.6453366 C88.5272936,33.6453366 88.1016482,33.0544098 88.0647121,32.4274829 L88.607322,32.4274829 C88.6381021,32.8208488 88.8966553,33.1720683 89.4823574,33.1720683 C90.0786128,33.1720683 90.4426979,32.9068976 90.4426979,32.249239 L90.4426979,31.5845561 C90.2632936,31.9234829 89.8693078,32.1386049 89.4630099,32.1386049 C88.607322,32.1386049 88.0277759,31.4616293 88.0277759,30.6748976 C88.0277759,29.8820195 88.607322,29.2050439 89.4630099,29.2050439 C89.8693078,29.2050439 90.2632936,29.4201659 90.4426979,29.7582146 L90.4426979,29.2788 L90.9721163,29.2788 L90.9721163,32.249239 Z" id="Fill-32" fill="#FFFFFF" mask="url(#mask-2)"></path>
                    <path d="M91.8078411,32.4335415 L92.3495716,32.4335415 C92.3803518,32.9375415 92.6644085,33.1895415 93.1261106,33.1895415 C93.6062809,33.1895415 93.9088057,32.9998829 93.9088057,32.3597854 L93.9088057,31.5730537 C93.7417135,31.9111024 93.4031319,32.1385171 92.9282383,32.1385171 C92.5219404,32.1385171 92.2510752,32.0094439 92.0795858,31.7820293 C91.9248057,31.5730537 91.8694014,31.3201756 91.8694014,30.9092488 L91.8694014,29.2787122 L92.4058553,29.2787122 L92.4058553,30.7424195 C92.4058553,31.2832976 92.5650326,31.6652488 93.1199546,31.6652488 C93.6564085,31.6652488 93.9088057,31.2156878 93.9088057,30.7116878 L93.9088057,29.2787122 L94.4443801,29.2787122 L94.4443801,32.3597854 C94.4443801,33.2518829 93.976522,33.6452488 93.1129191,33.6452488 C92.3187915,33.6452488 91.8263092,33.2395902 91.8078411,32.4335415" id="Fill-33" fill="#FFFFFF" mask="url(#mask-2)"></path>
                    <path d="M100.870922,30.7425951 C100.655461,31.5477659 99.8798014,32.1694244 98.8508652,32.1694244 C97.4411348,32.1694244 96.5907234,31.117522 96.5907234,29.912839 C96.5907234,28.7441561 97.4217872,27.6676683 98.7708369,27.6676683 C100.02139,27.6676683 100.710865,28.3753756 100.870922,29.2727415 L100.279943,29.2727415 C100.150667,28.6449366 99.6397163,28.1716683 98.8385532,28.1716683 C97.7788369,28.1716683 97.163234,29.0075707 97.163234,29.912839 C97.163234,30.8593756 97.8043404,31.6654244 98.9185816,31.6654244 C99.5104397,31.6654244 100.076794,31.2773268 100.255319,30.7425951 L100.870922,30.7425951 Z" id="Fill-34" fill="#FFFFFF" mask="url(#mask-2)"></path>
                    <path d="M103.7136,30.6748976 C103.7136,30.1401659 103.344238,29.6844585 102.765572,29.6844585 C102.198338,29.6844585 101.828976,30.1401659 101.828976,30.6748976 C101.828976,31.2096293 102.198338,31.6583122 102.765572,31.6583122 C103.344238,31.6583122 103.7136,31.2096293 103.7136,30.6748976 M101.299557,30.6748976 C101.299557,29.8820195 101.878224,29.2050439 102.765572,29.2050439 C103.664352,29.2050439 104.243898,29.8820195 104.243898,30.6748976 C104.243898,31.4616293 103.664352,32.1386049 102.765572,32.1386049 C101.878224,32.1386049 101.299557,31.4616293 101.299557,30.6748976" id="Fill-35" fill="#FFFFFF" mask="url(#mask-2)"></path>
                    <path d="M108.53421,32.0708195 L108.53421,30.4657463 C108.53421,29.9494537 108.325784,29.6781366 107.943231,29.6781366 C107.529898,29.6781366 107.259912,29.9986244 107.259912,30.6501366 L107.259912,32.0708195 L106.723458,32.0708195 L106.723458,30.496478 C106.723458,29.9301366 106.514153,29.6781366 106.138635,29.6781366 C105.731458,29.6781366 105.448281,29.9986244 105.448281,30.6501366 L105.448281,32.0708195 L104.912706,32.0708195 L104.912706,29.2786244 L105.448281,29.2786244 L105.448281,29.7773561 C105.552933,29.469161 105.861614,29.2048683 106.274068,29.2048683 C106.792054,29.2048683 107.069075,29.4454537 107.172848,29.8019415 C107.290692,29.4823317 107.63543,29.2048683 108.073387,29.2048683 C108.817387,29.2048683 109.069784,29.6904293 109.069784,30.3059415 L109.069784,32.0708195 L108.53421,32.0708195 Z" id="Fill-36" fill="#FFFFFF" mask="url(#mask-2)"></path>
                    <path d="M110.45964,30.6748976 C110.45964,31.2096293 110.829881,31.6583122 111.408548,31.6583122 C111.968746,31.6583122 112.338987,31.2096293 112.338987,30.6748976 C112.338987,30.1401659 111.968746,29.6844585 111.408548,29.6844585 C110.829881,29.6844585 110.45964,30.1401659 110.45964,30.6748976 L110.45964,30.6748976 Z M110.45964,29.7582146 C110.638165,29.4201659 111.026874,29.2050439 111.433172,29.2050439 C112.295895,29.2050439 112.874562,29.8820195 112.874562,30.6748976 C112.874562,31.4616293 112.295895,32.1386049 111.433172,32.1386049 C111.026874,32.1386049 110.638165,31.9234829 110.45964,31.5845561 L110.45964,33.5838732 L109.924065,33.5838732 L109.924065,29.2788 L110.45964,29.2788 L110.45964,29.7582146 Z" id="Fill-37" fill="#FFFFFF" mask="url(#mask-2)"></path>
                    <path d="M115.736235,30.6748976 C115.736235,30.1401659 115.366874,29.6844585 114.788207,29.6844585 C114.220973,29.6844585 113.851611,30.1401659 113.851611,30.6748976 C113.851611,31.2096293 114.220973,31.6583122 114.788207,31.6583122 C115.366874,31.6583122 115.736235,31.2096293 115.736235,30.6748976 L115.736235,30.6748976 Z M116.266533,29.2788 L116.266533,32.0709951 L115.736235,32.0709951 L115.736235,31.5845561 C115.557711,31.9234829 115.163725,32.1386049 114.757427,32.1386049 C113.90086,32.1386049 113.322193,31.4616293 113.322193,30.6748976 C113.322193,29.8820195 113.90086,29.2050439 114.757427,29.2050439 C115.163725,29.2050439 115.557711,29.4201659 115.736235,29.7582146 L115.736235,29.2788 L116.266533,29.2788 Z" id="Fill-38" fill="#FFFFFF" mask="url(#mask-2)"></path>
                    <path d="M117.162763,29.2788878 L117.698338,29.2788878 L117.698338,29.7714732 C117.86543,29.4325463 118.210167,29.2051317 118.684182,29.2051317 C119.072891,29.2051317 119.356068,29.3403512 119.522281,29.5739122 C119.676182,29.7828878 119.737742,30.0287415 119.737742,30.4229854 L119.737742,32.0710829 L119.201288,32.0710829 L119.201288,30.5889366 C119.201288,30.0717659 119.016607,29.6784 118.494224,29.6784 C117.95777,29.6784 117.698338,30.1341073 117.698338,30.631961 L117.698338,32.0710829 L117.162763,32.0710829 L117.162763,29.2788878 Z" id="Fill-39" fill="#FFFFFF" mask="url(#mask-2)"></path>
                    <path d="M120.531078,32.4335415 L121.072809,32.4335415 C121.103589,32.9375415 121.387645,33.1895415 121.849348,33.1895415 C122.329518,33.1895415 122.632043,32.9998829 122.632043,32.3597854 L122.632043,31.5730537 C122.46495,31.9111024 122.126369,32.1385171 121.651475,32.1385171 C121.245177,32.1385171 120.974312,32.0094439 120.802823,31.7820293 C120.648043,31.5730537 120.592638,31.3201756 120.592638,30.9092488 L120.592638,29.2787122 L121.129092,29.2787122 L121.129092,30.7424195 C121.129092,31.2832976 121.28827,31.6652488 121.843191,31.6652488 C122.379645,31.6652488 122.632043,31.2156878 122.632043,30.7116878 L122.632043,29.2787122 L123.167617,29.2787122 L123.167617,32.3597854 C123.167617,33.2518829 122.699759,33.6452488 121.836156,33.6452488 C121.042028,33.6452488 120.549546,33.2395902 120.531078,32.4335415" id="Fill-40" fill="#FFFFFF" mask="url(#mask-2)"></path>
                </g>
            </g>
        </g>
    </g>
</svg>