<?xml version="1.0" encoding="UTF-8"?>
<svg width="375px" height="51px" viewBox="0 0 375 51" version="1.1" xmlns="http://www.w3.org/2000/svg" xmlns:xlink="http://www.w3.org/1999/xlink">
    <!-- Generator: Sketch 44.1 (41455) - http://www.bohemiancoding.com/sketch -->
    <title>sample_messagebar</title>
    <desc>Created with Sketch.</desc>
    <defs>
        <rect id="path-1" x="0" y="0" width="375" height="50"></rect>
        <filter x="-0.1%" y="-3.0%" width="100.3%" height="104.0%" filterUnits="objectBoundingBox" id="filter-2">
            <feOffset dx="0" dy="-1" in="SourceAlpha" result="shadowOffsetOuter1"></feOffset>
            <feColorMatrix values="0 0 0 0 0.837768457   0 0 0 0 0.869232521   0 0 0 0 0.89283057  0 0 0 1 0" type="matrix" in="shadowOffsetOuter1"></feColorMatrix>
        </filter>
        <rect id="path-3" x="43" y="8" width="278" height="34"></rect>
    </defs>
    <g id="iStaff-Apps" stroke="none" stroke-width="1" fill="none" fill-rule="evenodd">
        <g id="Message-Group" transform="translate(0.000000, -616.000000)">
            <g id="Input/Message-Bar" transform="translate(0.000000, 617.000000)">
                <g id="Group" stroke-width="1" fill-rule="evenodd">
                    <g id="Rectangle-305">
                        <use fill="black" fill-opacity="1" filter="url(#filter-2)" xlink:href="#path-1"></use>
                        <use fill="#F8F8F8" fill-rule="evenodd" xlink:href="#path-1"></use>
                    </g>
                    <g id="Rectangle-306">
                        <use fill="#FFFFFF" fill-rule="evenodd" xlink:href="#path-3"></use>
                        <rect stroke="#EAEBED" stroke-width="0.5" x="42.75" y="7.75" width="278.5" height="34.5"></rect>
                    </g>
                    <path d="M275.208018,20.840332 L278.66749,20.840332 C279.535008,20.840332 280.240648,21.1164523 280.784434,21.6687012 C281.328219,22.22095 281.600107,22.9329383 281.600107,23.8046875 C281.600107,24.6595095 281.323987,25.3609185 280.771738,25.9089355 C280.219489,26.4569526 279.513849,26.730957 278.654795,26.730957 L276.350596,26.730957 L276.350596,30 L275.208018,30 L275.208018,20.840332 Z M276.350596,21.855957 L276.350596,25.715332 L278.36915,25.715332 C279.020846,25.715332 279.526538,25.5481788 279.88624,25.2138672 C280.245943,24.8795556 280.425791,24.4098338 280.425791,23.8046875 C280.425791,23.1741505 280.249116,22.6917334 279.895762,22.3574219 C279.542407,22.0231103 279.033542,21.855957 278.36915,21.855957 L276.350596,21.855957 Z M283.24667,30 L283.24667,23.1572266 L284.287686,23.1572266 L284.287686,24.1728516 L284.389248,24.1728516 C284.490811,23.83854 284.719324,23.5655935 285.074795,23.3540039 C285.430265,23.1424143 285.834396,23.0366211 286.287197,23.0366211 C286.494555,23.0366211 286.676519,23.0472004 286.833096,23.0683594 L286.833096,24.1601562 C286.684983,24.1178383 286.452238,24.0966797 286.134854,24.0966797 C285.614343,24.0966797 285.184823,24.2532536 284.846279,24.5664062 C284.507736,24.8795589 284.338467,25.2773413 284.338467,25.7597656 L284.338467,30 L283.24667,30 Z M290.656904,24.0014648 C290.111003,24.0014648 289.66244,24.185545 289.311201,24.5537109 C288.959962,24.9218768 288.763187,25.4085256 288.720869,26.0136719 L292.491377,26.0136719 C292.478682,25.4085256 292.305181,24.9218768 291.970869,24.5537109 C291.636558,24.185545 291.198574,24.0014648 290.656904,24.0014648 Z M292.459639,28.2290039 L293.551436,28.2290039 C293.386396,28.8214548 293.051031,29.2848291 292.545332,29.6191406 C292.039633,29.9534522 291.414395,30.1206055 290.6696,30.1206055 C289.721678,30.1206055 288.970546,29.8021679 288.416182,29.1652832 C287.861817,28.5283985 287.584639,27.6682997 287.584639,26.5849609 C287.584639,25.505854 287.863933,24.6446972 288.422529,24.0014648 C288.981126,23.3582325 289.730142,23.0366211 290.6696,23.0366211 C291.59213,23.0366211 292.317872,23.3434214 292.846846,23.9570312 C293.37582,24.5706411 293.640303,25.4106392 293.640303,26.4770508 L293.640303,26.8959961 L288.720869,26.8959961 L288.720869,26.9467773 C288.750492,27.6238641 288.941977,28.1612936 289.295332,28.559082 C289.648687,28.9568705 290.115235,29.1557617 290.69499,29.1557617 C291.579435,29.1557617 292.167645,28.8468455 292.459639,28.2290039 Z M295.115479,25.0297852 C295.115479,24.462725 295.358803,23.9887714 295.845459,23.6079102 C296.332115,23.2270489 296.939368,23.0366211 297.667236,23.0366211 C298.382409,23.0366211 298.972735,23.2016585 299.438232,23.5317383 C299.90373,23.8618181 300.172444,24.3082654 300.244385,24.8710938 L299.165283,24.8710938 C299.089111,24.5917955 298.9209,24.3706877 298.660645,24.2077637 C298.400389,24.0448397 298.067141,23.9633789 297.660889,23.9633789 C297.250405,23.9633789 296.906577,24.0585928 296.629395,24.2490234 C296.352212,24.4394541 296.213623,24.6848943 296.213623,24.9853516 C296.213623,25.2181001 296.309895,25.4117017 296.502441,25.5661621 C296.694988,25.7206225 296.994383,25.8465164 297.400635,25.9438477 L298.454346,26.1977539 C299.106042,26.3543302 299.587401,26.5807277 299.898438,26.8769531 C300.209474,27.1731786 300.36499,27.5646135 300.36499,28.0512695 C300.36499,28.6564158 300.104739,29.152586 299.584229,29.5397949 C299.063718,29.9270039 298.409916,30.1206055 297.622803,30.1206055 C296.86108,30.1206055 296.2369,29.9513363 295.750244,29.612793 C295.263588,29.2742496 294.990642,28.8214547 294.931396,28.2543945 L296.054932,28.2543945 C296.148031,28.55062 296.332111,28.7823071 296.607178,28.9494629 C296.882244,29.1166187 297.233478,29.2001953 297.660889,29.2001953 C298.122154,29.2001953 298.500894,29.1007497 298.797119,28.9018555 C299.093345,28.7029612 299.241455,28.4469417 299.241455,28.1337891 C299.241455,27.6682919 298.879642,27.3466806 298.156006,27.1689453 L296.981689,26.8833008 C296.334225,26.7267245 295.86133,26.5013849 295.562988,26.2072754 C295.264647,25.9131658 295.115479,25.520673 295.115479,25.0297852 Z M304.72835,24.0014648 C304.182448,24.0014648 303.733885,24.185545 303.382646,24.5537109 C303.031408,24.9218768 302.834632,25.4085256 302.792314,26.0136719 L306.562822,26.0136719 C306.550127,25.4085256 306.376626,24.9218768 306.042314,24.5537109 C305.708003,24.185545 305.270019,24.0014648 304.72835,24.0014648 Z M306.531084,28.2290039 L307.622881,28.2290039 C307.457841,28.8214548 307.122476,29.2848291 306.616777,29.6191406 C306.111078,29.9534522 305.48584,30.1206055 304.741045,30.1206055 C303.793124,30.1206055 303.041992,29.8021679 302.487627,29.1652832 C301.933262,28.5283985 301.656084,27.6682997 301.656084,26.5849609 C301.656084,25.505854 301.935378,24.6446972 302.493975,24.0014648 C303.052571,23.3582325 303.801587,23.0366211 304.741045,23.0366211 C305.663576,23.0366211 306.389317,23.3434214 306.918291,23.9570312 C307.447265,24.5706411 307.711748,25.4106392 307.711748,26.4770508 L307.711748,26.8959961 L302.792314,26.8959961 L302.792314,26.9467773 C302.821937,27.6238641 303.013423,28.1612936 303.366777,28.559082 C303.720132,28.9568705 304.18668,29.1557617 304.766436,29.1557617 C305.65088,29.1557617 306.23909,28.8468455 306.531084,28.2290039 Z M309.802646,21.449707 L310.894443,21.449707 L310.894443,23.1572266 L312.481357,23.1572266 L312.481357,24.0712891 L310.894443,24.0712891 L310.894443,27.9433594 C310.894443,28.3453796 310.974846,28.6373689 311.135654,28.8193359 C311.296462,29.001303 311.554598,29.0922852 311.910068,29.0922852 C312.058181,29.0922852 312.223218,29.0838217 312.405186,29.0668945 L312.405186,29.9873047 C312.163973,30.0296226 311.954503,30.0507812 311.776768,30.0507812 C311.070058,30.0507812 310.564367,29.9090183 310.259678,29.6254883 C309.954989,29.3419582 309.802646,28.8743522 309.802646,28.2226562 L309.802646,24.0712891 L308.653721,24.0712891 L308.653721,23.1572266 L309.802646,23.1572266 L309.802646,21.449707 Z" id="Preset" fill="#00AADD"></path>
                    <polygon id="Shape" fill="#15A9C7" fill-rule="nonzero" transform="translate(21.392472, 25.381223) rotate(-315.000000) translate(-21.392472, -25.381223) " points="27.1007332 20.3445967 26.438892 19.6842105 21.3924718 24.721005 16.3460331 19.6842105 15.6842105 20.3445967 20.7306493 25.3814284 15.6842105 30.4178684 16.3460331 31.0782359 21.3924718 26.0417959 26.438892 31.0782359 27.1007332 30.4178684 22.0539399 25.3814284"></polygon>
                </g>
                <text id="Arrived-at-the-gate" font-family="SFUIText-Regular, SF UI Text" font-size="17" font-weight="normal" letter-spacing="-0.408"></text>
                <text id="Send" font-family="SFUIText-Bold, SF UI Text" font-size="15" font-weight="bold" letter-spacing="-0.360000014"></text>
                <g id="Ionic/Mic" transform="translate(323.000000, 0.000000)">
                    <rect id="Bound" x="0" y="0" width="50" height="50"></rect>
                    <path d="M30.6863542,24.6551724 C30.8944467,24.6551724 31.0633333,24.8242103 31.0633333,25.0333333 L31.0633333,27.3022989 C31.0633333,30.5106161 28.5586837,33.1369437 25.4086458,33.3335874 L25.4086458,35.2436782 L27.2935417,35.2436782 C27.5016342,35.2436782 27.6705208,35.4127161 27.6705208,35.6218391 C27.6705208,35.8309621 27.5016342,36 27.2935417,36 L22.7697917,36 C22.5616992,36 22.3928125,35.8309621 22.3928125,35.6218391 C22.3928125,35.4127161 22.5616992,35.2436782 22.7697917,35.2436782 L24.6546875,35.2436782 L24.6546875,33.3335874 C21.5046496,33.1369437 19,30.5109943 19,27.3022989 L19,25.0333333 C19,24.8242103 19.1688867,24.6551724 19.3769792,24.6551724 C19.5850717,24.6551724 19.7539583,24.8242103 19.7539583,25.0333333 L19.7539583,27.3022989 C19.7539583,30.2217011 22.1213875,32.5965517 25.0316667,32.5965517 C27.9419458,32.5965517 30.309375,30.2217011 30.309375,27.3022989 L30.309375,25.0333333 C30.309375,24.8242103 30.4782617,24.6551724 30.6863542,24.6551724 Z M25.0316667,30.862069 C22.9468229,30.862069 21.2504167,29.1603448 21.2504167,27.0689655 L21.2504167,18.7931034 C21.2504167,16.7017241 22.9468229,15 25.0316667,15 C27.1165104,15 28.8129167,16.7017241 28.8129167,18.7931034 L28.8129167,27.0689655 C28.8129167,29.1603448 27.1165104,30.862069 25.0316667,30.862069 Z M21.9379167,18.7931034 L21.9379167,27.0689655 C21.9379167,28.7803448 23.3259792,30.1724138 25.0316667,30.1724138 C26.7373542,30.1724138 28.1254167,28.7803448 28.1254167,27.0689655 L28.1254167,18.7931034 C28.1254167,17.0817241 26.7373542,15.6896552 25.0316667,15.6896552 C23.3259792,15.6896552 21.9379167,17.0817241 21.9379167,18.7931034 Z" id="Combined-Shape" stroke="#15A9C7" stroke-width="0.1" fill="#15A9C7" fill-rule="nonzero"></path>
                </g>
            </g>
        </g>
    </g>
</svg>