<?xml version="1.0" encoding="UTF-8"?>
<svg width="412px" height="412px" viewBox="0 0 412 412" version="1.1" xmlns="http://www.w3.org/2000/svg" xmlns:xlink="http://www.w3.org/1999/xlink">
    <!-- Generator: Sketch 44.1 (41455) - http://www.bohemiancoding.com/sketch -->
    <title>Artboard</title>
    <desc>Created with Sketch.</desc>
    <defs></defs>
    <g id="Page-1" stroke="none" stroke-width="1" fill="none" fill-rule="evenodd">
        <g id="Artboard">
            <path d="M470,425.775111 C470,441.005352 456.569551,453.35635 439.998497,453.35635 L-489.818621,453.35635 C-506.387551,453.35635 -519.818,441.005352 -519.818,425.775111 L-519.818,-108.852574 C-519.818,-124.082815 -506.387551,-136.437 -489.818621,-136.437 L439.998497,-136.437 C456.569551,-136.437 470,-124.082815 470,-108.852574 L470,425.775111" id="Fill-13" fill="#292B2E"></path>
            <path d="M21.253,314.686 C21.253,316.582 19.716,318.124 17.814,318.124 L-38.341,318.124 C-40.243,318.124 -41.78,316.582 -41.78,314.686 C-41.78,312.793 -40.243,311.245 -38.341,311.245 L17.814,311.245 C19.716,311.245 21.253,312.793 21.253,314.686" id="Fill-95" fill="#181414"></path>
            <path d="M1.434,214.537 C-5.215,214.537 -10.623,219.949 -10.623,226.599 C-10.623,233.25 -5.215,238.662 1.434,238.662 C8.085,238.662 13.498,233.25 13.498,226.599 C13.498,219.949 8.085,214.537 1.434,214.537 M1.434,240.692 C-6.332,240.692 -12.656,234.368 -12.656,226.599 C-12.656,218.829 -6.332,212.504 1.434,212.504 C9.209,212.504 15.529,218.829 15.529,226.599 C15.529,234.368 9.209,240.692 1.434,240.692" id="Fill-122" fill="#888C8C"></path>
            <path d="M13.537,226.604 C13.537,233.287 8.119,238.707 1.434,238.707 C-5.249,238.707 -10.666,233.287 -10.666,226.604 C-10.666,219.92 -5.249,214.501 1.434,214.501 C8.119,214.501 13.537,219.92 13.537,226.604" id="Fill-123" fill="#676866"></path>
            <path d="M9.71,242.196 C7.545,242.196 5.148,241.537 2.856,240.621 C9.965,239.906 15.529,233.888 15.529,226.599 C15.529,225.865 15.473,225.144 15.364,224.44 C18.859,229.037 20.878,235.129 14.322,240.692 C13.058,241.765 11.46,242.196 9.71,242.196" id="Fill-124" fill="#151617"></path>
            <path d="M2.856,240.621 C1.387,240.034 -0.039,239.34 -1.33,238.647 C-1.652,238.474 -1.966,238.301 -2.271,238.129 C-1.103,238.504 0.141,238.707 1.434,238.707 C8.119,238.707 13.537,233.287 13.537,226.604 C13.537,224.504 13.002,222.529 12.062,220.808 C13.169,221.853 14.331,223.082 15.364,224.44 C15.473,225.144 15.529,225.865 15.529,226.599 C15.529,233.888 9.965,239.906 2.856,240.621" id="Fill-125" fill="#494B4B"></path>
            <path d="M1.434,238.707 C0.141,238.707 -1.103,238.504 -2.271,238.129 C-5.041,236.569 -7.004,235.145 -7.105,235.1 C-6.781,235.095 13.581,234.71 7.493,217.121 C7.493,217.121 9.648,218.531 12.062,220.808 C13.002,222.529 13.537,224.504 13.537,226.604 C13.537,233.287 8.119,238.707 1.434,238.707 M-7.108,235.1 C-7.109,235.099 -7.109,235.098 -7.108,235.098 C-7.107,235.098 -7.106,235.099 -7.105,235.1 C-7.107,235.1 -7.108,235.1 -7.108,235.1" id="Fill-126" fill="#363837"></path>
            <path d="M12.01,226.6 C12.01,232.439 7.273,237.174 1.434,237.174 C-4.405,237.174 -9.137,232.439 -9.137,226.6 C-9.137,220.761 -4.405,216.024 1.434,216.024 C7.273,216.024 12.01,220.761 12.01,226.6" id="Fill-127" fill="#AFB1AF"></path>
            <path d="M1.434,216.416 C-4.177,216.416 -8.748,220.983 -8.748,226.6 C-8.748,232.212 -4.177,236.781 1.434,236.781 C7.049,236.781 11.619,232.212 11.619,226.6 C11.619,220.983 7.049,216.416 1.434,216.416 Z M1.434,237.567 C-4.612,237.567 -9.529,232.646 -9.529,226.6 C-9.529,220.553 -4.612,215.635 1.434,215.635 C7.481,215.635 12.405,220.553 12.405,226.6 C12.405,232.646 7.481,237.567 1.434,237.567 L1.434,237.567 Z" id="Fill-128" fill="#858986"></path>
            <path d="M-2.602,227.492 C-2.602,222.748 0.892,218.829 5.445,218.134 C4.161,217.489 2.72,217.121 1.192,217.121 C-4.045,217.121 -8.289,221.363 -8.289,226.599 C-8.289,231.832 -4.045,236.076 1.192,236.076 C1.681,236.076 2.155,236.028 2.627,235.958 C-0.471,234.398 -2.602,231.199 -2.602,227.492" id="Fill-129" fill="#C8C9C5"></path>
            <path d="M53.327,214.537 C46.676,214.537 41.265,219.949 41.265,226.599 C41.265,233.25 46.676,238.662 53.327,238.662 C59.979,238.662 65.385,233.25 65.385,226.599 C65.385,219.949 59.979,214.537 53.327,214.537 M53.327,240.692 C45.554,240.692 39.233,234.368 39.233,226.599 C39.233,218.829 45.554,212.504 53.327,212.504 C61.094,212.504 67.417,218.829 67.417,226.599 C67.417,234.368 61.094,240.692 53.327,240.692" id="Fill-130" fill="#888C8C"></path>
            <path d="M65.428,226.604 C65.428,233.287 60.009,238.707 53.327,238.707 C46.642,238.707 41.224,233.287 41.224,226.604 C41.224,219.92 46.642,214.501 53.327,214.501 C60.009,214.501 65.428,219.92 65.428,226.604" id="Fill-131" fill="#676866"></path>
            <path d="M61.598,242.196 C59.434,242.196 57.036,241.538 54.745,240.622 C61.849,239.908 67.417,233.89 67.417,226.599 C67.417,225.864 67.36,225.142 67.251,224.437 C70.747,229.035 72.768,235.128 66.21,240.692 C64.946,241.765 63.348,242.196 61.598,242.196" id="Fill-132" fill="#151617"></path>
            <path d="M54.745,240.622 C53.275,240.034 51.85,239.341 50.558,238.647 C50.233,238.473 49.917,238.298 49.61,238.126 C50.782,238.503 52.03,238.707 53.327,238.707 C60.009,238.707 65.428,233.287 65.428,226.604 C65.428,224.505 64.893,222.531 63.953,220.81 C65.06,221.854 66.22,223.08 67.251,224.437 C67.36,225.142 67.417,225.864 67.417,226.599 C67.417,233.89 61.849,239.908 54.745,240.622" id="Fill-133" fill="#494B4B"></path>
            <path d="M53.327,238.707 C52.03,238.707 50.782,238.503 49.61,238.126 C46.843,236.567 44.883,235.145 44.782,235.1 C45.106,235.095 65.472,234.71 59.383,217.121 C59.383,217.121 61.539,218.531 63.953,220.81 C64.893,222.531 65.428,224.505 65.428,226.604 C65.428,233.287 60.009,238.707 53.327,238.707 M44.778,235.1 C44.778,235.099 44.778,235.098 44.779,235.098 C44.779,235.098 44.781,235.099 44.782,235.1 C44.78,235.1 44.778,235.1 44.778,235.1" id="Fill-134" fill="#363837"></path>
            <path d="M63.898,226.6 C63.898,232.439 59.164,237.174 53.327,237.174 C47.484,237.174 42.75,232.439 42.75,226.6 C42.75,220.761 47.484,216.024 53.327,216.024 C59.164,216.024 63.898,220.761 63.898,226.6" id="Fill-135" fill="#AFB1AF"></path>
            <path d="M53.327,216.416 C47.712,216.416 43.143,220.983 43.143,226.6 C43.143,232.212 47.712,236.781 53.327,236.781 C58.939,236.781 63.509,232.212 63.509,226.6 C63.509,220.983 58.939,216.416 53.327,216.416 Z M53.327,237.567 C47.277,237.567 42.357,232.646 42.357,226.6 C42.357,220.553 47.277,215.635 53.327,215.635 C59.373,215.635 64.289,220.553 64.289,226.6 C64.289,232.646 59.373,237.567 53.327,237.567 L53.327,237.567 Z" id="Fill-136" fill="#858986"></path>
            <path d="M49.285,227.492 C49.285,222.748 52.78,218.829 57.335,218.134 C56.052,217.489 54.609,217.121 53.076,217.121 C47.843,217.121 43.6,221.363 43.6,226.599 C43.6,231.832 47.843,236.076 53.076,236.076 C53.57,236.076 54.042,236.028 54.513,235.958 C51.418,234.398 49.285,231.199 49.285,227.492" id="Fill-137" fill="#C8C9C5"></path>
            <polygon id="Fill-242" fill="#8F9B8B" points="50.633 35.858 86.7 35.858 86.7 34.915 50.633 34.915"></polygon>
            <polygon id="Fill-243" fill="#8F9B8B" points="50.633 48.449 86.7 48.449 86.7 47.506 50.633 47.506"></polygon>
            <polygon id="Fill-244" fill="#8F9B8B" points="50.633 61.039 86.7 61.039 86.7 60.096 50.633 60.096"></polygon>
            <polygon id="Fill-245" fill="#8F9B8B" points="50.633 73.629 86.7 73.629 86.7 72.687 50.633 72.687"></polygon>
            <polygon id="Fill-246" fill="#8F9B8B" points="50.633 86.22 86.7 86.22 86.7 85.277 50.633 85.277"></polygon>
            <polygon id="Fill-247" fill="#8F9B8B" points="50.633 98.81 86.7 98.81 86.7 97.867 50.633 97.867"></polygon>
            <polygon id="Fill-248" fill="#8F9B8B" points="50.633 111.401 86.7 111.401 86.7 110.458 50.633 110.458"></polygon>
            <polygon id="Fill-249" fill="#8F9B8B" points="50.633 123.992 86.7 123.992 86.7 123.048 50.633 123.048"></polygon>
            <polygon id="Fill-250" fill="#8F9B8B" points="50.633 136.582 86.7 136.582 86.7 135.639 50.633 135.639"></polygon>
            <polygon id="Fill-251" fill="#8F9B8B" points="50.633 149.173 86.7 149.173 86.7 148.229 50.633 148.229"></polygon>
            <path d="M71.788,164.045 C71.788,166.143 70.39,167.847 68.667,167.847 C66.941,167.847 65.545,166.143 65.545,164.045 L65.545,26.481 C65.545,24.382 66.941,22.68 68.667,22.68 C70.39,22.68 71.788,24.382 71.788,26.481 L71.788,164.045" id="Fill-252" fill="#181414"></path>
            <polygon id="Fill-253" fill="#B7C2AE" points="43.69 65.218 91.146 65.218 91.146 46.218 43.69 46.218"></polygon>
            <path d="M389.363,221.376 C389.363,297.252 327.854,358.763 251.975,358.763 C176.097,358.763 114.589,297.252 114.589,221.376 C114.589,145.499 176.097,83.988 251.975,83.988 C327.854,83.988 389.363,145.499 389.363,221.376" id="Fill-254" fill="#B7C2AE"></path>
            <polyline id="Fill-255" fill="#8F9B8B" points="389.293 225.818 370.424 235.806 371.158 227.46 389.363 217.676 389.293 225.818"></polyline>
            <polyline id="Fill-256" fill="#8F9B8B" points="388.066 202.522 371.157 215.559 370.469 207.207 386.757 194.483 388.066 202.522"></polyline>
            <polyline id="Fill-257" fill="#8F9B8B" points="382.913 179.768 368.455 195.478 366.365 187.363 380.265 172.066 382.913 179.768"></polyline>
            <polyline id="Fill-258" fill="#8F9B8B" points="373.985 158.215 362.393 176.144 358.961 168.501 370.072 151.073 373.985 158.215"></polyline>
            <polyline id="Fill-259" fill="#8F9B8B" points="361.541 138.483 353.147 158.114 348.472 151.162 356.475 132.106 361.541 138.483"></polyline>
            <polyline id="Fill-260" fill="#8F9B8B" points="345.936 121.141 340.984 141.91 335.201 135.849 339.865 115.713 345.936 121.141"></polyline>
            <polyline id="Fill-261" fill="#8F9B8B" points="327.623 106.689 326.257 127.995 319.531 123.001 320.721 102.367 327.623 106.689"></polyline>
            <polyline id="Fill-262" fill="#8F9B8B" points="307.129 95.544 309.388 116.774 301.911 112.989 299.596 92.452 307.129 95.544"></polyline>
            <polyline id="Fill-263" fill="#8F9B8B" points="285.044 88.027 290.861 108.569 282.855 106.103 277.095 86.254 285.044 88.027"></polyline>
            <polyline id="Fill-264" fill="#8F9B8B" points="262.006 84.355 271.215 103.616 262.906 102.541 253.872 83.952 262.006 84.355"></polyline>
            <polyline id="Fill-265" fill="#8F9B8B" points="238.679 84.634 251.013 102.06 242.645 102.405 230.593 85.613 238.679 84.634"></polyline>
            <polyline id="Fill-266" fill="#8F9B8B" points="215.734 88.855 230.838 103.943 222.649 105.699 207.931 91.188 215.734 88.855"></polyline>
            <polyline id="Fill-267" fill="#8F9B8B" points="193.834 96.898 211.275 109.212 203.5 112.328 186.54 100.517 193.834 96.898"></polyline>
            <polyline id="Fill-268" fill="#8F9B8B" points="173.613 108.529 192.884 117.716 185.75 122.103 167.036 113.331 173.613 108.529"></polyline>
            <polyline id="Fill-269" fill="#8F9B8B" points="155.649 123.415 176.197 129.208 169.908 134.739 149.98 129.26 155.649 123.415"></polyline>
            <polyline id="Fill-270" fill="#8F9B8B" points="140.464 141.125 161.697 143.357 156.433 149.873 135.866 147.845 140.464 141.125"></polyline>
            <polyline id="Fill-271" fill="#8F9B8B" points="128.494 161.149 149.798 159.758 145.713 167.069 125.098 168.55 128.494 161.149"></polyline>
            <polyline id="Fill-272" fill="#8F9B8B" points="120.084 182.909 140.846 177.934 138.057 185.831 117.99 190.779 120.084 182.909"></polyline>
            <polyline id="Fill-273" fill="#8F9B8B" points="115.479 205.779 135.097 197.362 133.686 205.617 114.743 213.889 115.479 205.779"></polyline>
            <polyline id="Fill-274" fill="#8F9B8B" points="114.806 229.099 132.718 217.483 132.724 225.858 115.455 237.216 114.806 229.099"></polyline>
            <polyline id="Fill-275" fill="#8F9B8B" points="118.089 252.195 133.778 237.717 135.201 245.971 120.103 260.085 118.089 252.195"></polyline>
            <polyline id="Fill-276" fill="#8F9B8B" points="125.234 274.402 138.248 257.479 141.047 265.373 128.554 281.839 125.234 274.402"></polyline>
            <polyline id="Fill-277" fill="#8F9B8B" points="136.033 295.082 145.996 276.2 150.091 283.507 140.563 301.85 136.033 295.082"></polyline>
            <polyline id="Fill-278" fill="#8F9B8B" points="150.176 313.636 156.799 293.341 162.071 299.849 155.785 319.54 150.176 313.636"></polyline>
            <polyline id="Fill-279" fill="#8F9B8B" points="167.252 329.529 170.348 308.406 176.642 313.93 173.778 334.401 167.252 329.529"></polyline>
            <polyline id="Fill-280" fill="#8F9B8B" points="186.771 342.304 186.248 320.964 193.39 325.342 194.029 346.002 186.771 342.304"></polyline>
            <polyline id="Fill-281" fill="#8F9B8B" points="208.172 351.593 204.046 330.649 211.822 333.756 215.95 354.01 208.172 351.593"></polyline>
            <polyline id="Fill-282" fill="#8F9B8B" points="230.834 357.126 223.224 337.183 231.414 338.929 238.911 358.193 230.834 357.126"></polyline>
            <polyline id="Fill-283" fill="#8F9B8B" points="254.108 358.746 243.231 340.379 251.601 340.713 262.247 358.433 254.108 358.746"></polyline>
            <polyline id="Fill-284" fill="#8F9B8B" points="277.319 356.404 263.491 340.142 271.796 339.057 285.287 354.718 277.319 356.404"></polyline>
            <polyline id="Fill-285" fill="#8F9B8B" points="299.799 350.171 283.42 336.48 291.42 334.006 307.366 347.161 299.799 350.171"></polyline>
            <polyline id="Fill-286" fill="#8F9B8B" points="320.9 340.223 302.441 329.502 309.908 325.71 327.849 335.976 320.9 340.223"></polyline>
            <polyline id="Fill-287" fill="#8F9B8B" points="340.016 326.848 320.008 319.404 326.724 314.405 346.145 321.487 340.016 326.848"></polyline>
            <polyline id="Fill-288" fill="#8F9B8B" points="356.59 310.432 335.611 306.482 341.386 300.417 361.724 304.112 356.59 310.432"></polyline>
            <polyline id="Fill-289" fill="#8F9B8B" points="370.15 291.448 348.805 291.105 353.471 284.151 374.142 284.352 370.15 291.448"></polyline>
            <polyline id="Fill-290" fill="#8F9B8B" points="380.301 270.445 359.206 273.717 362.628 266.074 383.033 262.775 380.301 270.445"></polyline>
            <polyline id="Fill-291" fill="#8F9B8B" points="386.755 248.026 366.516 254.82 368.596 246.71 388.149 240.005 386.755 248.026"></polyline>
            <path d="M371.288,221.376 C371.288,287.267 317.868,340.686 251.975,340.686 C186.08,340.686 132.667,287.267 132.667,221.376 C132.667,155.483 186.08,102.064 251.975,102.064 C317.868,102.064 371.288,155.483 371.288,221.376" id="Fill-292" fill="#D24D3C"></path>
            <path d="M364.055,221.376 C364.055,283.275 313.877,333.453 251.975,333.453 C190.074,333.453 139.898,283.275 139.898,221.376 C139.898,159.478 190.074,109.297 251.975,109.297 C313.877,109.297 364.055,159.478 364.055,221.376" id="Fill-293" fill="#282825"></path>
            <path d="M295.36,221.376 C295.36,245.338 275.938,264.762 251.975,264.762 C228.015,264.762 208.59,245.338 208.59,221.376 C208.59,197.413 228.015,177.989 251.975,177.989 C275.938,177.989 295.36,197.413 295.36,221.376" id="Fill-294" fill="#B7C2AE"></path>
            <path d="M288.145,221.376 C288.145,241.353 271.952,257.546 251.975,257.546 C232.001,257.546 215.807,241.353 215.807,221.376 C215.807,201.399 232.001,185.205 251.975,185.205 C271.952,185.205 288.145,201.399 288.145,221.376" id="Fill-295" fill="#E9D288"></path>
            <path d="M251.975,275.013 C251.975,275.013 251.317,274.997 250.084,274.969 C249.467,274.954 248.705,274.937 247.81,274.916 C247.363,274.899 246.883,274.906 246.37,274.87 C245.858,274.802 245.317,274.731 244.745,274.655 C243.6,274.497 242.323,274.354 240.941,274.135 C239.583,273.815 238.115,273.469 236.543,273.099 C235.745,272.951 234.979,272.604 234.163,272.348 C233.348,272.068 232.512,271.782 231.655,271.486 C230.777,271.233 229.966,270.769 229.092,270.385 C228.228,269.981 227.344,269.568 226.441,269.147 C225.553,268.693 224.697,268.137 223.797,267.622 C223.351,267.357 222.9,267.091 222.444,266.822 C221.984,266.558 221.526,266.286 221.104,265.954 C219.386,264.658 217.491,263.46 215.838,261.865 C212.305,258.939 209.16,255.193 206.349,251.059 C205.693,249.991 205.033,248.914 204.369,247.829 C203.715,246.736 203.221,245.547 202.636,244.398 C202.354,243.818 202.072,243.235 201.787,242.651 C201.559,242.045 201.331,241.435 201.103,240.824 C200.668,239.595 200.149,238.385 199.78,237.121 C198.247,232.069 197.533,226.73 197.387,221.375 L197.6,217.386 C197.656,216.726 197.63,216.08 197.752,215.411 L198.061,213.414 L198.373,211.424 L198.528,210.431 L198.775,209.465 C199.111,208.182 199.446,206.902 199.778,205.629 C200.147,204.365 200.666,203.154 201.101,201.925 C201.329,201.314 201.559,200.704 201.785,200.097 C202.07,199.514 202.353,198.932 202.634,198.351 C203.221,197.202 203.713,196.012 204.367,194.921 C205.032,193.836 205.691,192.758 206.347,191.689 C209.16,187.555 212.299,183.807 215.837,180.882 C217.489,179.288 219.384,178.09 221.102,176.795 C221.524,176.461 221.984,176.19 222.444,175.926 C222.898,175.657 223.349,175.391 223.797,175.126 C224.697,174.61 225.553,174.054 226.439,173.602 C227.342,173.18 228.228,172.766 229.092,172.363 C229.964,171.981 230.777,171.514 231.655,171.26 C232.512,170.966 233.348,170.678 234.161,170.398 C234.979,170.145 235.745,169.797 236.543,169.65 C238.113,169.279 239.583,168.933 240.941,168.612 C242.321,168.397 243.594,168.254 244.739,168.094 C245.312,168.018 245.854,167.947 246.362,167.879 C246.875,167.843 247.359,167.85 247.808,167.834 C248.703,167.813 249.467,167.795 250.084,167.78 C251.317,167.752 251.975,167.737 251.975,167.737 C251.975,167.737 251.319,167.788 250.088,167.885 C249.473,167.933 248.716,167.991 247.825,168.062 C247.381,168.1 246.901,168.123 246.395,168.184 C245.891,168.271 245.354,168.364 244.787,168.462 C243.658,168.666 242.402,168.857 241.05,169.128 C239.72,169.5 238.282,169.9 236.745,170.33 C235.966,170.506 235.223,170.88 234.429,171.165 C233.641,171.471 232.831,171.787 231.999,172.11 C231.153,172.398 230.361,172.871 229.516,173.27 C228.678,173.686 227.821,174.113 226.947,174.547 C226.088,175.012 225.264,175.58 224.396,176.106 C223.964,176.376 223.529,176.647 223.092,176.921 C222.649,177.189 222.207,177.466 221.801,177.803 C220.153,179.112 218.335,180.322 216.764,181.92 C215.958,182.693 215.092,183.424 214.309,184.259 C213.549,185.114 212.781,185.981 212.004,186.857 C211.193,187.705 210.536,188.692 209.815,189.644 C209.459,190.123 209.102,190.604 208.744,191.089 L208.203,191.815 L207.733,192.593 C207.106,193.634 206.476,194.684 205.838,195.74 C205.214,196.803 204.749,197.961 204.19,199.077 C203.92,199.641 203.65,200.207 203.381,200.774 L202.732,202.549 C202.324,203.743 201.826,204.916 201.482,206.142 C201.171,207.376 200.857,208.616 200.544,209.859 L200.313,210.792 L200.174,211.738 L199.893,213.631 L199.607,215.527 C199.494,216.152 199.524,216.83 199.475,217.481 L199.29,221.375 C199.395,226.545 200.039,231.711 201.48,236.609 C201.825,237.834 202.322,239.008 202.731,240.201 L203.379,241.978 C203.648,242.543 203.918,243.108 204.188,243.673 C204.747,244.789 205.212,245.948 205.838,247.01 C206.474,248.068 207.104,249.117 207.731,250.158 C210.454,254.165 213.382,257.9 216.762,260.834 C218.333,262.431 220.153,263.639 221.799,264.95 C222.205,265.287 222.647,265.563 223.09,265.831 C223.527,266.105 223.963,266.378 224.394,266.646 C225.262,267.172 226.086,267.74 226.945,268.204 C227.821,268.639 228.678,269.066 229.516,269.482 C230.361,269.879 231.151,270.356 231.999,270.641 C232.829,270.965 233.641,271.28 234.427,271.587 C235.223,271.872 235.966,272.246 236.745,272.421 C238.282,272.851 239.72,273.251 241.05,273.622 C242.398,273.893 243.653,274.084 244.781,274.289 C245.348,274.387 245.884,274.48 246.387,274.568 C246.895,274.628 247.377,274.649 247.821,274.689 C248.714,274.759 249.473,274.818 250.088,274.865 C251.319,274.961 251.975,275.013 251.975,275.013" id="Fill-296" fill="#42413D"></path>
            <path d="M251.975,286.201 C251.975,286.201 251.179,286.199 249.688,286.195 C248.94,286.21 248.022,286.167 246.939,286.103 C246.398,286.07 245.814,286.049 245.195,286 C244.576,285.933 243.921,285.86 243.228,285.783 C240.455,285.458 237.093,284.909 233.34,283.836 C229.588,282.786 225.429,281.256 221.162,279.022 C216.887,276.812 212.532,273.869 208.356,270.25 C206.291,268.416 204.239,266.441 202.336,264.243 C200.391,262.084 198.612,259.692 196.951,257.171 C193.623,252.128 190.918,246.429 189.058,240.356 C188.111,237.322 187.45,234.182 186.939,231.009 C186.46,227.817 186.248,224.627 186.198,221.35 C186.242,218.204 186.458,214.905 186.938,211.74 C187.448,208.567 188.109,205.427 189.056,202.394 C190.916,196.32 193.621,190.62 196.951,185.578 C198.612,183.058 200.387,180.664 202.334,178.505 C204.235,176.308 206.289,174.332 208.354,172.498 C212.531,168.878 216.885,165.936 221.162,163.727 C225.429,161.494 229.586,159.961 233.34,158.911 C237.093,157.84 240.455,157.291 243.226,156.966 C243.921,156.889 244.576,156.817 245.195,156.748 C245.813,156.7 246.396,156.681 246.938,156.648 C248.019,156.583 248.938,156.539 249.688,156.554 C251.179,156.551 251.975,156.549 251.975,156.549 C251.975,156.549 251.181,156.586 249.69,156.658 C248.944,156.677 248.03,156.761 246.955,156.875 C246.417,156.931 245.842,156.989 245.226,157.052 C244.614,157.141 243.963,157.234 243.276,157.333 C240.533,157.75 237.216,158.406 233.544,159.592 C229.869,160.761 225.828,162.41 221.667,164.672 C217.509,166.932 213.297,169.909 209.28,173.535 C207.297,175.373 205.33,177.343 203.518,179.526 C202.579,180.592 201.728,181.747 200.829,182.881 C200.395,183.459 199.987,184.063 199.563,184.655 C199.133,185.246 198.721,185.853 198.337,186.481 C195.124,191.417 192.528,196.987 190.758,202.907 C189.859,205.864 189.238,208.923 188.761,212.008 C188.314,215.118 188.138,218.183 188.1,221.399 C188.132,224.486 188.313,227.658 188.759,230.742 C189.236,233.828 189.857,236.887 190.756,239.844 C192.526,245.763 195.122,251.332 198.335,256.271 C198.721,256.898 199.133,257.504 199.563,258.094 C199.987,258.689 200.393,259.293 200.829,259.869 C201.726,261.004 202.573,262.162 203.514,263.225 C205.326,265.409 207.293,267.38 209.278,269.216 C213.295,272.843 217.509,275.82 221.667,278.08 C225.828,280.34 229.867,281.993 233.542,283.16 C237.216,284.345 240.533,285.001 243.276,285.418 C243.963,285.517 244.614,285.61 245.226,285.698 C245.842,285.762 246.417,285.821 246.953,285.876 C248.026,285.989 248.942,286.074 249.688,286.093 C251.181,286.163 251.975,286.201 251.975,286.201" id="Fill-297" fill="#42413D"></path>
            <path d="M251.975,300.377 C251.975,300.377 251.006,300.37 249.188,300.358 C248.277,300.372 247.158,300.315 245.84,300.23 C245.181,300.189 244.47,300.161 243.716,300.099 C242.963,300.015 242.163,299.923 241.32,299.828 C237.945,299.42 233.852,298.74 229.288,297.421 C224.723,296.128 219.669,294.25 214.48,291.524 C209.282,288.826 203.992,285.236 198.92,280.823 C196.41,278.589 193.919,276.183 191.611,273.505 C189.251,270.875 187.087,267.968 185.071,264.899 C181.026,258.768 177.742,251.834 175.484,244.451 C174.337,240.762 173.537,236.942 172.916,233.088 C172.335,229.22 172.082,225.298 172.021,221.375 C172.076,217.483 172.335,213.525 172.914,209.662 C173.535,205.805 174.335,201.988 175.482,198.299 C177.74,190.916 181.024,183.982 185.069,177.849 C187.089,174.782 189.247,171.873 191.609,169.241 C193.916,166.564 196.408,164.159 198.918,161.923 C203.99,157.512 209.28,153.922 214.48,151.223 C219.669,148.498 224.723,146.618 229.288,145.326 C233.852,144.007 237.945,143.328 241.318,142.92 C242.163,142.825 242.963,142.736 243.716,142.65 C244.47,142.588 245.181,142.562 245.838,142.519 C247.156,142.434 248.275,142.377 249.188,142.392 C251.006,142.379 251.975,142.373 251.975,142.373 C251.975,142.373 251.008,142.415 249.191,142.495 C248.281,142.514 247.166,142.612 245.856,142.746 C245.201,142.811 244.498,142.879 243.748,142.954 C242.999,143.06 242.207,143.17 241.369,143.289 C238.023,143.787 233.977,144.575 229.489,146.008 C225.004,147.418 220.067,149.416 214.985,152.169 C209.903,154.917 204.754,158.542 199.843,162.961 C197.415,165.198 195.01,167.602 192.793,170.265 C191.642,171.564 190.601,172.971 189.504,174.357 C188.972,175.062 188.475,175.799 187.955,176.523 C187.432,177.245 186.926,177.985 186.457,178.753 C182.527,184.781 179.353,191.582 177.187,198.813 C176.083,202.424 175.325,206.16 174.738,209.931 C174.19,213.716 173.971,217.512 173.927,221.375 C173.965,225.207 174.188,229.039 174.736,232.819 C175.323,236.59 176.083,240.326 177.186,243.938 C179.351,251.169 182.525,257.971 186.455,263.999 C186.926,264.766 187.43,265.506 187.953,266.228 C188.475,266.951 188.97,267.689 189.502,268.394 C190.601,269.778 191.638,271.191 192.789,272.487 C195.008,275.151 197.413,277.553 199.842,279.791 C204.753,284.209 209.903,287.835 214.985,290.582 C220.067,293.334 225.004,295.334 229.489,296.744 C233.975,298.176 238.023,298.964 241.367,299.462 C242.207,299.58 242.999,299.692 243.746,299.797 C244.496,299.871 245.199,299.94 245.854,300.005 C247.162,300.138 248.279,300.236 249.189,300.256 C251.006,300.334 251.975,300.377 251.975,300.377" id="Fill-298" fill="#42413D"></path>
            <path d="M251.975,318.399 C251.975,318.399 250.785,318.387 248.553,318.362 C247.994,318.351 247.369,318.365 246.685,318.329 C245.999,318.287 245.251,318.242 244.441,318.192 C243.632,318.138 242.762,318.102 241.835,318.023 C240.911,317.915 239.931,317.802 238.893,317.682 C238.375,317.621 237.843,317.561 237.296,317.497 C236.754,317.409 236.197,317.317 235.628,317.225 C234.491,317.027 233.297,316.852 232.059,316.612 C230.828,316.343 229.55,316.063 228.22,315.771 C226.893,315.471 225.545,315.061 224.135,314.69 C218.538,313.09 212.345,310.769 205.983,307.42 C199.615,304.099 193.133,299.687 186.922,294.267 C183.85,291.521 180.801,288.567 177.976,285.28 C176.511,283.684 175.185,281.938 173.811,280.206 C173.139,279.328 172.514,278.408 171.857,277.505 L170.883,276.14 L169.967,274.726 C165.013,267.206 160.992,258.707 158.229,249.656 C156.826,245.135 155.848,240.454 155.089,235.728 C154.381,230.988 154.071,226.184 154.001,221.375 C154.067,216.599 154.379,211.757 155.088,207.022 C155.846,202.295 156.824,197.614 158.227,193.093 C160.99,184.043 165.013,175.544 169.966,168.023 L170.881,166.608 L171.857,165.244 C172.512,164.34 173.139,163.421 173.809,162.544 C175.182,160.811 176.505,159.063 177.974,157.466 C180.797,154.18 183.848,151.226 186.92,148.48 C193.131,143.061 199.613,138.649 205.983,135.328 C212.345,131.981 218.536,129.657 224.135,128.058 C225.545,127.689 226.893,127.276 228.22,126.977 C229.55,126.686 230.828,126.406 232.059,126.137 C233.297,125.898 234.491,125.721 235.628,125.525 C236.197,125.432 236.754,125.341 237.296,125.251 C237.843,125.189 238.375,125.128 238.893,125.067 C239.931,124.947 240.911,124.833 241.835,124.727 C242.76,124.648 243.632,124.611 244.44,124.557 C245.249,124.508 245.997,124.462 246.684,124.421 C247.367,124.384 247.992,124.398 248.551,124.387 C250.785,124.364 251.975,124.352 251.975,124.352 C251.975,124.352 250.785,124.4 248.555,124.489 C247.998,124.52 247.375,124.522 246.69,124.581 C246.009,124.644 245.262,124.711 244.459,124.784 C243.653,124.86 242.788,124.942 241.867,125.03 C240.949,125.156 239.973,125.293 238.943,125.435 C238.428,125.506 237.898,125.58 237.356,125.654 C236.819,125.755 236.268,125.858 235.704,125.964 C234.575,126.184 233.39,126.388 232.168,126.651 C230.95,126.947 229.685,127.254 228.37,127.573 C227.059,127.901 225.728,128.341 224.339,128.737 C218.819,130.457 212.743,132.898 206.491,136.274 C200.236,139.645 193.896,144.093 187.846,149.518 C184.855,152.266 181.891,155.217 179.155,158.489 C177.74,160.083 176.455,161.814 175.106,163.521 C174.449,164.388 173.84,165.295 173.197,166.186 L172.245,167.531 L171.353,168.927 C166.516,176.342 162.604,184.71 159.932,193.605 C158.573,198.052 157.635,202.649 156.911,207.289 C156.234,211.947 155.961,216.627 155.904,221.375 C155.955,226.091 156.234,230.808 156.909,235.461 C157.633,240.102 158.572,244.699 159.93,249.144 C162.602,258.041 166.514,266.408 171.351,273.825 L172.245,275.22 L173.197,276.564 C173.838,277.456 174.449,278.364 175.104,279.23 C176.455,280.935 177.734,282.671 179.153,284.264 C181.889,287.536 184.854,290.487 187.844,293.234 C193.894,298.66 200.234,303.107 206.489,306.478 C212.741,309.854 218.817,312.296 224.337,314.015 C225.728,314.412 227.059,314.851 228.37,315.179 C229.683,315.497 230.95,315.805 232.168,316.1 C233.39,316.364 234.575,316.567 235.704,316.787 C236.268,316.893 236.819,316.996 237.356,317.097 C237.898,317.171 238.428,317.245 238.943,317.316 C239.973,317.459 240.949,317.594 241.865,317.721 C242.786,317.824 243.653,317.89 244.457,317.967 C245.262,318.039 246.007,318.107 246.689,318.171 C247.373,318.228 247.998,318.231 248.555,318.261 C250.785,318.351 251.975,318.399 251.975,318.399" id="Fill-299" fill="#42413D"></path>
            <polygon id="Fill-370" fill="#BD8F61" points="142.36 58.728 188.358 58.728 188.358 10.314 142.36 10.314"></polygon>
            <polygon id="Fill-371" fill="#282825" points="145.219 55.718 185.497 55.718 185.497 13.325 145.219 13.325"></polygon>
            <polygon id="Fill-372" fill="#BD8F61" points="201.369 58.728 247.367 58.728 247.367 10.314 201.369 10.314"></polygon>
            <polygon id="Fill-373" fill="#282825" points="204.229 55.718 244.508 55.718 244.508 13.325 204.229 13.325"></polygon>
            <polygon id="Fill-374" fill="#BD8F61" points="260.378 58.728 306.376 58.728 306.376 10.314 260.378 10.314"></polygon>
            <polygon id="Fill-375" fill="#282825" points="263.237 55.718 303.517 55.718 303.517 13.325 263.237 13.325"></polygon>
            <polygon id="Fill-376" fill="#BD8F61" points="319.387 58.728 365.385 58.728 365.385 10.314 319.387 10.314"></polygon>
            <polygon id="Fill-377" fill="#282825" points="322.246 55.718 362.525 55.718 362.525 13.325 322.246 13.325"></polygon>
            <path d="M17.814,318.124 L4.116,318.124 L4.116,311.245 L17.814,311.245 C19.716,311.245 21.253,312.793 21.253,314.686 C21.253,316.582 19.716,318.124 17.814,318.124 M-24.641,318.124 L-38.341,318.124 C-40.243,318.124 -41.78,316.582 -41.78,314.686 C-41.78,312.793 -40.243,311.245 -38.341,311.245 L-24.641,311.245 L-24.641,318.124" id="Fill-388" fill="#141211"></path>
            <path d="M385.793,418.609 C400.34,417.573 411.793,406.402 411.818,392.772 C411.791,409.703 395.703,418.536 385.793,418.609" id="Fill-437" fill="#71352B"></path>
            <path d="M366.539,254.812 C366.554,254.761 366.57,254.704 366.585,254.652 L366.702,254.758 L366.539,254.812" id="Fill-449" fill="#6C6D61"></path>
            <path d="M251.975,318.399 C251.975,318.399 251.134,318.39 249.54,318.373 L249.55,318.301 C251.137,318.365 251.975,318.399 251.975,318.399" id="Fill-452" fill="#302E2A"></path>
        </g>
    </g>
</svg>