<?xml version="1.0" encoding="UTF-8"?>
<svg width="136px" height="137px" viewBox="0 0 136 137" version="1.1" xmlns="http://www.w3.org/2000/svg" xmlns:xlink="http://www.w3.org/1999/xlink">
    <!-- Generator: Sketch 44.1 (41455) - http://www.bohemiancoding.com/sketch -->
    <title>sample_QR</title>
    <desc>Created with Sketch.</desc>
    <defs></defs>
    <g id="iStaff-Apps" stroke="none" stroke-width="1" fill="none" fill-rule="evenodd">
        <g id="My-Profile" transform="translate(-120.000000, -553.000000)" fill="#000000">
            <path d="M152.317,624.26696 L158.782667,624.26696 L158.782667,630.74216 L165.242667,630.74216 L165.242667,637.22304 L132.925667,637.22304 L132.925667,630.74216 L139.391333,630.74216 L139.391333,617.78608 L152.339667,617.78608 L152.339667,624.26696 L152.317,624.26696 Z M236.342333,682.54944 L242.808,682.54944 L242.808,676.07424 L236.342333,676.07424 L236.342333,682.54944 Z M158.782667,624.26696 L165.242667,624.26696 L165.242667,617.78608 L158.782667,617.78608 L158.782667,624.26696 Z M249.251,682.54944 L255.711,682.54944 L255.711,676.07424 L249.251,676.07424 L249.251,682.54944 Z M171.708333,689.05304 L184.634,689.05304 L184.634,682.54944 L171.708333,682.54944 L171.708333,689.05304 Z M223.416667,689.05304 L229.882333,689.05304 L229.882333,682.54944 L223.416667,682.54944 L223.416667,689.05304 Z M204.025333,689.05304 L210.491,689.05304 L210.491,676.07424 L204.025333,676.07424 L204.025333,689.05304 Z M152.317,611.3052 L171.708333,611.3052 L171.708333,604.83 L152.317,604.83 L152.317,611.3052 Z M145.851333,611.3052 L145.851333,604.83 L132.925667,604.83 L132.925667,617.78608 L139.391333,617.78608 L139.391333,611.3052 L145.851333,611.3052 Z M120,598.34912 L165.242667,598.34912 L165.242667,553 L120,553 L120,598.34912 Z M126.465667,591.87392 L158.782667,591.87392 L158.782667,559.4752 L126.465667,559.4752 L126.465667,591.87392 Z M132.925667,676.07424 L152.317,676.07424 L152.317,656.63728 L132.925667,656.63728 L132.925667,676.07424 Z M197.565333,676.07424 L204.025333,676.07424 L204.025333,669.59336 L197.565333,669.59336 L197.565333,676.07424 Z M132.925667,585.39304 L152.317,585.39304 L152.317,565.95608 L132.925667,565.95608 L132.925667,585.39304 Z M210.491,598.34912 L255.711,598.34912 L255.711,553 L210.491,553 L210.491,598.34912 Z M216.951,591.87392 L249.251,591.87392 L249.251,559.4752 L216.951,559.4752 L216.951,591.87392 Z M120,689.03032 L165.242667,689.03032 L165.242667,643.6812 L120,643.6812 L120,689.03032 Z M126.465667,682.54944 L158.782667,682.54944 L158.782667,650.1564 L126.465667,650.1564 L126.465667,682.54944 Z M120,637.22304 L126.465667,637.22304 L126.465667,604.83 L120,604.83 L120,637.22304 Z M210.491,643.6812 L216.951,643.6812 L216.951,637.22304 L210.491,637.22304 L210.491,643.6812 Z M191.099667,663.1352 L191.099667,656.63728 L184.634,656.63728 L184.634,663.1352 L171.708333,663.1352 L171.708333,676.09696 L184.634,676.09696 L184.634,682.57216 L191.099667,682.57216 L191.099667,669.61608 L197.565333,669.61608 L197.565333,663.1352 L191.099667,663.1352 Z M171.708333,578.91216 L184.634,578.91216 L184.634,572.43696 L171.708333,572.43696 L171.708333,578.91216 Z M223.416667,630.74216 L236.342333,630.74216 L236.342333,637.22304 L242.808,637.22304 L242.808,617.78608 L236.342333,617.78608 L236.342333,604.83 L229.882333,604.83 L229.882333,624.26696 L210.491,624.26696 L210.491,630.74216 L216.951,630.74216 L216.951,637.22304 L223.416667,637.22304 L223.416667,630.74216 Z M229.882333,650.1564 L223.416667,650.1564 L223.416667,643.6812 L216.951,643.6812 L216.951,656.63728 L197.565333,656.63728 L197.565333,663.1352 L210.491,663.1352 L210.491,676.09696 L216.951,676.09696 L216.951,682.57216 L223.416667,682.57216 L223.416667,669.61608 L249.268,669.61608 L249.268,663.1352 L229.882333,663.1352 L229.882333,650.1564 Z M229.882333,650.1564 L236.342333,650.1564 L236.342333,637.22304 L229.882333,637.22304 L229.882333,650.1564 Z M178.174,650.1564 L178.174,643.6812 L184.634,643.6812 L184.634,637.22304 L191.099667,637.22304 L191.099667,630.74216 L197.565333,630.74216 L197.565333,617.76336 L216.951,617.76336 L216.951,604.80728 L210.491,604.80728 L210.491,611.28816 L204.025333,611.28816 L204.025333,585.37032 L197.565333,585.37032 L197.565333,572.41424 L204.025333,572.41424 L204.025333,553 L197.565333,553 L197.565333,565.95608 L191.077,565.95608 L191.077,553 L171.708333,553 L171.708333,565.95608 L178.174,565.95608 L178.174,559.4752 L184.611333,559.4752 L184.611333,572.43696 L191.077,572.43696 L191.077,591.87392 L197.565333,591.87392 L197.565333,598.34912 L191.077,598.34912 L191.077,611.3052 L184.611333,611.3052 L184.611333,598.34912 L178.174,598.34912 L178.174,591.87392 L171.708333,591.87392 L171.708333,604.83 L178.174,604.83 L178.174,611.3052 L171.708333,611.3052 L171.708333,630.74216 L178.174,630.74216 L178.174,617.78608 L184.611333,617.78608 L184.611333,630.74216 L178.174,630.74216 L178.174,637.22304 L171.708333,637.22304 L171.708333,656.63728 L184.611333,656.63728 L184.611333,650.1564 L178.174,650.1564 Z M236.342333,656.63728 L249.251,656.63728 L249.251,650.1564 L236.342333,650.1564 L236.342333,656.63728 Z M223.416667,585.39304 L242.785333,585.39304 L242.785333,565.95608 L223.416667,565.95608 L223.416667,585.39304 Z M191.099667,650.1564 L204.025333,650.1564 L204.025333,643.6812 L197.565333,643.6812 L197.565333,637.22304 L191.099667,637.22304 L191.099667,650.1564 Z M197.565333,637.22304 L204.025333,637.22304 L204.025333,630.74216 L197.565333,630.74216 L197.565333,637.22304 Z M242.785333,611.3052 L255.711,611.3052 L255.711,604.83 L242.785333,604.83 L242.785333,611.3052 Z M249.251,663.1352 L255.711,663.1352 L255.711,656.63728 L249.251,656.63728 L249.251,663.1352 Z M249.251,624.26696 L255.711,624.26696 L255.711,617.78608 L249.251,617.78608 L249.251,624.26696 Z M184.634,598.34912 L191.099667,598.34912 L191.099667,591.87392 L184.634,591.87392 L184.634,598.34912 Z" id="sample_QR"></path>
        </g>
    </g>
</svg>