<?xml version="1.0" encoding="UTF-8"?>
<svg width="12px" height="18px" viewBox="0 0 12 18" version="1.1" xmlns="http://www.w3.org/2000/svg" xmlns:xlink="http://www.w3.org/1999/xlink">
    <!-- Generator: Sketch 44.1 (41455) - http://www.bohemiancoding.com/sketch -->
    <title>svg_mobile</title>
    <desc>Created with Sketch.</desc>
    <defs></defs>
    <g id="Symbols" stroke="none" stroke-width="1" fill="none" fill-rule="evenodd">
        <g id="Ionic/Phone-Portrait-Blue" transform="translate(-10.000000, -7.000000)" stroke="#15A9C7" stroke-width="0.3" fill="#15A9C7" fill-rule="nonzero">
            <path d="M19.7044118,8 L12.2955882,8 C11.5814706,8 11,8.5272 11,9.17466667 L11,22.8250667 C11,23.4728 11.5814706,24 12.2955882,24 L19.7041176,24 C20.4185294,24 21,23.4728 21,22.8253333 L21,9.17466667 C21,8.5272 20.4185294,8 19.7044118,8 Z M11.5882353,10.1333333 L20.4117647,10.1333333 L20.4117647,20.2666667 L11.5882353,20.2666667 L11.5882353,10.1333333 Z M12.2955882,8.53333333 L19.7041176,8.53333333 C20.0944118,8.53333333 20.4117647,8.82106667 20.4117647,9.17466667 L20.4117647,9.6 L11.5882353,9.6 L11.5882353,9.17466667 C11.5882353,8.82106667 11.9055882,8.53333333 12.2955882,8.53333333 Z M19.7044118,23.4666667 L12.2955882,23.4666667 C11.9055882,23.4666667 11.5882353,23.1789333 11.5882353,22.8253333 L11.5882353,20.8 L20.4117647,20.8 L20.4117647,22.8253333 C20.4117647,23.1789333 20.0944118,23.4666667 19.7044118,23.4666667 Z M16,21.0666667 C15.3511765,21.0666667 14.8235294,21.5450667 14.8235294,22.1333333 C14.8235294,22.7216 15.3511765,23.2 16,23.2 C16.6488235,23.2 17.1764706,22.7216 17.1764706,22.1333333 C17.1764706,21.5450667 16.6488235,21.0666667 16,21.0666667 Z M16,22.6666667 C15.6755882,22.6666667 15.4117647,22.4274667 15.4117647,22.1333333 C15.4117647,21.8392 15.6755882,21.6 16,21.6 C16.3244118,21.6 16.5882353,21.8392 16.5882353,22.1333333 C16.5882353,22.4274667 16.3244118,22.6666667 16,22.6666667 Z" id="svg_mobile"></path>
        </g>
    </g>
</svg>