<?xml version="1.0" encoding="UTF-8"?>
<svg width="17px" height="16px" viewBox="0 0 17 16" version="1.1" xmlns="http://www.w3.org/2000/svg" xmlns:xlink="http://www.w3.org/1999/xlink">
    <!-- Generator: Sketch 43.2 (39069) - http://www.bohemiancoding.com/sketch -->
    <title>svg_RequestService</title>
    <desc>Created with Sketch.</desc>
    <defs></defs>
    <g id="Symbols" stroke="none" stroke-width="1" fill="none" fill-rule="evenodd">
        <g id="SVG/Request-Service" transform="translate(-8.000000, -9.000000)" stroke="#15A9C7" stroke-width="0.2" fill="#15A9C7" fill-rule="nonzero">
            <path d="M12.6322625,18.4783496 C11.8986426,18.4783496 11.3017849,19.1068365 11.3017849,19.8793831 C11.3017849,20.6519297 11.8986426,21.2804166 12.6322625,21.2804166 C13.3658435,21.2804166 13.9627012,20.6519297 13.9627012,19.8793831 C13.9627012,19.1068365 13.3658823,18.4783496 12.6322625,18.4783496 Z M12.6322625,20.5439156 C12.2842573,20.5439156 12.0011365,20.245772 12.0011365,19.8793422 C12.0011365,19.5129124 12.2842573,19.2147688 12.6322625,19.2147688 C12.9802288,19.2147688 13.2633496,19.5129124 13.2633496,19.8793422 C13.2633496,20.2458129 12.9802288,20.5439156 12.6322625,20.5439156 Z M23.6423106,10.0101224 L9.70213457,10.0101224 C9.50899696,10.0101224 9.34826265,10.1869956 9.34826265,10.3903404 L9.34826265,11.7390443 L9.34826265,15.953028 C9.34826265,16.1564137 9.50480085,16.321258 9.69793846,16.321258 C9.89107607,16.321258 10.0476143,16.1564137 10.0476143,15.953028 L10.0476143,12.3882748 L16.3791554,16.2907768 C16.486739,16.3570991 16.6226463,16.358122 16.7311624,16.2933953 L23.2964423,12.3778416 L23.2964423,20.811537 L17.3960904,20.811537 C17.2029528,20.811537 17.0464145,20.9763813 17.0464145,21.179767 C17.0464145,21.3831528 17.2029528,21.5479971 17.3960904,21.5479971 L23.6423494,21.5479971 C23.835487,21.5479971 23.9958328,21.3630228 23.9958328,21.159678 L23.9958328,11.752587 L23.9958328,10.3903813 C23.995794,10.1869956 23.8354482,10.0101224 23.6423106,10.0101224 Z M23.2964423,11.5314035 L16.5605983,15.5480977 L10.0476143,11.5348812 L10.0476143,10.7465825 L23.2964423,10.7465825 L23.2964423,11.5314035 Z M16.0632427,20.6151885 L15.6114227,20.2704843 C15.6265753,20.1410719 15.6341905,20.0103912 15.6341905,19.8797513 C15.6341905,19.7510754 15.6268084,19.6223585 15.6121221,19.4950328 L16.0640975,19.1501649 C16.1796071,19.0709136 16.3371554,18.88418 16.2616643,18.472417 C16.2255311,18.2753321 16.1390058,18.0452702 16.018018,17.8244958 C15.6825623,17.2126202 15.2760059,16.944917 14.9515456,17.1192125 L14.4433501,17.3583575 C14.245317,17.2000595 14.0310046,17.0693787 13.8027828,16.9677472 L13.7455914,16.3879077 C13.7283019,16.0035983 13.3050776,15.766049 12.6322625,15.766049 C11.9612346,15.766049 11.537816,16.0029436 11.5189724,16.3861074 L11.4617033,16.9677882 C11.2334427,17.0694197 11.0191302,17.2001004 10.8210972,17.3583984 L10.3136787,17.1196626 C10.1907482,17.053954 9.95836924,17.0035883 9.65749263,17.2783288 C9.51342619,17.4098279 9.36749482,17.6038442 9.24650698,17.8244958 C8.91077935,18.436576 8.89395606,18.9413375 9.2000001,19.1500421 L9.65232519,19.4951555 C9.63763881,19.6225222 9.63021791,19.7511981 9.63021791,19.8797513 C9.63021791,20.0103502 9.63787193,20.141031 9.65302455,20.2704025 L9.20019437,20.6158432 C8.89391721,20.824466 8.91070164,21.3292684 9.24646813,21.9415122 C9.36749482,22.1622457 9.51346504,22.3562211 9.65749263,22.4877201 C9.95836924,22.7624197 10.1907871,22.712095 10.3136787,22.6463455 L10.8263035,22.4051548 C11.0227436,22.561448 11.2351133,22.6906558 11.4610039,22.7913463 L11.5189724,23.3794915 C11.5375829,23.7629008 11.9610403,24 12.6323013,24 C13.3051165,24 13.7283407,23.7624098 13.7456303,23.3780595 L13.8034433,22.7913463 C14.0294116,22.6906558 14.2417425,22.561448 14.4381827,22.4051957 L14.9512736,22.6466319 C15.2757728,22.821132 15.6824458,22.5535515 16.0180568,21.9414713 C16.3544061,21.3278364 16.3706855,20.8230749 16.0632427,20.6151885 Z M14.8901969,19.4017069 C14.9198417,19.5578774 14.9348777,19.718753 14.9348777,19.8797513 C14.9348777,20.0423453 14.9195308,20.2048985 14.8892645,20.3629101 C14.862184,20.5042695 14.9159952,20.6493112 15.0268813,20.7338814 L15.5755227,21.1524362 C15.5595153,21.2386838 15.512853,21.3899446 15.4123795,21.5732822 C15.3118671,21.7566198 15.2107719,21.8748217 15.1478691,21.9325111 L14.5269226,21.6403001 C14.4019329,21.5814651 14.255885,21.6048682 14.1531192,21.7001579 C13.9215949,21.9149178 13.6569292,22.0759162 13.3664263,22.1787342 C13.23658,22.2246811 13.1441879,22.3462789 13.1300454,22.4897659 L13.0598383,23.2019637 C12.9809281,23.230481 12.8332095,23.2635399 12.6322625,23.2635399 C12.4311989,23.2635399 12.2834414,23.2304401 12.2045313,23.2019228 L12.134363,22.4897659 C12.1202205,22.3462789 12.0277896,22.2246811 11.8979821,22.1787342 C11.6075958,22.0759571 11.3428912,21.9149178 11.1112504,21.700117 C11.0084846,21.6048682 10.8624755,21.581506 10.7375247,21.6402592 L10.1165781,21.9324292 C10.0536753,21.8746989 9.95261901,21.756538 9.85210664,21.5732004 C9.75159427,21.3899036 9.70489312,21.238602 9.6889246,21.1523543 L10.2376437,20.7337177 C10.3485686,20.6491066 10.4023798,20.504024 10.3752605,20.3626237 C10.3449553,20.204653 10.3296084,20.0421408 10.3296084,19.8796695 C10.3296084,19.7188348 10.3446445,19.558041 10.374328,19.4017069 C10.4010977,19.2605111 10.3473253,19.1158376 10.2365946,19.0313493 L9.68896345,18.613531 C9.70497083,18.5273242 9.75163312,18.3760226 9.85218435,18.1926849 C9.95265787,18.0093882 10.053753,17.8911864 10.116617,17.833497 L10.7328623,18.1234168 C10.8580463,18.1822518 11.0044439,18.158685 11.1072097,18.0629861 C11.3398995,17.8462214 11.6061582,17.6838319 11.8986815,17.5804002 C12.0285666,17.5344124 12.1210364,17.4128555 12.13514,17.2692867 L12.204609,16.5640035 C12.2835191,16.5354861 12.4312377,16.5023863 12.6323402,16.5023863 C12.8333261,16.5023863 12.9810058,16.5354452 13.059916,16.5639625 L13.1295015,17.2693277 C13.1436439,17.4128555 13.2361138,17.5344124 13.36596,17.5803593 C13.6584056,17.683791 13.9246254,17.8461396 14.1573153,18.0629043 C14.2600423,18.1586032 14.4064399,18.1822518 14.5317015,18.1233349 L15.147908,17.8333742 C15.2108108,17.8910636 15.3118671,18.0092245 15.4124183,18.1925622 C15.5128918,18.3758998 15.5595541,18.5271606 15.5755615,18.6134082 L15.0279692,19.0312266 C14.9171608,19.1158376 14.8633884,19.2605111 14.8901969,19.4017069 Z" id="svg_RequestService"></path>
        </g>
    </g>
</svg>