<?xml version="1.0" encoding="UTF-8"?>
<svg width="19px" height="17px" viewBox="0 0 19 17" version="1.1" xmlns="http://www.w3.org/2000/svg" xmlns:xlink="http://www.w3.org/1999/xlink">
    <!-- Generator: Sketch 43.2 (39069) - http://www.bohemiancoding.com/sketch -->
    <title>svg_AccessCard</title>
    <desc>Created with Sketch.</desc>
    <defs></defs>
    <g id="Symbols" stroke="none" stroke-width="1" fill="none" fill-rule="evenodd">
        <g id="SVG/Access-Card" transform="translate(-7.000000, -7.000000)" fill-rule="nonzero" fill="#15A9C7">
            <path d="M20.1330096,11.959784 L20.1330096,10.1546597 L17.889927,10.1546597 C18.0445812,9.8911855 18.1337676,9.58304183 18.1337676,9.25387382 C18.1337676,8.28681173 17.3653884,7.5 16.4208547,7.5 C15.4763211,7.5 14.7079419,8.28675349 14.7079419,9.25387382 C14.7079419,9.58304183 14.7971282,9.8911855 14.9517824,10.1546597 L12.7087567,10.1546597 L12.7087567,11.959784 L7.5,11.959784 L7.5,23.5 L25.3417663,23.5 L25.3417663,11.959784 L20.1330096,11.959784 Z M16.4208547,8.37358815 C16.8948848,8.37358815 17.2805817,8.76845 17.2805817,9.25387382 C17.2805817,9.73929764 16.8949417,10.1341595 16.4208547,10.1341595 C15.9467678,10.1341595 15.5611277,9.73929764 15.5611277,9.25387382 C15.5611277,8.76845 15.9468246,8.37358815 16.4208547,8.37358815 Z M13.5619426,11.0282478 L19.2797668,11.0282478 L19.2797668,12.6708848 L13.5619426,12.6708848 L13.5619426,11.0282478 Z M24.4885804,22.6264118 L8.35318588,22.6264118 L8.35318588,12.8333722 L12.7087567,12.8333722 L12.7087567,13.5444729 L20.1329527,13.5444729 L20.1329527,12.8333722 L24.4885235,12.8333722 L24.4885235,22.6264118 L24.4885804,22.6264118 L24.4885804,22.6264118 Z M13.410303,17.3130157 C13.639355,17.0325357 13.7774573,16.6717438 13.7774573,16.2784544 C13.7774573,15.3877439 13.0697112,14.6630734 12.1998029,14.6630734 C11.3298945,14.6630734 10.6222053,15.3877439 10.6222053,16.2784544 C10.6222053,16.6840323 10.7692945,17.0548996 11.0112012,17.3388739 C10.2472017,17.7732802 9.7288628,18.6077899 9.7288628,19.5641942 L9.7288628,20.9194206 L14.7395097,20.9194206 L14.7395097,19.5641942 C14.7395666,18.588338 14.1998412,17.7395597 13.410303,17.3130157 Z M12.1998598,15.5366616 C12.5993214,15.5366616 12.9243283,15.8694404 12.9243283,16.2784544 C12.9243283,16.6874684 12.5993214,17.0202472 12.1998598,17.0202472 C11.8003981,17.0202472 11.4754481,16.6874684 11.4754481,16.2784544 C11.4754481,15.8694404 11.8003981,15.5366616 12.1998598,15.5366616 Z M13.8863807,20.0457742 L10.5821056,20.0457742 L10.5821056,19.5641359 C10.5821056,18.6430828 11.3139115,17.8937771 12.2134539,17.8937771 L12.2550324,17.8937771 C13.1545748,17.8937771 13.8863807,18.6430828 13.8863807,19.5641359 L13.8863807,20.0457742 L13.8863807,20.0457742 Z M16.9016534,14.9136185 L16.9016534,15.7872067 L23.0319646,15.7872067 L23.0319646,14.9136185 L16.9016534,14.9136185 Z M16.9016534,17.2930397 L16.9016534,18.1666278 L23.0319646,18.1666278 L23.0319646,17.2930397 L16.9016534,17.2930397 Z M16.9016534,19.6725773 L16.9016534,20.5461655 L23.0319646,20.5461655 L23.0319646,19.6725773 L16.9016534,19.6725773 Z" id="svg_AccessCard"></path>
        </g>
    </g>
</svg>