<?xml version="1.0" encoding="UTF-8"?>
<svg width="50px" height="40px" viewBox="0 0 50 40" version="1.1" xmlns="http://www.w3.org/2000/svg" xmlns:xlink="http://www.w3.org/1999/xlink">
    <!-- Generator: Sketch 44.1 (41455) - http://www.bohemiancoding.com/sketch -->
    <title>Combined Shape</title>
    <desc>Created with Sketch.</desc>
    <defs></defs>
    <g id="iHajj-v2.0" stroke="none" stroke-width="1" fill="none" fill-rule="evenodd">
        <g id="Trip-Mgmt" transform="translate(-220.000000, -136.000000)" fill-rule="nonzero" fill="#E6E6E6">
            <g id="Group-5" transform="translate(16.000000, 136.000000)">
                <g id="Group-4" transform="translate(120.000000, 0.000000)">
                    <g id="man-working-on-a-laptop-from-side-view" transform="translate(84.000000, 0.000000)">
                        <path d="M42.1130624,35.4097487 L46.4851305,35.4099391 L46.4851305,38.8637345 L42.1131895,38.8637345 L33.6739837,38.8637345 L16.1660177,38.8637345 C15.4360268,38.8637345 14.844271,38.2722138 14.844271,37.5429678 L14.844271,36.7302615 C14.844271,36.000952 15.4360903,35.4097487 16.1660177,35.4097487 L33.6738566,35.4097487 L42.1130624,35.4097487 Z M13.4161163,14.6217314 C9.37466393,14.6217314 6.09841948,11.3485453 6.09841948,7.3108657 C6.09841948,3.27318607 9.37466393,0 13.4161163,0 C17.4575686,0 20.7338131,3.27318607 20.7338131,7.3108657 C20.7338131,11.3485453 17.4575686,14.6217314 13.4161163,14.6217314 Z M31.2702419,25.2419396 C32.8822443,25.2419396 34.1891892,26.547474 34.1891256,28.158035 C34.1891256,29.7685961 32.8822443,31.074194 31.2702419,31.074194 L14.5851436,31.074194 C14.5851436,31.074194 13.9580667,31.0651815 13.9121366,31.0645468 C13.2214055,31.0545189 12.5654237,30.7442879 12.1002776,30.2369891 L6.37577918,23.994161 C6.19339263,23.7951891 5.88401522,23.781607 5.68498454,23.9639502 C5.48576328,24.1461665 5.47223199,24.4551282 5.6547456,24.6541 L11.3793076,30.8969916 C12.0237909,31.5998985 12.9383283,32.0012694 13.8925702,32.0012694 C13.9008287,32.0012694 13.9041321,31.9999365 13.9174093,32.0011424 L14.1039887,32.0158035 L14.1039887,40 L0,40 L0,21.2577431 C0,17.5926631 2.97389826,14.6216045 6.64233926,14.6214775 L6.65224951,14.6330287 C6.78235319,14.6259203 6.91328272,14.6214775 7.04510164,14.6214775 C10.9360149,14.6214775 14.0902033,17.7728484 14.0902033,21.6599391 L14.1039887,23.2872556 L14.1039887,25.2314039 L14.5010336,25.2326733 L31.2702419,25.2419396 Z M48.6108138,14.8943894 C49.2937311,15.1278878 49.6572972,15.8702082 49.4241524,16.5517898 L43.5954058,33.5503935 C43.5490945,33.6850724 43.4825815,33.8064864 43.4010761,33.914001 C43.1653267,34.2527926 42.7731099,34.4751206 42.3288007,34.4751206 L21.5867291,34.4751206 C20.8653144,34.4751206 20.2801654,33.8907083 20.2801654,33.1698401 C20.2801654,32.4489718 20.8653144,31.8646865 21.5867291,31.8646865 L41.4111505,31.8646865 L46.951293,15.7063976 C47.1853272,15.0244351 47.9282777,14.6607642 48.6108138,14.8943894 Z" id="Combined-Shape"></path>
                    </g>
                </g>
            </g>
        </g>
    </g>
</svg>