<?xml version="1.0" encoding="UTF-8"?>
<svg width="18px" height="18px" viewBox="0 0 18 18" version="1.1" xmlns="http://www.w3.org/2000/svg" xmlns:xlink="http://www.w3.org/1999/xlink">
    <!-- Generator: Sketch 44 (41411) - http://www.bohemiancoding.com/sketch -->
    <title>no</title>
    <desc>Created with Sketch.</desc>
    <defs></defs>
    <g id="iHajj-v2.0" stroke="none" stroke-width="1" fill="none" fill-rule="evenodd">
        <g id="Sidebar-Full" transform="translate(-19.000000, -219.000000)" fill="#14A5CC">
            <g id="Sidebar">
                <g id="Group-4" transform="translate(0.000000, 174.000000)">
                    <g id="Menu-Pilgrimage-Copy" transform="translate(16.000000, 42.000000)">
                        <g id="reading-quran" transform="translate(3.000000, 3.000000)">
                            <path d="M11.2515494,17.9997384 L14.6267641,17.9997384 C14.9361588,17.9997384 15.1892998,17.74941 15.1892998,17.4372026 L15.1892998,9.56170181 L17.4394429,9.56170181 C17.6644573,9.56170181 17.8697828,9.42388055 17.9569759,9.21574231 C18.0441689,9.0047914 17.9963534,8.76290101 17.8360307,8.60257832 L9.39799406,0.164541714 C9.17860511,-0.0548472379 8.82139489,-0.0548472379 8.60200594,0.164541714 L0.163969335,8.60257832 C0.00364663964,8.76290101 -0.0441689011,9.0047914 0.0430241438,9.21574231 C0.130217189,9.42388055 0.335542746,9.56170181 0.563369734,9.56170181 L2.81351283,9.56170181 L2.81351283,17.4372026 C2.81351283,17.74941 3.06384125,17.9997384 3.3760486,17.9997384 L6.75126324,17.9997384 C7.06065792,17.9997384 7.31379902,17.74941 7.31379902,17.4372026 L7.31379902,13.4994522 L10.6890137,13.4994522 L10.6890137,17.4372026 C10.6890137,17.74941 10.9393421,17.9997384 11.2515494,17.9997384 L11.2515494,17.9997384 Z M6.75126324,12.3743807 C6.43905589,12.3743807 6.18872747,12.6275218 6.18872747,12.9369165 L6.18872747,16.8746669 L3.93858438,16.8746669 L3.93858438,8.99916604 C3.93858438,8.68977136 3.68544328,8.43663027 3.3760486,8.43663027 L1.91908095,8.43663027 L9.00140634,1.35711755 L16.0809191,8.43663027 L14.6267641,8.43663027 C14.3145567,8.43663027 14.0642283,8.68977136 14.0642283,8.99916604 L14.0642283,16.8746669 L11.8140852,16.8746669 L11.8140852,12.9369165 C11.8140852,12.6275218 11.5609441,12.3743807 11.2515494,12.3743807 L6.75126324,12.3743807 L6.75126324,12.3743807 Z" id="no"></path>
                        </g>
                    </g>
                </g>
            </g>
        </g>
    </g>
</svg>