<?xml version="1.0" encoding="UTF-8"?>
<svg width="15px" height="16px" viewBox="0 0 15 16" version="1.1" xmlns="http://www.w3.org/2000/svg" xmlns:xlink="http://www.w3.org/1999/xlink">
    <!-- Generator: Sketch 44.1 (41455) - http://www.bohemiancoding.com/sketch -->
    <title>svg_report</title>
    <desc>Created with Sketch.</desc>
    <defs></defs>
    <g id="Symbols" stroke="none" stroke-width="1" fill="none" fill-rule="evenodd">
        <g id="Ionic/Clipboard-Blue" transform="translate(-9.000000, -8.000000)" fill-rule="nonzero" fill="#15A9C7">
            <path d="M21.9198985,9.42532037 L18.657037,9.45454545 C18.3488889,8.58181818 17.5014815,8 16.5,8 C15.4985185,8 14.6511111,8.58181818 14.342963,9.45454545 L11.0801015,9.42532037 L11.0801015,9.42532037 C10.2517076,9.41790054 9.57414666,10.0834315 9.56672683,10.9118254 C9.56668672,10.9163036 9.56666667,10.9207819 9.56666667,10.9252602 L9.56666667,22.5 L9.56666667,22.5 C9.56666667,23.3284271 10.2382395,24 11.0666667,24 L21.9333333,24 L21.9333333,24 C22.7617605,24 23.4333333,23.3284271 23.4333333,22.5 L23.4333333,10.9252602 L23.4333333,10.9252602 C23.4333333,10.0968331 22.7617605,9.42526021 21.9333333,9.42526021 C21.928855,9.42526021 21.9243767,9.42528026 21.9198985,9.42532037 Z M16.5,9.45454545 C16.9622222,9.45454545 17.2703704,9.74545455 17.2703704,10.1818182 C17.2703704,10.6181818 16.9622222,10.9090909 16.5,10.9090909 C16.0377778,10.9090909 15.7296296,10.6181818 15.7296296,10.1818182 C15.7296296,9.74545455 16.0377778,9.45454545 16.5,9.45454545 Z M21.5352948,22.8705875 L11.4647061,22.8705875 L11.4647061,22.8705875 C11.0228783,22.8705875 10.6647061,22.5124153 10.6647061,22.0705875 L10.6647061,11.3411763 L10.6647061,11.3411763 C10.6647061,10.8993485 11.0228783,10.5411763 11.4647061,10.5411763 L12.6481481,10.5411763 L12.6481481,13.0909091 L20.3518519,13.0909091 L20.3518519,10.5411763 L21.5352948,10.5411763 L21.5352948,10.5411763 C21.9771226,10.5411763 22.3352948,10.8993485 22.3352948,11.3411763 L22.3352948,22.0705875 L22.3352948,22.0705875 C22.3352948,22.5124153 21.9771226,22.8705875 21.5352948,22.8705875 Z" id="svg_report"></path>
        </g>
    </g>
</svg>