<?xml version="1.0" encoding="UTF-8"?>
<svg width="55px" height="58px" viewBox="0 0 55 58" version="1.1" xmlns="http://www.w3.org/2000/svg" xmlns:xlink="http://www.w3.org/1999/xlink">
    <!-- Generator: Sketch 44.1 (41455) - http://www.bohemiancoding.com/sketch -->
    <title>FingerPrint</title>
    <desc>Created with Sketch.</desc>
    <defs></defs>
    <g id="iPhone---Staff" stroke="none" stroke-width="1" fill="none" fill-rule="evenodd">
        <g id="Finger-Print-Captured-01" transform="translate(-161.000000, -360.000000)" fill="#0071FF">
            <g id="Alert/Two-Button" transform="translate(0.000000, 220.000000)">
                <g id="FingerPrint" transform="translate(161.000000, 140.000000)">
                    <path d="M26.8575652,25.8519358 C26.3438261,25.9965336 26.0443478,26.5283189 26.1916522,27.0326186 C26.2196522,27.1210503 28.8212174,36.2056163 28.1029565,56.3716319 C28.0846957,56.8986372 28.5071304,57.3419907 29.0452174,57.3611111 L29.078087,57.3611111 C29.6015652,57.3611111 30.0337391,56.9548032 30.0483478,56.4373582 C30.7763478,35.9678067 28.1747826,26.8784606 28.0652174,26.5008333 C27.917913,25.9965336 27.3798261,25.707338 26.8575652,25.8519358 L26.8575652,25.8519358 Z" id="Fill-1"></path>
                    <path d="M51.3478261,16.7112037 C47.2245217,7.14265336 37.7191304,0.957213542 27.1278261,0.957213542 C23.6375652,0.957213542 20.2288696,1.62881655 17.004,2.95051215 C15.2205217,3.67828125 13.5332174,4.55184317 11.9871304,5.53176215 C11.5403478,5.82095775 11.4113043,6.41368924 11.7022609,6.85704282 C11.9968696,7.30039641 12.6006957,7.42706887 13.0523478,7.13787326 C14.4937391,6.21770544 16.0763478,5.40150463 17.7551304,4.71436632 C20.7413913,3.48707755 23.8944348,2.8704456 27.1278261,2.8704456 C36.933913,2.8704456 45.7368696,8.59341146 49.5546087,17.4580932 C51.1384348,21.1411545 51.9991304,27.9241059 52.3704348,31.6406279 C52.417913,32.1353675 52.8415652,32.5034346 53.3358261,32.5034346 C53.3686957,32.5034346 53.4027826,32.5034346 53.4356522,32.4986545 C53.9676522,32.4472685 54.3584348,31.9812095 54.306087,31.4530093 C53.8446957,26.7852488 52.949913,20.4325058 51.3478261,16.7112037 L51.3478261,16.7112037 Z" id="Fill-2"></path>
                    <path d="M9.10069565,10.2413484 C9.4853913,9.87328125 9.49026087,9.26620949 9.11043478,8.88858218 C8.73426087,8.51453993 8.12069565,8.50975984 7.736,8.87902199 C2.49513043,13.9435301 -2.7213913,23.3638976 2.16765217,39.4680295 C2.2906087,39.8838976 2.68017391,40.1551678 3.09895652,40.1551678 C3.19391304,40.1551678 3.28521739,40.1408275 3.38017391,40.112147 C3.89391304,39.9627691 4.18852174,39.4309838 4.03147826,38.9219039 C0.384173913,26.897581 2.13843478,16.9776939 9.10069565,10.2413484 L9.10069565,10.2413484 Z" id="Fill-4"></path>
                    <path d="M27.8801739,6.70766493 C24.8975652,6.59174769 21.9977391,7.11875289 19.2586087,8.24326968 C9.70452174,12.1509954 4.63043478,22.4628501 7.44626087,32.2237992 C7.72626087,33.1989381 8.016,34.2350231 8.16817391,35.2723032 C8.52,37.6109635 8.53947826,41.919022 8.53947826,48.7581395 C8.53947826,49.2851447 8.97165217,49.7105729 9.50973913,49.7105729 C10.0514783,49.7105729 10.4848696,49.2851447 10.4848696,48.7581395 C10.4848696,41.6250463 10.4653913,37.4699508 10.0989565,34.9914728 C9.92852174,33.8430556 9.61930435,32.7376591 9.31982609,31.7003791 C6.7706087,22.869158 11.3638261,13.5420023 20.0048696,10.0035388 C22.4871304,8.99015914 25.1264348,8.52888021 27.8083478,8.61731192 C34.7365217,8.85990162 42.5838261,14.8541377 44.9516522,21.7016204 C47.0017391,27.6301302 47.02,37.7268808 46.7631304,46.8162269 C46.7497391,47.3480122 47.1721739,47.7865856 47.7151304,47.8009259 C48.2422609,47.7913657 48.6987826,47.3993981 48.7133913,46.8723929 C48.9702609,37.6061834 48.945913,27.2991088 46.7972174,21.0861834 C44.1530435,13.4296701 35.6641739,6.97893519 27.8801739,6.70766493 L27.8801739,6.70766493 Z" id="Fill-6"></path>
                    <path d="M27.1278261,12.4306308 C26.0723478,12.4306308 25.0168696,12.542963 23.9942609,12.7628472 C23.472,12.8739844 23.1384348,13.3878443 23.2577391,13.9017043 C23.3721739,14.4191493 23.8846957,14.7370255 24.417913,14.6294734 C25.298087,14.4382697 26.2147826,14.3402778 27.1278261,14.3402778 C32.2262609,14.3402778 36.806087,17.3182755 38.7892174,21.9262847 C41.1570435,27.415026 41.3092174,36.2247367 40.7626087,51.5915394 C40.7431304,52.1185446 41.1667826,52.5618981 41.7036522,52.5810185 L41.7365217,52.5810185 C42.26,52.5810185 42.6933913,52.1747106 42.7116522,51.6572656 C43.2777391,35.6690509 43.106087,27.0326186 40.5812174,21.1841753 C38.2937391,15.8663223 33.0114783,12.4306308 27.1278261,12.4306308 L27.1278261,12.4306308 Z" id="Fill-7"></path>
                    <path d="M19.8953043,16.5761661 C20.3372174,16.2726302 20.4467826,15.6751186 20.1326957,15.2461053 C19.8283478,14.8123119 19.2196522,14.7047598 18.7777391,15.0130758 C13.7608696,18.4666927 11.5829565,25.1098264 13.3566957,31.5462211 C13.3798261,31.6167274 15.3544348,38.6793142 15.3544348,49.715353 C15.3544348,50.2423582 15.7914783,50.6665914 16.3283478,50.6665914 C16.8713043,50.6665914 17.3034783,50.2423582 17.3034783,49.715353 C17.3034783,38.4176042 15.3203478,31.3275318 15.2351304,31.0383362 C13.6756522,25.3846817 15.5492174,19.5732841 19.8953043,16.5761661 L19.8953043,16.5761661 Z" id="Fill-8"></path>
                    <path d="M36.7817391,46.8532726 C36.7866087,46.3214873 36.3544348,45.8912789 35.8163478,45.8864988 L35.8066087,45.8864988 C35.2746087,45.8864988 34.8375652,46.3119271 34.8326957,46.8389323 C34.8278261,47.5583362 34.8558261,48.6087616 34.8801739,49.7428385 C34.917913,51.3907755 34.9605217,53.2574016 34.917913,54.461985 C34.8984348,54.9901852 35.322087,55.4335388 35.8589565,55.446684 L35.8930435,55.446684 C36.4153043,55.446684 36.8486957,55.0415712 36.8633043,54.5277112 C36.9107826,53.2717419 36.8669565,51.3716551 36.8243478,49.6962326 C36.8012174,48.5848611 36.7768696,47.5583362 36.7817391,46.8532726 L36.7817391,46.8532726 Z" id="Fill-9"></path>
                    <path d="M27.1278261,19.1203704 C26.0966957,19.1203704 25.0886957,19.3211343 24.1330435,19.7131019 C20.3372174,21.2630469 18.4977391,25.4647483 19.8429565,29.478831 C20.5806957,31.6633333 21.197913,43.1188252 21.197913,54.4954456 C21.197913,55.0224508 21.6361739,55.446684 22.1730435,55.446684 C22.7111304,55.446684 23.1481739,55.0224508 23.1481739,54.4954456 C23.1481739,44.2576823 22.5918261,31.5510012 21.6982609,28.8813194 C20.6707826,25.8232552 22.0403478,22.6397135 24.8793043,21.478151 C25.5975652,21.1841753 26.3535652,21.0347975 27.1278261,21.0347975 C29.4822609,21.0347975 31.5932174,22.406684 32.516,24.5398003 C34.3323478,28.7642072 34.8753043,36.4159404 35.008,42.0875203 C35.0177391,42.6097454 35.4547826,43.0208333 35.9831304,43.0208333 L36.0026087,43.0208333 C36.5394783,43.0112731 36.968,42.5726997 36.9533913,42.0456944 C36.8146087,36.2056163 36.2497391,28.3029282 34.3043478,23.7881308 C33.082087,20.9547309 30.2674783,19.1203704 27.1278261,19.1203704 L27.1278261,19.1203704 Z" id="Fill-10"></path>
                </g>
            </g>
        </g>
    </g>
</svg>