<?xml version="1.0" encoding="UTF-8"?>
<svg width="127px" height="125px" viewBox="0 0 127 125" version="1.1" xmlns="http://www.w3.org/2000/svg" xmlns:xlink="http://www.w3.org/1999/xlink">
    <!-- Generator: Sketch 44.1 (41455) - http://www.bohemiancoding.com/sketch -->
    <title>login_appicon</title>
    <desc>Created with Sketch.</desc>
    <defs>
        <filter x="-3.9%" y="-2.8%" width="107.8%" height="108.4%" filterUnits="objectBoundingBox" id="filter-1">
            <feOffset dx="0" dy="2" in="SourceAlpha" result="shadowOffsetOuter1"></feOffset>
            <feGaussianBlur stdDeviation="2" in="shadowOffsetOuter1" result="shadowBlurOuter1"></feGaussianBlur>
            <feColorMatrix values="0 0 0 0 0   0 0 0 0 0   0 0 0 0 0  0 0 0 0.200888813 0" type="matrix" in="shadowBlurOuter1" result="shadowMatrixOuter1"></feColorMatrix>
            <feMerge>
                <feMergeNode in="shadowMatrixOuter1"></feMergeNode>
                <feMergeNode in="SourceGraphic"></feMergeNode>
            </feMerge>
        </filter>
        <linearGradient x1="-3.99053773%" y1="6.23309977%" x2="105.17771%" y2="96.6263713%" id="linearGradient-2">
            <stop stop-color="#00B0FF" offset="0%"></stop>
            <stop stop-color="#3FD27B" offset="100%"></stop>
        </linearGradient>
        <linearGradient x1="-3.17682351%" y1="6.90686977%" x2="105.17771%" y2="96.6263713%" id="linearGradient-3">
            <stop stop-color="#FFFFFF" offset="0%"></stop>
            <stop stop-color="#2FAF63" offset="100%"></stop>
        </linearGradient>
    </defs>
    <g id="iStaff-Apps" stroke="none" stroke-width="1" fill="none" fill-rule="evenodd" opacity="0.699999988">
        <g id="Sign-Up" transform="translate(-124.000000, -63.000000)" fill-rule="nonzero">
            <g id="Group-4" transform="translate(98.000000, 35.000000)">
                <g id="Group-6">
                    <g id="Group-8">
                        <g id="Group-9" filter="url(#filter-1)" style="mix-blend-mode: soft-light;" transform="translate(0.728633, 0.000000)" fill="url(#linearGradient-2)">
                            <g id="Group" transform="translate(32.774250, 32.306763)">
                                <path d="M103.177759,41.5179156 C106.797535,37.6112297 109.024546,32.3926289 109.024546,26.6642915 C109.024546,14.6442048 99.2182071,4.86435844 87.1655589,4.86435844 C75.1129106,4.86435844 65.3065714,14.6442048 65.3065714,26.6642915 C65.3065714,32.4032973 67.5433979,37.6305961 71.1916016,41.5270673 C73.2199288,37.5340524 76.7248149,34.3620657 81.015476,32.7573834 C77.6476223,30.7129625 75.4512228,27.062118 75.4512228,22.8271631 C75.4512228,16.4016742 80.7227322,11.1444746 87.1655589,11.1444746 C93.6083855,11.1444746 98.8798949,16.4016742 98.8798264,22.8271631 C98.8798264,27.062118 96.6834269,30.7128942 93.3155733,32.7573834 C97.6333767,34.2645369 101.155414,37.4382149 103.177759,41.5179156 Z M100.966248,43.5538569 C98.6874018,38.2147539 93.3634994,34.5097833 87.1655589,34.5097833 C80.9673377,34.5097833 75.6432339,38.2151403 73.3645606,43.5546028 C73.7001115,43.8266331 74.0456296,44.0868671 74.3967307,44.3396773 C74.5255,44.4324261 74.6542693,44.5251749 74.7854232,44.6155455 C75.209885,44.9072683 75.645475,45.1839292 76.0906035,45.4463212 C76.1875779,45.5033973 76.2853472,45.5588881 76.3831165,45.6143788 C76.8703732,45.8910398 77.3679632,46.1518463 77.8774764,46.3912492 C79.6508364,47.2117194 81.4234016,47.7769322 83.2770437,48.1106693 C83.3255309,48.1193893 83.3740181,48.1281093 83.4233002,48.1368293 C83.9987877,48.2359199 84.5806342,48.3151923 85.1696346,48.3683049 C85.2411731,48.3746467 85.3127116,48.3786103 85.385045,48.3849521 C85.9716607,48.4333083 86.5646354,48.4642246 87.1655589,48.4642246 C87.7609182,48.4642246 88.3483288,48.4333083 88.9317651,48.3865376 C89.0056882,48.3801958 89.0796113,48.3762322 89.1535344,48.3698904 C89.7377655,48.3167778 90.3148428,48.2398835 90.8847662,48.1423783 C90.9340483,48.1336584 90.9841253,48.1249384 91.0334073,48.1154257 C92.859229,47.7888231 94.6063582,47.2362938 96.2453848,46.4863761 C96.3057951,46.4586308 96.3670003,46.4324709 96.4274106,46.4039328 C96.9178468,46.1740426 97.3971548,45.9259197 97.8669243,45.6619423 C97.9837705,45.5961461 98.0998219,45.5295573 98.2158732,45.4613829 C98.6435145,45.2100892 99.0640019,44.9476972 99.4725663,44.6686581 C99.6196176,44.5687748 99.7634895,44.4633424 99.9089511,44.3587027 C100.2579,44.1082016 100.60049,43.8497733 100.933542,43.5794542 C100.944338,43.5707708 100.955253,43.5622565 100.966248,43.5538569 Z M32.7021175,1.62153609 C33.995332,1.96937614 34.7627829,3.30372015 34.4162671,4.60187686 C34.0697514,5.90003357 32.7404874,6.67041744 31.4472729,6.3225774 C20.1778325,3.29139989 8.59424612,10.0047451 5.57460866,21.3172536 C2.5549712,32.629762 9.24275789,44.257617 20.5121983,47.2887945 C31.7816387,50.319972 43.3652251,43.6066268 46.3848625,32.2941183 C46.7313783,30.9959616 48.0606423,30.2255778 49.3538568,30.5734178 C50.6470713,30.9212578 51.4145222,32.2556019 51.0680064,33.5537586 C47.3553374,47.4625805 33.1132231,55.7166934 19.2573537,51.9898358 C5.40148432,48.2629782 -2.82120424,33.9664352 0.891464775,20.0576133 C4.60413378,6.14879143 18.8462481,-2.1053215 32.7021175,1.62153609 Z M37.8517951,27.2418683 C39.0249877,27.2418683 39.9761819,28.1966977 39.9761819,29.3743738 C39.9761819,30.55205 39.0249877,31.5068793 37.8517951,31.5068793 L24.1325053,31.5068793 C22.9593127,31.5068793 22.0081185,30.55205 22.0081185,29.3743738 L22.0081185,13.2473012 C22.0081185,12.069625 22.9593127,11.1147957 24.1325053,11.1147957 C25.3056979,11.1147957 26.2568921,12.069625 26.2568921,13.2473012 L26.2568921,27.2418683 L37.8517951,27.2418683 Z M40.5247776,11.0926458 C38.9946814,11.0926458 37.7542934,9.84751747 37.7542934,8.31157379 C37.7542934,6.77563011 38.9946814,5.53050174 40.5247776,5.53050174 C42.0548737,5.53050174 43.2952617,6.77563011 43.2952617,8.31157379 C43.2952617,9.84751747 42.0548737,11.0926458 40.5247776,11.0926458 Z M46.4813228,18.1843456 C44.9512266,18.1843456 43.7108386,16.9392173 43.7108386,15.4032736 C43.7108386,13.8673299 44.9512266,12.6222015 46.4813228,12.6222015 C48.0114189,12.6222015 49.2518069,13.8673299 49.2518069,15.4032736 C49.2518069,16.9392173 48.0114189,18.1843456 46.4813228,18.1843456 Z M49.5288511,26.805686 C47.998755,26.805686 46.758367,25.5605576 46.758367,24.0246139 C46.758367,22.4886702 47.998755,21.2435419 49.5288511,21.2435419 C51.0589473,21.2435419 52.2993353,22.4886702 52.2993353,24.0246139 C52.2993353,25.5605576 51.0589473,26.805686 49.5288511,26.805686 Z M113.44384,26.7116595 C113.44384,34.3832474 110.12131,41.2943474 104.862787,46.1117234 L103.988437,46.8398095 C103.90148,46.9131899 103.805922,46.9751344 103.717054,47.0466088 C103.316668,47.3715792 102.904816,47.6822547 102.485319,47.9834003 C102.310449,48.1091952 102.13749,48.2359432 101.960709,48.3560202 C101.469544,48.6914735 100.964046,49.006914 100.449947,49.3090125 C100.310433,49.3909698 100.170919,49.4710212 100.03045,49.5501196 C99.4657057,49.867466 98.8894946,50.1657526 98.2999056,50.4421203 C98.2272819,50.4764281 98.1537028,50.5078768 98.0810791,50.5412315 C96.1106858,51.4427622 94.0103345,52.1069978 91.8153813,52.4996307 C91.7561357,52.5110666 91.6959346,52.5215495 91.636689,52.5320324 C90.9515425,52.6492505 90.2577959,52.7416907 89.5554491,52.8055412 C89.4665807,52.8131651 89.3777124,52.8179301 89.288844,52.825554 C88.5874528,52.8817806 87.8812837,52.9189473 87.1655589,52.9189473 C86.443145,52.9189473 85.7302869,52.8817806 85.0250734,52.823648 C84.9381162,52.8160241 84.8521145,52.8112591 84.7661129,52.8036352 C84.0580327,52.7397847 83.3585526,52.6444855 82.6667171,52.5253615 C82.6074715,52.5148785 82.5491815,52.5043956 82.4908915,52.4939127 C80.2624933,52.092703 78.1315635,51.4132195 75.9996782,50.4268725 C75.3871554,50.1390688 74.7889661,49.8255343 74.2031994,49.49294 C74.0856638,49.4262306 73.9681282,49.3595211 73.8515482,49.2909057 C73.3164268,48.9754652 72.7927723,48.6428709 72.2824959,48.2921697 C72.1248262,48.1835286 71.9700232,48.0720285 71.8152203,47.9605284 C71.3374333,47.6164982 70.8682466,47.2610321 70.4153046,46.8865061 C70.3598813,46.8407625 70.2996801,46.8026428 70.2442568,46.7559462 L69.4167299,46.0173772 C64.1782739,41.223826 60.8872775,34.3441747 60.8872775,26.7116595 C60.8872775,12.2614376 72.6761923,0.504371824 87.1655589,0.504371824 C101.654925,0.504371824 113.44384,12.2614376 113.44384,26.7116595 Z M78.7603085,23.0801332 C78.7603085,27.690499 82.5427039,31.4626759 87.1655589,31.4626759 C91.7884138,31.4626759 95.5708092,27.690499 95.5708092,23.0801332 C95.5708092,18.4697674 91.7884138,14.6975906 87.1655589,14.6975906 C82.5427039,14.6975906 78.7603085,18.4697674 78.7603085,23.0801332 Z M46.3531877,64.0393262 C49.6336176,64.0393262 52.2993353,66.7013748 52.2993353,69.9806756 L52.2993353,104.860425 C52.2993353,108.141057 49.6306236,110.801774 46.3394858,110.801774 L5.95984948,110.801774 C2.65005902,110.801774 0,108.151036 0,104.860425 L7.17700033e-14,69.9806756 C7.97444481e-14,66.7002617 2.66118595,64.0393262 5.94353244,64.0393262 L14.3953585,64.0393262 L14.3953585,62.7965815 C14.3953585,61.6632084 15.1867668,60.8822741 16.3316155,60.8822741 C17.476529,60.8822741 18.2678725,61.6632727 18.2678725,62.7965815 L18.2678725,64.0393262 L33.5892311,64.0393262 L33.5892311,62.7965815 C33.5892311,61.6631499 34.3805151,60.8822741 35.5254881,60.8822741 C36.6704016,60.8822741 37.4617451,61.6632727 37.4617451,62.7965815 L37.4617451,64.0393262 L46.3531877,64.0393262 Z M6.89493143,67.8677597 C5.22977245,67.8677597 3.87233013,69.2261236 3.87233013,70.8976925 L3.87233013,76.6669904 L47.9784013,76.6669904 L47.8669583,70.9041672 C47.8347264,69.2374248 46.443333,67.8677597 44.7743155,67.8677597 L37.4619289,67.8677597 L37.4619289,69.1105043 C37.4619289,70.243936 36.670645,71.0248118 35.525672,71.0248118 C34.3807585,71.0248118 33.589415,70.2438131 33.589415,69.1105043 L33.589415,67.8677597 L18.2678725,67.8677597 L18.2678725,69.1105043 C18.2678725,70.2438774 17.4764642,71.0248118 16.3316155,71.0248118 C15.186702,71.0248118 14.3953585,70.2438131 14.3953585,69.1105043 L14.3953585,67.8677597 L6.89493143,67.8677597 Z M14.6256573,91.8113976 C13.6447826,91.8113976 12.9408787,91.5027059 12.228459,90.7996571 C11.5155301,90.0961056 11.2022485,89.4004493 11.2022485,88.4306727 C11.2022485,87.4608961 11.5155301,86.7652397 12.2284705,86.061677 C13.5956214,84.7127027 15.6558896,84.7127027 17.0228555,86.0616883 C17.6525438,86.6830939 18.0490661,87.6614729 18.0490661,88.4306727 C18.0490661,89.1998724 17.6525438,90.1782514 17.0228555,90.7996571 C16.3104358,91.5027059 15.6065319,91.8113976 14.6256573,91.8113976 Z M26.0980913,91.8113976 C25.1172167,91.8113976 24.4133128,91.5027059 23.7008931,90.7996571 C23.0712048,90.1782514 22.6746825,89.1998724 22.6746825,88.4306727 C22.6746825,87.6614729 23.0712048,86.6830939 23.7009046,86.061677 C25.0680555,84.7127027 27.1283236,84.7127027 28.4952896,86.0616883 C29.1249779,86.6830939 29.5215001,87.6614729 29.5215001,88.4306727 C29.5215001,89.1998724 29.1249779,90.1782514 28.4952896,90.7996571 C27.7828699,91.5027059 27.078966,91.8113976 26.0980913,91.8113976 Z M35.1733272,90.7996571 C34.5436389,90.1782514 34.1471166,89.1998724 34.1471166,88.4306727 C34.1471166,87.6614729 34.5436389,86.6830939 35.1733386,86.061677 C36.5404895,84.7127027 38.6007577,84.7127027 39.9677237,86.0616883 C40.5974119,86.6830939 40.9939342,87.6614729 40.9939342,88.4306727 C40.9939342,89.4004493 40.6806526,90.0961056 39.9677237,90.7996571 C39.255304,91.5027059 38.5514001,91.8113976 37.5705254,91.8113976 C36.5896508,91.8113976 35.8857469,91.5027059 35.1733272,90.7996571 Z M14.6256573,102.229231 C13.6447826,102.229231 12.9408787,101.920539 12.228459,101.21749 C11.5155301,100.513939 11.2022485,99.8182822 11.2022485,98.8485056 C11.2022485,97.878729 11.5155301,97.1830726 12.2284705,96.4795099 C13.5956214,95.1305357 15.6558896,95.1305357 17.0228555,96.4795212 C17.6525438,97.1009269 18.0490661,98.0793059 18.0490661,98.8485056 C18.0490661,99.6177054 17.6525438,100.596084 17.0228555,101.21749 C16.3104358,101.920539 15.6065319,102.229231 14.6256573,102.229231 Z M26.0980913,102.229231 C25.1172167,102.229231 24.4133128,101.920539 23.7008931,101.21749 C23.0712048,100.596084 22.6746825,99.6177054 22.6746825,98.8485056 C22.6746825,98.0793059 23.0712048,97.1009269 23.7009046,96.4795099 C25.0680555,95.1305357 27.1283236,95.1305357 28.4952896,96.4795212 C29.1249779,97.1009269 29.5215001,98.0793059 29.5215001,98.8485056 C29.5215001,99.6177054 29.1249779,100.596084 28.4952896,101.21749 C27.7828699,101.920539 27.078966,102.229231 26.0980913,102.229231 Z M35.1733272,101.21749 C34.5436389,100.596084 34.1471166,99.6177054 34.1471166,98.8485056 C34.1471166,98.0793059 34.5436389,97.1009269 35.1733386,96.4795099 C36.5404895,95.1305357 38.6007577,95.1305357 39.9677237,96.4795212 C40.5974119,97.1009269 40.9939342,98.0793059 40.9939342,98.8485056 C40.9939342,99.8182822 40.6806526,100.513939 39.9677237,101.21749 C39.255304,101.920539 38.5514001,102.229231 37.5705254,102.229231 C36.5896508,102.229231 35.8857469,101.920539 35.1733272,101.21749 Z M3.87233013,103.952833 C3.87233013,105.623753 5.22711865,106.973341 6.90186889,106.973341 L44.9554186,106.973341 C46.6394707,106.973341 47.9849459,105.627133 47.9849346,103.952836 L47.9847758,80.4954239 L3.87233013,80.4954239 L3.87233013,103.952833 Z M61.0158912,112.946688 L61.0158912,70.0344844 C61.0158912,66.5257347 63.8853417,63.6640364 67.4035963,63.6640364 L106.927521,63.6640364 C110.445776,63.6640364 113.315227,66.5257347 113.315227,70.0344844 L113.315227,95.1181234 C113.315227,98.626873 110.445776,101.488571 106.927521,101.488571 L72.505047,101.488571 L61.0158912,112.946688 Z M70.6860085,97.1088884 L106.927521,97.1088884 C108.020391,97.1088884 108.923679,96.2080409 108.923679,95.1181234 L108.923679,70.0344844 C108.923679,68.9445669 108.020391,68.0437194 106.927521,68.0437194 L67.4035963,68.0437194 C66.3107263,68.0437194 65.4074384,68.9445669 65.4074384,70.0344844 L65.4074384,102.373198 L70.6860085,97.1088884 Z M74.0534045,85.5707417 C73.3157407,84.8378787 72.9928382,84.1160303 72.9928382,83.1071237 C72.9928382,82.0982171 73.3157407,81.3763687 74.0534147,80.6434956 C75.4672719,79.2390416 77.59709,79.2390416 79.0107543,80.6435057 C79.6611838,81.2897021 80.0713206,82.3084883 80.0713206,83.1071237 C80.0713206,83.9057591 79.6611838,84.9245453 79.0107543,85.5707417 C78.2732962,86.3034004 77.5469228,86.624091 76.5320794,86.624091 C75.517236,86.624091 74.7908627,86.3034004 74.0534045,85.5707417 Z M86.0303515,85.5707417 C85.3799221,84.9245453 84.9697852,83.9057591 84.9697852,83.1071237 C84.9697852,82.3084883 85.3799221,81.2897021 86.0303617,80.6434956 C87.444219,79.2390416 89.574037,79.2390416 90.9877013,80.6435057 C91.6381308,81.2897021 92.0482676,82.3084883 92.0482676,83.1071237 C92.0482676,83.9057591 91.6381308,84.9245453 90.9877013,85.5707417 C90.2502432,86.3034004 89.5238699,86.624091 88.5090264,86.624091 C87.494183,86.624091 86.7678097,86.3034004 86.0303515,85.5707417 Z M98.0072986,85.5707417 C97.3568691,84.9245453 96.9467323,83.9057591 96.9467323,83.1071237 C96.9467323,82.3084883 97.3568691,81.2897021 98.0073087,80.6434956 C99.421166,79.2390416 101.550984,79.2390416 102.964648,80.6435057 C103.615078,81.2897021 104.025215,82.3084883 104.025215,83.1071237 C104.025215,84.1160303 103.702312,84.8378787 102.964648,85.5707417 C102.22719,86.3034004 101.500817,86.624091 100.485973,86.624091 C99.47113,86.624091 98.7447567,86.3034004 98.0072986,85.5707417 Z" id="Combined-Shape"></path>
                            </g>
                        </g>
                        <g id="Group-9-Copy" style="mix-blend-mode: soft-light;" fill="url(#linearGradient-3)">
                            <g id="Group" transform="translate(32.774250, 32.306763)">
                                <path d="M103.177759,41.5179156 C106.797535,37.6112297 109.024546,32.3926289 109.024546,26.6642915 C109.024546,14.6442048 99.2182071,4.86435844 87.1655589,4.86435844 C75.1129106,4.86435844 65.3065714,14.6442048 65.3065714,26.6642915 C65.3065714,32.4032973 67.5433979,37.6305961 71.1916016,41.5270673 C73.2199288,37.5340524 76.7248149,34.3620657 81.015476,32.7573834 C77.6476223,30.7129625 75.4512228,27.062118 75.4512228,22.8271631 C75.4512228,16.4016742 80.7227322,11.1444746 87.1655589,11.1444746 C93.6083855,11.1444746 98.8798949,16.4016742 98.8798264,22.8271631 C98.8798264,27.062118 96.6834269,30.7128942 93.3155733,32.7573834 C97.6333767,34.2645369 101.155414,37.4382149 103.177759,41.5179156 Z M100.966248,43.5538569 C98.6874018,38.2147539 93.3634994,34.5097833 87.1655589,34.5097833 C80.9673377,34.5097833 75.6432339,38.2151403 73.3645606,43.5546028 C73.7001115,43.8266331 74.0456296,44.0868671 74.3967307,44.3396773 C74.5255,44.4324261 74.6542693,44.5251749 74.7854232,44.6155455 C75.209885,44.9072683 75.645475,45.1839292 76.0906035,45.4463212 C76.1875779,45.5033973 76.2853472,45.5588881 76.3831165,45.6143788 C76.8703732,45.8910398 77.3679632,46.1518463 77.8774764,46.3912492 C79.6508364,47.2117194 81.4234016,47.7769322 83.2770437,48.1106693 C83.3255309,48.1193893 83.3740181,48.1281093 83.4233002,48.1368293 C83.9987877,48.2359199 84.5806342,48.3151923 85.1696346,48.3683049 C85.2411731,48.3746467 85.3127116,48.3786103 85.385045,48.3849521 C85.9716607,48.4333083 86.5646354,48.4642246 87.1655589,48.4642246 C87.7609182,48.4642246 88.3483288,48.4333083 88.9317651,48.3865376 C89.0056882,48.3801958 89.0796113,48.3762322 89.1535344,48.3698904 C89.7377655,48.3167778 90.3148428,48.2398835 90.8847662,48.1423783 C90.9340483,48.1336584 90.9841253,48.1249384 91.0334073,48.1154257 C92.859229,47.7888231 94.6063582,47.2362938 96.2453848,46.4863761 C96.3057951,46.4586308 96.3670003,46.4324709 96.4274106,46.4039328 C96.9178468,46.1740426 97.3971548,45.9259197 97.8669243,45.6619423 C97.9837705,45.5961461 98.0998219,45.5295573 98.2158732,45.4613829 C98.6435145,45.2100892 99.0640019,44.9476972 99.4725663,44.6686581 C99.6196176,44.5687748 99.7634895,44.4633424 99.9089511,44.3587027 C100.2579,44.1082016 100.60049,43.8497733 100.933542,43.5794542 C100.944338,43.5707708 100.955253,43.5622565 100.966248,43.5538569 Z M32.7021175,1.62153609 C33.995332,1.96937614 34.7627829,3.30372015 34.4162671,4.60187686 C34.0697514,5.90003357 32.7404874,6.67041744 31.4472729,6.3225774 C20.1778325,3.29139989 8.59424612,10.0047451 5.57460866,21.3172536 C2.5549712,32.629762 9.24275789,44.257617 20.5121983,47.2887945 C31.7816387,50.319972 43.3652251,43.6066268 46.3848625,32.2941183 C46.7313783,30.9959616 48.0606423,30.2255778 49.3538568,30.5734178 C50.6470713,30.9212578 51.4145222,32.2556019 51.0680064,33.5537586 C47.3553374,47.4625805 33.1132231,55.7166934 19.2573537,51.9898358 C5.40148432,48.2629782 -2.82120424,33.9664352 0.891464775,20.0576133 C4.60413378,6.14879143 18.8462481,-2.1053215 32.7021175,1.62153609 Z M37.8517951,27.2418683 C39.0249877,27.2418683 39.9761819,28.1966977 39.9761819,29.3743738 C39.9761819,30.55205 39.0249877,31.5068793 37.8517951,31.5068793 L24.1325053,31.5068793 C22.9593127,31.5068793 22.0081185,30.55205 22.0081185,29.3743738 L22.0081185,13.2473012 C22.0081185,12.069625 22.9593127,11.1147957 24.1325053,11.1147957 C25.3056979,11.1147957 26.2568921,12.069625 26.2568921,13.2473012 L26.2568921,27.2418683 L37.8517951,27.2418683 Z M40.5247776,11.0926458 C38.9946814,11.0926458 37.7542934,9.84751747 37.7542934,8.31157379 C37.7542934,6.77563011 38.9946814,5.53050174 40.5247776,5.53050174 C42.0548737,5.53050174 43.2952617,6.77563011 43.2952617,8.31157379 C43.2952617,9.84751747 42.0548737,11.0926458 40.5247776,11.0926458 Z M46.4813228,18.1843456 C44.9512266,18.1843456 43.7108386,16.9392173 43.7108386,15.4032736 C43.7108386,13.8673299 44.9512266,12.6222015 46.4813228,12.6222015 C48.0114189,12.6222015 49.2518069,13.8673299 49.2518069,15.4032736 C49.2518069,16.9392173 48.0114189,18.1843456 46.4813228,18.1843456 Z M49.5288511,26.805686 C47.998755,26.805686 46.758367,25.5605576 46.758367,24.0246139 C46.758367,22.4886702 47.998755,21.2435419 49.5288511,21.2435419 C51.0589473,21.2435419 52.2993353,22.4886702 52.2993353,24.0246139 C52.2993353,25.5605576 51.0589473,26.805686 49.5288511,26.805686 Z M113.44384,26.7116595 C113.44384,34.3832474 110.12131,41.2943474 104.862787,46.1117234 L103.988437,46.8398095 C103.90148,46.9131899 103.805922,46.9751344 103.717054,47.0466088 C103.316668,47.3715792 102.904816,47.6822547 102.485319,47.9834003 C102.310449,48.1091952 102.13749,48.2359432 101.960709,48.3560202 C101.469544,48.6914735 100.964046,49.006914 100.449947,49.3090125 C100.310433,49.3909698 100.170919,49.4710212 100.03045,49.5501196 C99.4657057,49.867466 98.8894946,50.1657526 98.2999056,50.4421203 C98.2272819,50.4764281 98.1537028,50.5078768 98.0810791,50.5412315 C96.1106858,51.4427622 94.0103345,52.1069978 91.8153813,52.4996307 C91.7561357,52.5110666 91.6959346,52.5215495 91.636689,52.5320324 C90.9515425,52.6492505 90.2577959,52.7416907 89.5554491,52.8055412 C89.4665807,52.8131651 89.3777124,52.8179301 89.288844,52.825554 C88.5874528,52.8817806 87.8812837,52.9189473 87.1655589,52.9189473 C86.443145,52.9189473 85.7302869,52.8817806 85.0250734,52.823648 C84.9381162,52.8160241 84.8521145,52.8112591 84.7661129,52.8036352 C84.0580327,52.7397847 83.3585526,52.6444855 82.6667171,52.5253615 C82.6074715,52.5148785 82.5491815,52.5043956 82.4908915,52.4939127 C80.2624933,52.092703 78.1315635,51.4132195 75.9996782,50.4268725 C75.3871554,50.1390688 74.7889661,49.8255343 74.2031994,49.49294 C74.0856638,49.4262306 73.9681282,49.3595211 73.8515482,49.2909057 C73.3164268,48.9754652 72.7927723,48.6428709 72.2824959,48.2921697 C72.1248262,48.1835286 71.9700232,48.0720285 71.8152203,47.9605284 C71.3374333,47.6164982 70.8682466,47.2610321 70.4153046,46.8865061 C70.3598813,46.8407625 70.2996801,46.8026428 70.2442568,46.7559462 L69.4167299,46.0173772 C64.1782739,41.223826 60.8872775,34.3441747 60.8872775,26.7116595 C60.8872775,12.2614376 72.6761923,0.504371824 87.1655589,0.504371824 C101.654925,0.504371824 113.44384,12.2614376 113.44384,26.7116595 Z M78.7603085,23.0801332 C78.7603085,27.690499 82.5427039,31.4626759 87.1655589,31.4626759 C91.7884138,31.4626759 95.5708092,27.690499 95.5708092,23.0801332 C95.5708092,18.4697674 91.7884138,14.6975906 87.1655589,14.6975906 C82.5427039,14.6975906 78.7603085,18.4697674 78.7603085,23.0801332 Z M46.3531877,64.0393262 C49.6336176,64.0393262 52.2993353,66.7013748 52.2993353,69.9806756 L52.2993353,104.860425 C52.2993353,108.141057 49.6306236,110.801774 46.3394858,110.801774 L5.95984948,110.801774 C2.65005902,110.801774 0,108.151036 0,104.860425 L7.17700033e-14,69.9806756 C7.97444481e-14,66.7002617 2.66118595,64.0393262 5.94353244,64.0393262 L14.3953585,64.0393262 L14.3953585,62.7965815 C14.3953585,61.6632084 15.1867668,60.8822741 16.3316155,60.8822741 C17.476529,60.8822741 18.2678725,61.6632727 18.2678725,62.7965815 L18.2678725,64.0393262 L33.5892311,64.0393262 L33.5892311,62.7965815 C33.5892311,61.6631499 34.3805151,60.8822741 35.5254881,60.8822741 C36.6704016,60.8822741 37.4617451,61.6632727 37.4617451,62.7965815 L37.4617451,64.0393262 L46.3531877,64.0393262 Z M6.89493143,67.8677597 C5.22977245,67.8677597 3.87233013,69.2261236 3.87233013,70.8976925 L3.87233013,76.6669904 L47.9784013,76.6669904 L47.8669583,70.9041672 C47.8347264,69.2374248 46.443333,67.8677597 44.7743155,67.8677597 L37.4619289,67.8677597 L37.4619289,69.1105043 C37.4619289,70.243936 36.670645,71.0248118 35.525672,71.0248118 C34.3807585,71.0248118 33.589415,70.2438131 33.589415,69.1105043 L33.589415,67.8677597 L18.2678725,67.8677597 L18.2678725,69.1105043 C18.2678725,70.2438774 17.4764642,71.0248118 16.3316155,71.0248118 C15.186702,71.0248118 14.3953585,70.2438131 14.3953585,69.1105043 L14.3953585,67.8677597 L6.89493143,67.8677597 Z M14.6256573,91.8113976 C13.6447826,91.8113976 12.9408787,91.5027059 12.228459,90.7996571 C11.5155301,90.0961056 11.2022485,89.4004493 11.2022485,88.4306727 C11.2022485,87.4608961 11.5155301,86.7652397 12.2284705,86.061677 C13.5956214,84.7127027 15.6558896,84.7127027 17.0228555,86.0616883 C17.6525438,86.6830939 18.0490661,87.6614729 18.0490661,88.4306727 C18.0490661,89.1998724 17.6525438,90.1782514 17.0228555,90.7996571 C16.3104358,91.5027059 15.6065319,91.8113976 14.6256573,91.8113976 Z M26.0980913,91.8113976 C25.1172167,91.8113976 24.4133128,91.5027059 23.7008931,90.7996571 C23.0712048,90.1782514 22.6746825,89.1998724 22.6746825,88.4306727 C22.6746825,87.6614729 23.0712048,86.6830939 23.7009046,86.061677 C25.0680555,84.7127027 27.1283236,84.7127027 28.4952896,86.0616883 C29.1249779,86.6830939 29.5215001,87.6614729 29.5215001,88.4306727 C29.5215001,89.1998724 29.1249779,90.1782514 28.4952896,90.7996571 C27.7828699,91.5027059 27.078966,91.8113976 26.0980913,91.8113976 Z M35.1733272,90.7996571 C34.5436389,90.1782514 34.1471166,89.1998724 34.1471166,88.4306727 C34.1471166,87.6614729 34.5436389,86.6830939 35.1733386,86.061677 C36.5404895,84.7127027 38.6007577,84.7127027 39.9677237,86.0616883 C40.5974119,86.6830939 40.9939342,87.6614729 40.9939342,88.4306727 C40.9939342,89.4004493 40.6806526,90.0961056 39.9677237,90.7996571 C39.255304,91.5027059 38.5514001,91.8113976 37.5705254,91.8113976 C36.5896508,91.8113976 35.8857469,91.5027059 35.1733272,90.7996571 Z M14.6256573,102.229231 C13.6447826,102.229231 12.9408787,101.920539 12.228459,101.21749 C11.5155301,100.513939 11.2022485,99.8182822 11.2022485,98.8485056 C11.2022485,97.878729 11.5155301,97.1830726 12.2284705,96.4795099 C13.5956214,95.1305357 15.6558896,95.1305357 17.0228555,96.4795212 C17.6525438,97.1009269 18.0490661,98.0793059 18.0490661,98.8485056 C18.0490661,99.6177054 17.6525438,100.596084 17.0228555,101.21749 C16.3104358,101.920539 15.6065319,102.229231 14.6256573,102.229231 Z M26.0980913,102.229231 C25.1172167,102.229231 24.4133128,101.920539 23.7008931,101.21749 C23.0712048,100.596084 22.6746825,99.6177054 22.6746825,98.8485056 C22.6746825,98.0793059 23.0712048,97.1009269 23.7009046,96.4795099 C25.0680555,95.1305357 27.1283236,95.1305357 28.4952896,96.4795212 C29.1249779,97.1009269 29.5215001,98.0793059 29.5215001,98.8485056 C29.5215001,99.6177054 29.1249779,100.596084 28.4952896,101.21749 C27.7828699,101.920539 27.078966,102.229231 26.0980913,102.229231 Z M35.1733272,101.21749 C34.5436389,100.596084 34.1471166,99.6177054 34.1471166,98.8485056 C34.1471166,98.0793059 34.5436389,97.1009269 35.1733386,96.4795099 C36.5404895,95.1305357 38.6007577,95.1305357 39.9677237,96.4795212 C40.5974119,97.1009269 40.9939342,98.0793059 40.9939342,98.8485056 C40.9939342,99.8182822 40.6806526,100.513939 39.9677237,101.21749 C39.255304,101.920539 38.5514001,102.229231 37.5705254,102.229231 C36.5896508,102.229231 35.8857469,101.920539 35.1733272,101.21749 Z M3.87233013,103.952833 C3.87233013,105.623753 5.22711865,106.973341 6.90186889,106.973341 L44.9554186,106.973341 C46.6394707,106.973341 47.9849459,105.627133 47.9849346,103.952836 L47.9847758,80.4954239 L3.87233013,80.4954239 L3.87233013,103.952833 Z M61.0158912,112.946688 L61.0158912,70.0344844 C61.0158912,66.5257347 63.8853417,63.6640364 67.4035963,63.6640364 L106.927521,63.6640364 C110.445776,63.6640364 113.315227,66.5257347 113.315227,70.0344844 L113.315227,95.1181234 C113.315227,98.626873 110.445776,101.488571 106.927521,101.488571 L72.505047,101.488571 L61.0158912,112.946688 Z M70.6860085,97.1088884 L106.927521,97.1088884 C108.020391,97.1088884 108.923679,96.2080409 108.923679,95.1181234 L108.923679,70.0344844 C108.923679,68.9445669 108.020391,68.0437194 106.927521,68.0437194 L67.4035963,68.0437194 C66.3107263,68.0437194 65.4074384,68.9445669 65.4074384,70.0344844 L65.4074384,102.373198 L70.6860085,97.1088884 Z M74.0534045,85.5707417 C73.3157407,84.8378787 72.9928382,84.1160303 72.9928382,83.1071237 C72.9928382,82.0982171 73.3157407,81.3763687 74.0534147,80.6434956 C75.4672719,79.2390416 77.59709,79.2390416 79.0107543,80.6435057 C79.6611838,81.2897021 80.0713206,82.3084883 80.0713206,83.1071237 C80.0713206,83.9057591 79.6611838,84.9245453 79.0107543,85.5707417 C78.2732962,86.3034004 77.5469228,86.624091 76.5320794,86.624091 C75.517236,86.624091 74.7908627,86.3034004 74.0534045,85.5707417 Z M86.0303515,85.5707417 C85.3799221,84.9245453 84.9697852,83.9057591 84.9697852,83.1071237 C84.9697852,82.3084883 85.3799221,81.2897021 86.0303617,80.6434956 C87.444219,79.2390416 89.574037,79.2390416 90.9877013,80.6435057 C91.6381308,81.2897021 92.0482676,82.3084883 92.0482676,83.1071237 C92.0482676,83.9057591 91.6381308,84.9245453 90.9877013,85.5707417 C90.2502432,86.3034004 89.5238699,86.624091 88.5090264,86.624091 C87.494183,86.624091 86.7678097,86.3034004 86.0303515,85.5707417 Z M98.0072986,85.5707417 C97.3568691,84.9245453 96.9467323,83.9057591 96.9467323,83.1071237 C96.9467323,82.3084883 97.3568691,81.2897021 98.0073087,80.6434956 C99.421166,79.2390416 101.550984,79.2390416 102.964648,80.6435057 C103.615078,81.2897021 104.025215,82.3084883 104.025215,83.1071237 C104.025215,84.1160303 103.702312,84.8378787 102.964648,85.5707417 C102.22719,86.3034004 101.500817,86.624091 100.485973,86.624091 C99.47113,86.624091 98.7447567,86.3034004 98.0072986,85.5707417 Z" id="Combined-Shape"></path>
                            </g>
                        </g>
                        <g id="Group-9-Copy-2" style="mix-blend-mode: darken;" fill="#FFFFFF">
                            <g id="Group" transform="translate(32.774250, 32.306763)">
                                <path d="M103.177759,41.5179156 C106.797535,37.6112297 109.024546,32.3926289 109.024546,26.6642915 C109.024546,14.6442048 99.2182071,4.86435844 87.1655589,4.86435844 C75.1129106,4.86435844 65.3065714,14.6442048 65.3065714,26.6642915 C65.3065714,32.4032973 67.5433979,37.6305961 71.1916016,41.5270673 C73.2199288,37.5340524 76.7248149,34.3620657 81.015476,32.7573834 C77.6476223,30.7129625 75.4512228,27.062118 75.4512228,22.8271631 C75.4512228,16.4016742 80.7227322,11.1444746 87.1655589,11.1444746 C93.6083855,11.1444746 98.8798949,16.4016742 98.8798264,22.8271631 C98.8798264,27.062118 96.6834269,30.7128942 93.3155733,32.7573834 C97.6333767,34.2645369 101.155414,37.4382149 103.177759,41.5179156 Z M100.966248,43.5538569 C98.6874018,38.2147539 93.3634994,34.5097833 87.1655589,34.5097833 C80.9673377,34.5097833 75.6432339,38.2151403 73.3645606,43.5546028 C73.7001115,43.8266331 74.0456296,44.0868671 74.3967307,44.3396773 C74.5255,44.4324261 74.6542693,44.5251749 74.7854232,44.6155455 C75.209885,44.9072683 75.645475,45.1839292 76.0906035,45.4463212 C76.1875779,45.5033973 76.2853472,45.5588881 76.3831165,45.6143788 C76.8703732,45.8910398 77.3679632,46.1518463 77.8774764,46.3912492 C79.6508364,47.2117194 81.4234016,47.7769322 83.2770437,48.1106693 C83.3255309,48.1193893 83.3740181,48.1281093 83.4233002,48.1368293 C83.9987877,48.2359199 84.5806342,48.3151923 85.1696346,48.3683049 C85.2411731,48.3746467 85.3127116,48.3786103 85.385045,48.3849521 C85.9716607,48.4333083 86.5646354,48.4642246 87.1655589,48.4642246 C87.7609182,48.4642246 88.3483288,48.4333083 88.9317651,48.3865376 C89.0056882,48.3801958 89.0796113,48.3762322 89.1535344,48.3698904 C89.7377655,48.3167778 90.3148428,48.2398835 90.8847662,48.1423783 C90.9340483,48.1336584 90.9841253,48.1249384 91.0334073,48.1154257 C92.859229,47.7888231 94.6063582,47.2362938 96.2453848,46.4863761 C96.3057951,46.4586308 96.3670003,46.4324709 96.4274106,46.4039328 C96.9178468,46.1740426 97.3971548,45.9259197 97.8669243,45.6619423 C97.9837705,45.5961461 98.0998219,45.5295573 98.2158732,45.4613829 C98.6435145,45.2100892 99.0640019,44.9476972 99.4725663,44.6686581 C99.6196176,44.5687748 99.7634895,44.4633424 99.9089511,44.3587027 C100.2579,44.1082016 100.60049,43.8497733 100.933542,43.5794542 C100.944338,43.5707708 100.955253,43.5622565 100.966248,43.5538569 Z M32.7021175,1.62153609 C33.995332,1.96937614 34.7627829,3.30372015 34.4162671,4.60187686 C34.0697514,5.90003357 32.7404874,6.67041744 31.4472729,6.3225774 C20.1778325,3.29139989 8.59424612,10.0047451 5.57460866,21.3172536 C2.5549712,32.629762 9.24275789,44.257617 20.5121983,47.2887945 C31.7816387,50.319972 43.3652251,43.6066268 46.3848625,32.2941183 C46.7313783,30.9959616 48.0606423,30.2255778 49.3538568,30.5734178 C50.6470713,30.9212578 51.4145222,32.2556019 51.0680064,33.5537586 C47.3553374,47.4625805 33.1132231,55.7166934 19.2573537,51.9898358 C5.40148432,48.2629782 -2.82120424,33.9664352 0.891464775,20.0576133 C4.60413378,6.14879143 18.8462481,-2.1053215 32.7021175,1.62153609 Z M37.8517951,27.2418683 C39.0249877,27.2418683 39.9761819,28.1966977 39.9761819,29.3743738 C39.9761819,30.55205 39.0249877,31.5068793 37.8517951,31.5068793 L24.1325053,31.5068793 C22.9593127,31.5068793 22.0081185,30.55205 22.0081185,29.3743738 L22.0081185,13.2473012 C22.0081185,12.069625 22.9593127,11.1147957 24.1325053,11.1147957 C25.3056979,11.1147957 26.2568921,12.069625 26.2568921,13.2473012 L26.2568921,27.2418683 L37.8517951,27.2418683 Z M40.5247776,11.0926458 C38.9946814,11.0926458 37.7542934,9.84751747 37.7542934,8.31157379 C37.7542934,6.77563011 38.9946814,5.53050174 40.5247776,5.53050174 C42.0548737,5.53050174 43.2952617,6.77563011 43.2952617,8.31157379 C43.2952617,9.84751747 42.0548737,11.0926458 40.5247776,11.0926458 Z M46.4813228,18.1843456 C44.9512266,18.1843456 43.7108386,16.9392173 43.7108386,15.4032736 C43.7108386,13.8673299 44.9512266,12.6222015 46.4813228,12.6222015 C48.0114189,12.6222015 49.2518069,13.8673299 49.2518069,15.4032736 C49.2518069,16.9392173 48.0114189,18.1843456 46.4813228,18.1843456 Z M49.5288511,26.805686 C47.998755,26.805686 46.758367,25.5605576 46.758367,24.0246139 C46.758367,22.4886702 47.998755,21.2435419 49.5288511,21.2435419 C51.0589473,21.2435419 52.2993353,22.4886702 52.2993353,24.0246139 C52.2993353,25.5605576 51.0589473,26.805686 49.5288511,26.805686 Z M113.44384,26.7116595 C113.44384,34.3832474 110.12131,41.2943474 104.862787,46.1117234 L103.988437,46.8398095 C103.90148,46.9131899 103.805922,46.9751344 103.717054,47.0466088 C103.316668,47.3715792 102.904816,47.6822547 102.485319,47.9834003 C102.310449,48.1091952 102.13749,48.2359432 101.960709,48.3560202 C101.469544,48.6914735 100.964046,49.006914 100.449947,49.3090125 C100.310433,49.3909698 100.170919,49.4710212 100.03045,49.5501196 C99.4657057,49.867466 98.8894946,50.1657526 98.2999056,50.4421203 C98.2272819,50.4764281 98.1537028,50.5078768 98.0810791,50.5412315 C96.1106858,51.4427622 94.0103345,52.1069978 91.8153813,52.4996307 C91.7561357,52.5110666 91.6959346,52.5215495 91.636689,52.5320324 C90.9515425,52.6492505 90.2577959,52.7416907 89.5554491,52.8055412 C89.4665807,52.8131651 89.3777124,52.8179301 89.288844,52.825554 C88.5874528,52.8817806 87.8812837,52.9189473 87.1655589,52.9189473 C86.443145,52.9189473 85.7302869,52.8817806 85.0250734,52.823648 C84.9381162,52.8160241 84.8521145,52.8112591 84.7661129,52.8036352 C84.0580327,52.7397847 83.3585526,52.6444855 82.6667171,52.5253615 C82.6074715,52.5148785 82.5491815,52.5043956 82.4908915,52.4939127 C80.2624933,52.092703 78.1315635,51.4132195 75.9996782,50.4268725 C75.3871554,50.1390688 74.7889661,49.8255343 74.2031994,49.49294 C74.0856638,49.4262306 73.9681282,49.3595211 73.8515482,49.2909057 C73.3164268,48.9754652 72.7927723,48.6428709 72.2824959,48.2921697 C72.1248262,48.1835286 71.9700232,48.0720285 71.8152203,47.9605284 C71.3374333,47.6164982 70.8682466,47.2610321 70.4153046,46.8865061 C70.3598813,46.8407625 70.2996801,46.8026428 70.2442568,46.7559462 L69.4167299,46.0173772 C64.1782739,41.223826 60.8872775,34.3441747 60.8872775,26.7116595 C60.8872775,12.2614376 72.6761923,0.504371824 87.1655589,0.504371824 C101.654925,0.504371824 113.44384,12.2614376 113.44384,26.7116595 Z M78.7603085,23.0801332 C78.7603085,27.690499 82.5427039,31.4626759 87.1655589,31.4626759 C91.7884138,31.4626759 95.5708092,27.690499 95.5708092,23.0801332 C95.5708092,18.4697674 91.7884138,14.6975906 87.1655589,14.6975906 C82.5427039,14.6975906 78.7603085,18.4697674 78.7603085,23.0801332 Z M46.3531877,64.0393262 C49.6336176,64.0393262 52.2993353,66.7013748 52.2993353,69.9806756 L52.2993353,104.860425 C52.2993353,108.141057 49.6306236,110.801774 46.3394858,110.801774 L5.95984948,110.801774 C2.65005902,110.801774 0,108.151036 0,104.860425 L7.17700033e-14,69.9806756 C7.97444481e-14,66.7002617 2.66118595,64.0393262 5.94353244,64.0393262 L14.3953585,64.0393262 L14.3953585,62.7965815 C14.3953585,61.6632084 15.1867668,60.8822741 16.3316155,60.8822741 C17.476529,60.8822741 18.2678725,61.6632727 18.2678725,62.7965815 L18.2678725,64.0393262 L33.5892311,64.0393262 L33.5892311,62.7965815 C33.5892311,61.6631499 34.3805151,60.8822741 35.5254881,60.8822741 C36.6704016,60.8822741 37.4617451,61.6632727 37.4617451,62.7965815 L37.4617451,64.0393262 L46.3531877,64.0393262 Z M6.89493143,67.8677597 C5.22977245,67.8677597 3.87233013,69.2261236 3.87233013,70.8976925 L3.87233013,76.6669904 L47.9784013,76.6669904 L47.8669583,70.9041672 C47.8347264,69.2374248 46.443333,67.8677597 44.7743155,67.8677597 L37.4619289,67.8677597 L37.4619289,69.1105043 C37.4619289,70.243936 36.670645,71.0248118 35.525672,71.0248118 C34.3807585,71.0248118 33.589415,70.2438131 33.589415,69.1105043 L33.589415,67.8677597 L18.2678725,67.8677597 L18.2678725,69.1105043 C18.2678725,70.2438774 17.4764642,71.0248118 16.3316155,71.0248118 C15.186702,71.0248118 14.3953585,70.2438131 14.3953585,69.1105043 L14.3953585,67.8677597 L6.89493143,67.8677597 Z M14.6256573,91.8113976 C13.6447826,91.8113976 12.9408787,91.5027059 12.228459,90.7996571 C11.5155301,90.0961056 11.2022485,89.4004493 11.2022485,88.4306727 C11.2022485,87.4608961 11.5155301,86.7652397 12.2284705,86.061677 C13.5956214,84.7127027 15.6558896,84.7127027 17.0228555,86.0616883 C17.6525438,86.6830939 18.0490661,87.6614729 18.0490661,88.4306727 C18.0490661,89.1998724 17.6525438,90.1782514 17.0228555,90.7996571 C16.3104358,91.5027059 15.6065319,91.8113976 14.6256573,91.8113976 Z M26.0980913,91.8113976 C25.1172167,91.8113976 24.4133128,91.5027059 23.7008931,90.7996571 C23.0712048,90.1782514 22.6746825,89.1998724 22.6746825,88.4306727 C22.6746825,87.6614729 23.0712048,86.6830939 23.7009046,86.061677 C25.0680555,84.7127027 27.1283236,84.7127027 28.4952896,86.0616883 C29.1249779,86.6830939 29.5215001,87.6614729 29.5215001,88.4306727 C29.5215001,89.1998724 29.1249779,90.1782514 28.4952896,90.7996571 C27.7828699,91.5027059 27.078966,91.8113976 26.0980913,91.8113976 Z M35.1733272,90.7996571 C34.5436389,90.1782514 34.1471166,89.1998724 34.1471166,88.4306727 C34.1471166,87.6614729 34.5436389,86.6830939 35.1733386,86.061677 C36.5404895,84.7127027 38.6007577,84.7127027 39.9677237,86.0616883 C40.5974119,86.6830939 40.9939342,87.6614729 40.9939342,88.4306727 C40.9939342,89.4004493 40.6806526,90.0961056 39.9677237,90.7996571 C39.255304,91.5027059 38.5514001,91.8113976 37.5705254,91.8113976 C36.5896508,91.8113976 35.8857469,91.5027059 35.1733272,90.7996571 Z M14.6256573,102.229231 C13.6447826,102.229231 12.9408787,101.920539 12.228459,101.21749 C11.5155301,100.513939 11.2022485,99.8182822 11.2022485,98.8485056 C11.2022485,97.878729 11.5155301,97.1830726 12.2284705,96.4795099 C13.5956214,95.1305357 15.6558896,95.1305357 17.0228555,96.4795212 C17.6525438,97.1009269 18.0490661,98.0793059 18.0490661,98.8485056 C18.0490661,99.6177054 17.6525438,100.596084 17.0228555,101.21749 C16.3104358,101.920539 15.6065319,102.229231 14.6256573,102.229231 Z M26.0980913,102.229231 C25.1172167,102.229231 24.4133128,101.920539 23.7008931,101.21749 C23.0712048,100.596084 22.6746825,99.6177054 22.6746825,98.8485056 C22.6746825,98.0793059 23.0712048,97.1009269 23.7009046,96.4795099 C25.0680555,95.1305357 27.1283236,95.1305357 28.4952896,96.4795212 C29.1249779,97.1009269 29.5215001,98.0793059 29.5215001,98.8485056 C29.5215001,99.6177054 29.1249779,100.596084 28.4952896,101.21749 C27.7828699,101.920539 27.078966,102.229231 26.0980913,102.229231 Z M35.1733272,101.21749 C34.5436389,100.596084 34.1471166,99.6177054 34.1471166,98.8485056 C34.1471166,98.0793059 34.5436389,97.1009269 35.1733386,96.4795099 C36.5404895,95.1305357 38.6007577,95.1305357 39.9677237,96.4795212 C40.5974119,97.1009269 40.9939342,98.0793059 40.9939342,98.8485056 C40.9939342,99.8182822 40.6806526,100.513939 39.9677237,101.21749 C39.255304,101.920539 38.5514001,102.229231 37.5705254,102.229231 C36.5896508,102.229231 35.8857469,101.920539 35.1733272,101.21749 Z M3.87233013,103.952833 C3.87233013,105.623753 5.22711865,106.973341 6.90186889,106.973341 L44.9554186,106.973341 C46.6394707,106.973341 47.9849459,105.627133 47.9849346,103.952836 L47.9847758,80.4954239 L3.87233013,80.4954239 L3.87233013,103.952833 Z M61.0158912,112.946688 L61.0158912,70.0344844 C61.0158912,66.5257347 63.8853417,63.6640364 67.4035963,63.6640364 L106.927521,63.6640364 C110.445776,63.6640364 113.315227,66.5257347 113.315227,70.0344844 L113.315227,95.1181234 C113.315227,98.626873 110.445776,101.488571 106.927521,101.488571 L72.505047,101.488571 L61.0158912,112.946688 Z M70.6860085,97.1088884 L106.927521,97.1088884 C108.020391,97.1088884 108.923679,96.2080409 108.923679,95.1181234 L108.923679,70.0344844 C108.923679,68.9445669 108.020391,68.0437194 106.927521,68.0437194 L67.4035963,68.0437194 C66.3107263,68.0437194 65.4074384,68.9445669 65.4074384,70.0344844 L65.4074384,102.373198 L70.6860085,97.1088884 Z M74.0534045,85.5707417 C73.3157407,84.8378787 72.9928382,84.1160303 72.9928382,83.1071237 C72.9928382,82.0982171 73.3157407,81.3763687 74.0534147,80.6434956 C75.4672719,79.2390416 77.59709,79.2390416 79.0107543,80.6435057 C79.6611838,81.2897021 80.0713206,82.3084883 80.0713206,83.1071237 C80.0713206,83.9057591 79.6611838,84.9245453 79.0107543,85.5707417 C78.2732962,86.3034004 77.5469228,86.624091 76.5320794,86.624091 C75.517236,86.624091 74.7908627,86.3034004 74.0534045,85.5707417 Z M86.0303515,85.5707417 C85.3799221,84.9245453 84.9697852,83.9057591 84.9697852,83.1071237 C84.9697852,82.3084883 85.3799221,81.2897021 86.0303617,80.6434956 C87.444219,79.2390416 89.574037,79.2390416 90.9877013,80.6435057 C91.6381308,81.2897021 92.0482676,82.3084883 92.0482676,83.1071237 C92.0482676,83.9057591 91.6381308,84.9245453 90.9877013,85.5707417 C90.2502432,86.3034004 89.5238699,86.624091 88.5090264,86.624091 C87.494183,86.624091 86.7678097,86.3034004 86.0303515,85.5707417 Z M98.0072986,85.5707417 C97.3568691,84.9245453 96.9467323,83.9057591 96.9467323,83.1071237 C96.9467323,82.3084883 97.3568691,81.2897021 98.0073087,80.6434956 C99.421166,79.2390416 101.550984,79.2390416 102.964648,80.6435057 C103.615078,81.2897021 104.025215,82.3084883 104.025215,83.1071237 C104.025215,84.1160303 103.702312,84.8378787 102.964648,85.5707417 C102.22719,86.3034004 101.500817,86.624091 100.485973,86.624091 C99.47113,86.624091 98.7447567,86.3034004 98.0072986,85.5707417 Z" id="Combined-Shape"></path>
                            </g>
                        </g>
                    </g>
                </g>
            </g>
        </g>
    </g>
</svg>