<?xml version="1.0" encoding="UTF-8"?>
<svg width="15px" height="15px" viewBox="0 0 15 15" version="1.1" xmlns="http://www.w3.org/2000/svg" xmlns:xlink="http://www.w3.org/1999/xlink">
    <!-- Generator: Sketch 43.2 (39069) - http://www.bohemiancoding.com/sketch -->
    <title>svg_Attendance</title>
    <desc>Created with Sketch.</desc>
    <defs></defs>
    <g id="Symbols" stroke="none" stroke-width="1" fill="none" fill-rule="evenodd">
        <g id="SVG/Attendance" transform="translate(-9.000000, -9.000000)" fill-rule="nonzero" fill="#15A9C7">
            <path d="M18.0666679,9.24877542 C18.4252118,9.34547538 18.6379877,9.71642465 18.5419162,10.0773138 C18.4458446,10.438203 18.0773059,10.6523706 17.718762,10.5556707 C14.5943076,9.7129996 11.3827563,11.5793178 10.5455612,14.7242091 C9.70836622,17.8691003 11.5625563,21.1016583 14.6870106,21.9443293 C17.811465,22.7870004 21.0230164,20.9206822 21.8602114,17.7757909 C21.9562829,17.4149018 22.3248216,17.2007341 22.6833656,17.2974341 C23.0419095,17.394134 23.2546854,17.7650833 23.1586138,18.1259725 C22.1292757,21.992642 18.180647,24.2872956 14.3391047,23.2512246 C10.4975625,22.2151536 8.21782063,18.2406971 9.24715877,14.3740275 C10.2764969,10.507358 14.2251256,8.21270443 18.0666679,9.24877542 Z M19.4944169,16.3712592 C19.8196848,16.3712592 20.0834035,16.636703 20.0834035,16.9640984 C20.0834035,17.2914938 19.8196848,17.5569375 19.4944169,17.5569375 L15.6907414,17.5569375 C15.3654735,17.5569375 15.1017548,17.2914938 15.1017548,16.9640984 L15.1017548,12.4807524 C15.1017548,12.153357 15.3654735,11.8879132 15.6907414,11.8879132 C16.0160092,11.8879132 16.279728,12.153357 16.279728,12.4807524 L16.279728,16.3712592 L19.4944169,16.3712592 Z M20.2355018,11.8817556 C19.8112823,11.8817556 19.4673845,11.5356083 19.4673845,11.1086141 C19.4673845,10.6816199 19.8112823,10.3354727 20.2355018,10.3354727 C20.6597212,10.3354727 21.003619,10.6816199 21.003619,11.1086141 C21.003619,11.5356083 20.6597212,11.8817556 20.2355018,11.8817556 Z M21.886955,13.8532568 C21.4627356,13.8532568 21.1188378,13.5071096 21.1188378,13.0801154 C21.1188378,12.6531211 21.4627356,12.3069739 21.886955,12.3069739 C22.3111744,12.3069739 22.6550722,12.6531211 22.6550722,13.0801154 C22.6550722,13.5071096 22.3111744,13.8532568 21.886955,13.8532568 Z M22.7318828,16.25 C22.3076633,16.25 21.9637655,15.9038528 21.9637655,15.4768586 C21.9637655,15.0498643 22.3076633,14.7037171 22.7318828,14.7037171 C23.1561022,14.7037171 23.5,15.0498643 23.5,15.4768586 C23.5,15.9038528 23.1561022,16.25 22.7318828,16.25 Z" id="svg_Attendance"></path>
        </g>
    </g>
</svg>