<?xml version="1.0" encoding="UTF-8"?>
<svg width="19px" height="13px" viewBox="0 0 19 13" version="1.1" xmlns="http://www.w3.org/2000/svg" xmlns:xlink="http://www.w3.org/1999/xlink">
    <!-- Generator: Sketch 43.2 (39069) - http://www.bohemiancoding.com/sketch -->
    <title>svg_MedicalCard</title>
    <desc>Created with Sketch.</desc>
    <defs></defs>
    <g id="Symbols" stroke="none" stroke-width="1" fill="none" fill-rule="evenodd">
        <g id="SVG/Medical-Card" transform="translate(-7.000000, -10.000000)" fill-rule="nonzero" fill="#15A9C7">
            <g id="svg_MedicalCard" transform="translate(8.000000, 10.000000)">
                <path d="M16.0363921,0.5 L0.908339207,0.5 C0.407475771,0.5 0,0.947016501 0,1.49655821 L0,11.4623048 C0,12.0118465 0.407475771,12.458863 0.908339207,12.458863 L16.0363921,12.458863 C16.5372555,12.458863 16.9447313,12.0118465 16.9447313,11.4623048 L16.9447313,1.49655821 C16.9448062,0.947016501 16.5372555,0.5 16.0363921,0.5 Z M16.036467,11.7944635 L0.908339207,11.7944635 C0.741035242,11.7944635 0.605185022,11.6454032 0.605185022,11.4623048 L0.605185022,1.49655821 C0.605185022,1.31345986 0.741110132,1.16439955 0.908339207,1.16439955 L16.0363172,1.16439955 C16.2036211,1.16439955 16.3394714,1.31345986 16.3394714,1.49655821 L16.3394714,11.4623048 C16.3396211,11.6454032 16.203696,11.7944635 16.036467,11.7944635 Z" id="Shape" stroke="#15A9C7" stroke-width="0.4"></path>
                <path d="M9,4.5 L14.9779736,4.5 L14.9779736,5.10884247 L9,5.10884247 L9,4.5 Z M9,6.5 L14.9779736,6.5 L14.9779736,7.10884247 L9,7.10884247 L9,6.5 Z M9,8.44523973 L14.9779736,8.44523973 L14.9779736,9.05408219 L9,9.05408219 L9,8.44523973 Z M4.90191151,3.92741187 C6.55004787,3.92741187 7.8908983,5.25781313 7.8908983,6.89290114 C7.8908983,8.52798915 6.5499554,9.85839041 4.90191151,9.85839041 C3.25386763,9.85839041 1.91292473,8.52798915 1.91292473,6.89290114 C1.91292473,5.25781313 3.25377516,3.92741187 4.90191151,3.92741187 Z M4.90191151,9.1170869 C6.13808313,9.1170869 7.14362848,8.11944651 7.14362848,6.89299289 C7.14362848,5.66653926 6.13808313,4.66889887 4.90191151,4.66889887 C3.66573989,4.66889887 2.66019454,5.66653926 2.66019454,6.89299289 C2.66019454,8.11944651 3.66573989,9.1170869 4.90191151,9.1170869 Z" id="Combined-Shape"></path>
                <polygon id="Shape" points="5.25556454 5.41020238 4.49000164 5.41020238 4.49000164 6.52224939 3.40746436 6.52224939 3.40746436 7.26364464 4.49000164 7.26364464 4.49000164 8.37569165 5.25556454 8.37569165 5.25556454 7.26364464 6.39645114 7.26364464 6.39645114 6.52224939 5.25556454 6.52224939"></polygon>
            </g>
        </g>
    </g>
</svg>