<?xml version="1.0" encoding="UTF-8"?>
<svg width="19px" height="17px" viewBox="0 0 19 17" version="1.1" xmlns="http://www.w3.org/2000/svg" xmlns:xlink="http://www.w3.org/1999/xlink">
    <!-- Generator: Sketch 43.2 (39069) - http://www.bohemiancoding.com/sketch -->
    <title>svg_MeetingRoom</title>
    <desc>Created with Sketch.</desc>
    <defs></defs>
    <g id="Symbols" stroke="none" stroke-width="1" fill="none" fill-rule="evenodd">
        <g id="SVG/Meeting-Room" transform="translate(-7.000000, -9.000000)" stroke="#15A9C7" stroke-width="0.4" fill="#15A9C7" fill-rule="nonzero">
            <path d="M24.5001059,12.8087826 C24.7036952,12.8087826 24.868745,12.6422869 24.868745,12.4367882 L24.868745,10.3719943 C24.868745,10.166552 24.7036952,10 24.5001059,10 L8.48988743,10 C8.28629813,10 8.12124836,10.166552 8.12124836,10.3719943 L8.12124836,12.4367882 C8.12124836,12.6422869 8.28629813,12.8087826 8.48988743,12.8087826 L9.12796816,12.8087826 L9.12796816,20.6715025 L8.48988743,20.6715025 C8.28629813,20.6715025 8.12124836,20.8379981 8.12124836,21.0434968 C8.12124836,21.2489955 8.28629813,21.4154911 8.48988743,21.4154911 L16.1263576,21.4154911 L16.1263576,22.6156237 C15.6559518,22.7722558 15.3154075,23.2196635 15.3154075,23.7461482 C15.3154075,24.4024927 15.8445721,24.9364737 16.4949967,24.9364737 C17.1454212,24.9364737 17.6745859,24.4024927 17.6745859,23.7461482 C17.6745859,23.2197199 17.3339857,22.7721995 16.8636357,22.6156237 L16.8636357,21.4154911 L24.5001059,21.4154911 C24.7036952,21.4154911 24.868745,21.2489955 24.868745,21.0434968 C24.868745,20.8379981 24.7036952,20.6715025 24.5001059,20.6715025 L23.8620252,20.6715025 L23.8620252,12.8087826 L24.5001059,12.8087826 Z M16.9373077,23.7462046 C16.9373077,23.9922845 16.738857,24.1925414 16.4949967,24.1925414 C16.2511363,24.1925414 16.0526856,23.9922845 16.0526856,23.7462046 C16.0526856,23.5000684 16.2511363,23.2998114 16.4949967,23.2998114 C16.7389129,23.2998114 16.9373077,23.5000684 16.9373077,23.7462046 Z M23.124747,20.6715025 L9.86524631,20.6715025 L9.86524631,12.8087826 L23.124747,12.8087826 L23.124747,20.6715025 Z M8.85852651,12.0647939 L8.85852651,10.7439886 L24.1314668,10.7439886 L24.1314668,12.0647939 L8.85852651,12.0647939 Z" id="svg_MeetingRoom"></path>
        </g>
    </g>
</svg>