<?xml version="1.0" encoding="UTF-8"?>
<svg width="33px" height="32px" viewBox="0 0 33 32" version="1.1" xmlns="http://www.w3.org/2000/svg" xmlns:xlink="http://www.w3.org/1999/xlink">
    <!-- Generator: Sketch 43.2 (39069) - http://www.bohemiancoding.com/sketch -->
    <title>nav_Timesheet</title>
    <desc>Created with Sketch.</desc>
    <defs></defs>
    <g id="Symbols" stroke="none" stroke-width="1" fill="none" fill-rule="evenodd">
        <g id="Nav/Timesheet" transform="translate(-30.000000, -4.000000)">
            <g id="Timesheet">
                <g transform="translate(30.279227, 4.000000)">
                    <path d="M25.3839503,6.41031584 C26.8454224,6.41031584 28.0330325,7.59950411 28.0330325,9.0644308 L28.0330325,24.645885 C28.0330325,26.1114064 26.8440885,27.3 25.377846,27.3 L7.38821912,27.3 C5.91366657,27.3 4.73303254,26.1158641 4.73303254,24.645885 L4.73303254,9.0644308 C4.73303254,7.59900687 5.91862376,6.41031584 7.38094967,6.41031584 L11.1463426,6.41031584 L11.1463426,5.85515792 C11.1463426,5.34885838 11.4989248,5 12.008969,5 C12.5190421,5 12.8715954,5.34888711 12.8715954,5.85515792 L12.8715954,6.41031584 L19.69745,6.41031584 L19.69745,5.85515792 C19.69745,5.34883222 20.0499768,5 20.5600764,5 C21.0701495,5 21.4227028,5.34888711 21.4227028,5.85515792 L21.4227028,6.41031584 L25.3839503,6.41031584 Z M7.80480968,8.12055064 C7.06296078,8.12055064 6.45820346,8.72735789 6.45820346,9.47407985 L6.45820346,12.0513361 L26.108003,12.0513361 L26.0583538,9.47697222 C26.0439941,8.73240635 25.4241112,8.12055064 24.6805432,8.12055064 L21.4227847,8.12055064 L21.4227847,8.67570856 C21.4227847,9.18203426 21.0702579,9.53086648 20.5601583,9.53086648 C20.0500852,9.53086648 19.6975319,9.18197937 19.6975319,8.67570856 L19.6975319,8.12055064 L12.8715954,8.12055064 L12.8715954,8.67570856 C12.8715954,9.18200811 12.5190133,9.53086648 12.008969,9.53086648 C11.4988959,9.53086648 11.1463426,9.18197937 11.1463426,8.67570856 L11.1463426,8.12055064 L7.80480968,8.12055064 Z M11.2489435,18.8166338 C10.8119518,18.8166338 10.4983539,18.6787352 10.1809621,18.3646698 C9.86334347,18.0503799 9.72377263,17.7396168 9.72377263,17.306399 C9.72377263,16.8731811 9.86334347,16.5624181 10.1809672,16.2481231 C10.7900498,15.6455104 11.7079248,15.6455104 12.316925,16.2481281 C12.5974589,16.525722 12.7741145,16.9627827 12.7741145,17.306399 C12.7741145,17.6500153 12.5974589,18.087076 12.316925,18.3646698 C11.9995332,18.6787352 11.6859353,18.8166338 11.2489435,18.8166338 Z M16.3600547,18.8166338 C15.9230629,18.8166338 15.609465,18.6787352 15.2920732,18.3646698 C15.0115393,18.087076 14.8348837,17.6500153 14.8348837,17.306399 C14.8348837,16.9627827 15.0115393,16.525722 15.2920783,16.2481231 C15.9011609,15.6455104 16.8190359,15.6455104 17.4280361,16.2481281 C17.70857,16.525722 17.8852256,16.9627827 17.8852256,17.306399 C17.8852256,17.6500153 17.70857,18.087076 17.4280361,18.3646698 C17.1106443,18.6787352 16.7970464,18.8166338 16.3600547,18.8166338 Z M20.4031843,18.3646698 C20.1226504,18.087076 19.9459949,17.6500153 19.9459949,17.306399 C19.9459949,16.9627827 20.1226504,16.525722 20.4031894,16.2481231 C21.0122721,15.6455104 21.930147,15.6455104 22.5391472,16.2481281 C22.8196811,16.525722 22.9963367,16.9627827 22.9963367,17.306399 C22.9963367,17.7396168 22.8567658,18.0503799 22.5391472,18.3646698 C22.2217554,18.6787352 21.9081575,18.8166338 21.4711658,18.8166338 C21.034174,18.8166338 20.7205761,18.6787352 20.4031843,18.3646698 Z M11.2489435,23.4704799 C10.8119518,23.4704799 10.4983539,23.3325814 10.1809621,23.018516 C9.86334347,22.704226 9.72377263,22.393463 9.72377263,21.9602451 C9.72377263,21.5270273 9.86334347,21.2162642 10.1809672,20.9019692 C10.7900498,20.2993565 11.7079248,20.2993565 12.316925,20.9019743 C12.5974589,21.1795681 12.7741145,21.6166288 12.7741145,21.9602451 C12.7741145,22.3038614 12.5974589,22.7409221 12.316925,23.018516 C11.9995332,23.3325814 11.6859353,23.4704799 11.2489435,23.4704799 Z M16.3600547,23.4704799 C15.9230629,23.4704799 15.609465,23.3325814 15.2920732,23.018516 C15.0115393,22.7409221 14.8348837,22.3038614 14.8348837,21.9602451 C14.8348837,21.6166288 15.0115393,21.1795681 15.2920783,20.9019692 C15.9011609,20.2993565 16.8190359,20.2993565 17.4280361,20.9019743 C17.70857,21.1795681 17.8852256,21.6166288 17.8852256,21.9602451 C17.8852256,22.3038614 17.70857,22.7409221 17.4280361,23.018516 C17.1106443,23.3325814 16.7970464,23.4704799 16.3600547,23.4704799 Z M20.4031843,23.018516 C20.1226504,22.7409221 19.9459949,22.3038614 19.9459949,21.9602451 C19.9459949,21.6166288 20.1226504,21.1795681 20.4031894,20.9019692 C21.0122721,20.2993565 21.930147,20.2993565 22.5391472,20.9019743 C22.8196811,21.1795681 22.9963367,21.6166288 22.9963367,21.9602451 C22.9963367,22.393463 22.8567658,22.704226 22.5391472,23.018516 C22.2217554,23.3325814 21.9081575,23.4704799 21.4711658,23.4704799 C21.034174,23.4704799 20.7205761,23.3325814 20.4031843,23.018516 Z M6.45820346,24.2404464 C6.45820346,24.9868783 7.06177848,25.5897652 7.8079004,25.5897652 L24.7612269,25.5897652 C25.5114929,25.5897652 26.1109188,24.9883884 26.1109137,24.2404474 L26.110843,13.7615709 L6.45820346,13.7615709 L6.45820346,24.2404464 Z" id="Combined-Shape" fill="#B5C6D3" fill-rule="nonzero"></path>
                    <rect id="Bound" x="4.25021334" y="0" width="24.0204805" height="32"></rect>
                </g>
            </g>
        </g>
    </g>
</svg>