<?xml version="1.0" encoding="UTF-8"?>
<svg width="32px" height="32px" viewBox="0 0 32 32" version="1.1" xmlns="http://www.w3.org/2000/svg" xmlns:xlink="http://www.w3.org/1999/xlink">
    <!-- Generator: Sketch 43.2 (39069) - http://www.bohemiancoding.com/sketch -->
    <title>nav_Expense_Active</title>
    <desc>Created with Sketch.</desc>
    <defs>
        <path d="M17.2994934,25.6912009 C22.8093573,25.6912009 27.2901877,21.2103704 27.2901877,15.7005066 C27.2901877,10.1899335 22.8087383,5.71003959 17.2994934,5.7150615 C14.5819036,5.7150615 12.046793,6.78351404 10.1428053,8.73279026 C9.47630545,9.39929008 7.93906019,7.89341718 8.59948602,7.21863565 C10.9043203,4.85386482 13.9967102,3.55 17.2994934,3.55 C20.5422833,3.55 23.5962584,4.81534079 25.8904588,7.1095412 C28.1846592,9.40374161 29.45,12.4577167 29.45,15.7005066 C29.45,18.9414801 28.1859596,21.9957678 25.895708,24.2914719 C23.6015076,26.5856724 20.5475326,27.8510131 17.3047426,27.8510131 C14.0619527,27.8510131 11.0079777,26.5856724 8.71377728,24.2914719 C6.66456832,22.242263 5.43621335,19.5868838 5.19723614,16.7322181 L3.93394678,18.2003889 C3.55857685,18.5757589 3.08385127,18.3567594 2.66633223,17.9392404 C2.24881319,17.5217213 2.02981372,17.0469957 2.38960902,16.6880031 L5.46976065,13.2826214 C5.89220982,12.8601722 6.57607462,12.8601722 6.98367481,13.2684351 L10.3770107,16.3659825 C10.7842751,16.7732488 10.5498045,17.2408428 10.0732554,17.702242 C9.58444403,18.1755136 9.17678667,18.4252313 8.8303966,18.0787026 L7.36052286,16.6689568 C7.84841318,21.7268054 12.1172518,25.6912009 17.2994934,25.6912009 Z M16.2195873,9.01300304 C16.2195873,8.06655466 18.3793996,8.06655466 18.3793996,9.01300304 L18.3793996,10.0905254 L19.9031055,10.0905254 C20.8495539,10.0905254 20.8495539,12.2503377 19.9031055,12.2503377 L16.2706467,12.2503377 C15.6215586,12.2503377 15.0933892,12.7785071 15.0933892,13.4275952 C15.0933892,14.0766834 15.6215586,14.6048528 16.2706467,14.6048528 L18.3283401,14.6048528 C20.1673813,14.6048528 21.6654099,16.1028814 21.6654099,17.9419226 C21.6654099,19.7591606 20.2070352,21.2385244 18.3793996,21.2784658 L18.3793996,22.3775117 C18.3793996,23.32396 16.2195873,23.32396 16.2195873,22.3775117 L16.2195873,21.2789924 L14.6276415,21.2789924 C13.6811932,21.2789924 13.6811932,19.1191801 14.6276415,19.1191801 L18.3283401,19.1191801 C18.9774282,19.1191801 19.5055977,18.5910107 19.5055977,17.9419226 C19.5055977,17.2928345 18.9774282,16.7646651 18.3283401,16.7646651 L16.2706467,16.7646651 C14.4316056,16.7646651 12.9335769,15.2666364 12.9335769,13.4275952 C12.9335769,11.6056035 14.4039584,10.1183307 16.2195873,10.0909108 L16.2195873,9.01300304 Z" id="path-1"></path>
        <linearGradient x1="39.3057638%" y1="56.1810924%" x2="59.2101313%" y2="-60.934621%" id="linearGradient-3">
            <stop stop-color="#14A5CC" offset="0%"></stop>
            <stop stop-color="#1CC99C" offset="100%"></stop>
        </linearGradient>
    </defs>
    <g id="Symbols" stroke="none" stroke-width="1" fill="none" fill-rule="evenodd">
        <g id="Nav/Claim-Active" transform="translate(-31.000000, -4.000000)">
            <g id="Attendance">
                <rect id="Bound" x="2" y="0" width="92.8300018" height="53"></rect>
                <g transform="translate(30.666667, 4.000000)">
                    <rect id="Bound" x="0.333333333" y="1.77635684e-15" width="32" height="32"></rect>
                    <mask id="mask-2" fill="white">
                        <use xlink:href="#path-1"></use>
                    </mask>
                    <use id="Combined-Shape" fill="#B5C6D3" fill-rule="nonzero" xlink:href="#path-1"></use>
                    <polygon id="Oval-7" fill="url(#linearGradient-3)" mask="url(#mask-2)" points="79 48 79 -5 -46 -5 -46 48"></polygon>
                </g>
            </g>
        </g>
    </g>
</svg>