<?xml version="1.0" encoding="UTF-8"?>
<svg width="32px" height="32px" viewBox="0 0 32 32" version="1.1" xmlns="http://www.w3.org/2000/svg" xmlns:xlink="http://www.w3.org/1999/xlink">
    <!-- Generator: Sketch 44.1 (41455) - http://www.bohemiancoding.com/sketch -->
    <title>nav_message</title>
    <desc>Created with Sketch.</desc>
    <defs>
        <path d="M27.9862519,10.0008717 C27.9862519,9.4481055 27.5337512,9 26.9836551,9 L6.33593013,9 C5.78221121,9 5.33333333,9.44463086 5.33333333,10.0008717 L5.33333333,23.9991283 C5.33333333,24.5518945 5.78583397,25 6.33593013,25 L26.9836551,25 C27.537374,25 27.9862519,24.5553691 27.9862519,23.9991283 L27.9862519,10.0008717 Z M17.1762719,17.9438758 C16.9213948,18.1585062 16.5092136,18.1593956 16.2532804,17.9438758 L6.87285274,10.0446743 L26.5566996,10.0446743 L17.1762719,17.9438758 Z M26.4279423,23.9882335 L6.89164392,23.9882335 C6.63830538,23.9882335 6.4288139,23.7755821 6.4288139,23.5184222 L6.4288139,11.1023507 L16.1021461,19.2082848 C16.4404923,19.4918078 16.9869595,19.4936967 17.3208567,19.2140598 L26.8907724,11.1993125 L26.8907724,23.5184222 C26.8907724,23.7755821 26.6812809,23.9882335 26.4279423,23.9882335 Z" id="path-1"></path>
    </defs>
    <g id="Symbols" stroke="none" stroke-width="1" fill="none" fill-rule="evenodd">
        <g id="Nav/Message" transform="translate(-31.000000, -4.000000)">
            <g id="Attendance">
                <rect id="Bound" x="1" y="0" width="93.8300018" height="53"></rect>
                <g transform="translate(30.666667, 4.000000)">
                    <rect id="Bound" x="0" y="1.77635684e-15" width="32" height="32"></rect>
                    <mask id="mask-2" fill="white">
                        <use xlink:href="#path-1"></use>
                    </mask>
                    <use id="Shape" stroke="#B5C6D3" stroke-width="0.7" fill="#B5C6D3" xlink:href="#path-1"></use>
                </g>
            </g>
        </g>
    </g>
</svg>