<?xml version="1.0" encoding="UTF-8"?>
<svg width="32px" height="32px" viewBox="0 0 32 32" version="1.1" xmlns="http://www.w3.org/2000/svg" xmlns:xlink="http://www.w3.org/1999/xlink">
    <!-- Generator: Sketch 43.2 (39069) - http://www.bohemiancoding.com/sketch -->
    <title>nav_Timesheet_Active</title>
    <desc>Created with Sketch.</desc>
    <defs>
        <path d="M38.4842511,6.41031584 C39.9457232,6.41031584 41.1333333,7.59950411 41.1333333,9.0644308 L41.1333333,24.645885 C41.1333333,26.1114064 39.9443893,27.3 38.4781468,27.3 L20.4885199,27.3 C19.0139674,27.3 17.8333333,26.1158641 17.8333333,24.645885 L17.8333333,9.0644308 C17.8333333,7.59900687 19.0189246,6.41031584 20.4812505,6.41031584 L24.2466434,6.41031584 L24.2466434,5.85515792 C24.2466434,5.34885838 24.5992256,5 25.1092698,5 C25.6193429,5 25.9718962,5.34888711 25.9718962,5.85515792 L25.9718962,6.41031584 L32.7977508,6.41031584 L32.7977508,5.85515792 C32.7977508,5.34883222 33.1502776,5 33.6603772,5 C34.1704503,5 34.5230036,5.34888711 34.5230036,5.85515792 L34.5230036,6.41031584 L38.4842511,6.41031584 Z M20.9051105,8.12055064 C20.1632616,8.12055064 19.5585042,8.72735789 19.5585042,9.47407985 L19.5585042,12.0513361 L39.2083038,12.0513361 L39.1586546,9.47697222 C39.1442949,8.73240635 38.524412,8.12055064 37.780844,8.12055064 L34.5230855,8.12055064 L34.5230855,8.67570856 C34.5230855,9.18203426 34.1705587,9.53086648 33.6604591,9.53086648 C33.150386,9.53086648 32.7978327,9.18197937 32.7978327,8.67570856 L32.7978327,8.12055064 L25.9718962,8.12055064 L25.9718962,8.67570856 C25.9718962,9.18200811 25.619314,9.53086648 25.1092698,9.53086648 C24.5991967,9.53086648 24.2466434,9.18197937 24.2466434,8.67570856 L24.2466434,8.12055064 L20.9051105,8.12055064 Z M24.3492443,18.8166338 C23.9122526,18.8166338 23.5986547,18.6787352 23.2812629,18.3646698 C22.9636443,18.0503799 22.8240734,17.7396168 22.8240734,17.306399 C22.8240734,16.8731811 22.9636443,16.5624181 23.281268,16.2481231 C23.8903506,15.6455104 24.8082255,15.6455104 25.4172258,16.2481281 C25.6977597,16.525722 25.8744153,16.9627827 25.8744153,17.306399 C25.8744153,17.6500153 25.6977597,18.087076 25.4172258,18.3646698 C25.099834,18.6787352 24.7862361,18.8166338 24.3492443,18.8166338 Z M29.4603554,18.8166338 C29.0233637,18.8166338 28.7097658,18.6787352 28.392374,18.3646698 C28.1118401,18.087076 27.9351845,17.6500153 27.9351845,17.306399 C27.9351845,16.9627827 28.1118401,16.525722 28.3923791,16.2481231 C29.0014617,15.6455104 29.9193367,15.6455104 30.5283369,16.2481281 C30.8088708,16.525722 30.9855264,16.9627827 30.9855264,17.306399 C30.9855264,17.6500153 30.8088708,18.087076 30.5283369,18.3646698 C30.2109451,18.6787352 29.8973472,18.8166338 29.4603554,18.8166338 Z M33.5034851,18.3646698 C33.2229512,18.087076 33.0462956,17.6500153 33.0462956,17.306399 C33.0462956,16.9627827 33.2229512,16.525722 33.5034902,16.2481231 C34.1125729,15.6455104 35.0304478,15.6455104 35.639448,16.2481281 C35.9199819,16.525722 36.0966375,16.9627827 36.0966375,17.306399 C36.0966375,17.7396168 35.9570666,18.0503799 35.639448,18.3646698 C35.3220562,18.6787352 35.0084583,18.8166338 34.5714666,18.8166338 C34.1344748,18.8166338 33.8208769,18.6787352 33.5034851,18.3646698 Z M24.3492443,23.4704799 C23.9122526,23.4704799 23.5986547,23.3325814 23.2812629,23.018516 C22.9636443,22.704226 22.8240734,22.393463 22.8240734,21.9602451 C22.8240734,21.5270273 22.9636443,21.2162642 23.281268,20.9019692 C23.8903506,20.2993565 24.8082255,20.2993565 25.4172258,20.9019743 C25.6977597,21.1795681 25.8744153,21.6166288 25.8744153,21.9602451 C25.8744153,22.3038614 25.6977597,22.7409221 25.4172258,23.018516 C25.099834,23.3325814 24.7862361,23.4704799 24.3492443,23.4704799 Z M29.4603554,23.4704799 C29.0233637,23.4704799 28.7097658,23.3325814 28.392374,23.018516 C28.1118401,22.7409221 27.9351845,22.3038614 27.9351845,21.9602451 C27.9351845,21.6166288 28.1118401,21.1795681 28.3923791,20.9019692 C29.0014617,20.2993565 29.9193367,20.2993565 30.5283369,20.9019743 C30.8088708,21.1795681 30.9855264,21.6166288 30.9855264,21.9602451 C30.9855264,22.3038614 30.8088708,22.7409221 30.5283369,23.018516 C30.2109451,23.3325814 29.8973472,23.4704799 29.4603554,23.4704799 Z M33.5034851,23.018516 C33.2229512,22.7409221 33.0462956,22.3038614 33.0462956,21.9602451 C33.0462956,21.6166288 33.2229512,21.1795681 33.5034902,20.9019692 C34.1125729,20.2993565 35.0304478,20.2993565 35.639448,20.9019743 C35.9199819,21.1795681 36.0966375,21.6166288 36.0966375,21.9602451 C36.0966375,22.393463 35.9570666,22.704226 35.639448,23.018516 C35.3220562,23.3325814 35.0084583,23.4704799 34.5714666,23.4704799 C34.1344748,23.4704799 33.8208769,23.3325814 33.5034851,23.018516 Z M19.5585042,24.2404464 C19.5585042,24.9868783 20.1620793,25.5897652 20.9082012,25.5897652 L37.8615277,25.5897652 C38.6117937,25.5897652 39.2112196,24.9883884 39.2112145,24.2404474 L39.2111437,13.7615709 L19.5585042,13.7615709 L19.5585042,24.2404464 Z" id="path-1"></path>
        <linearGradient x1="39.3057638%" y1="56.1810924%" x2="59.2101313%" y2="-60.934621%" id="linearGradient-3">
            <stop stop-color="#14A5CC" offset="0%"></stop>
            <stop stop-color="#1CC99C" offset="100%"></stop>
        </linearGradient>
    </defs>
    <g id="Symbols" stroke="none" stroke-width="1" fill="none" fill-rule="evenodd">
        <g id="Nav/Timesheet-Active" transform="translate(-31.000000, -4.000000)">
            <g id="Timesheet">
                <rect id="Bound" x="0" y="0" width="93.8300018" height="53"></rect>
                <g transform="translate(17.666667, 4.000000)">
                    <rect id="Bound" x="13.3333333" y="0" width="32" height="32"></rect>
                    <mask id="mask-2" fill="white">
                        <use xlink:href="#path-1"></use>
                    </mask>
                    <use id="Combined-Shape" fill="#B5C6D3" fill-rule="nonzero" xlink:href="#path-1"></use>
                    <polygon id="Oval-7" fill="url(#linearGradient-3)" mask="url(#mask-2)" points="92 49 92 -4 -33 -4 -33 49"></polygon>
                </g>
            </g>
        </g>
    </g>
</svg>