<?xml version="1.0" encoding="UTF-8"?>
<svg width="59px" height="59px" viewBox="0 0 59 59" version="1.1" xmlns="http://www.w3.org/2000/svg" xmlns:xlink="http://www.w3.org/1999/xlink">
    <!-- Generator: Sketch 44.1 (41455) - http://www.bohemiancoding.com/sketch -->
    <title>Oval 12</title>
    <desc>Created with Sketch.</desc>
    <defs></defs>
    <g id="Symbols" stroke="none" stroke-width="1" fill="none" fill-rule="evenodd">
        <g id="sample_Medical">
            <circle id="Oval-12" fill="#F04455" cx="29.5" cy="29.5" r="29.5"></circle>
            <path d="M41.1637959,34.3379214 L34.0721998,30 L41.163526,25.6620786 C41.2855157,25.5873194 41.3729597,25.4672189 41.4064259,25.3279563 C41.4398921,25.1886937 41.4166817,25.0418743 41.3421924,24.9198846 L39.2583815,21.513619 C39.1031955,21.2593838 38.7704227,21.1792269 38.5161876,21.3346828 L31.7468386,25.4758553 L31.7468386,17.5397774 C31.7468386,17.2418203 31.5050183,17 31.2070612,17 L27.2145973,17 C26.9166401,17 26.6748198,17.2418203 26.6748198,17.5397774 L26.6748198,25.4758553 L19.905201,21.3349527 C19.650426,21.1794968 19.3184629,21.2593838 19.163007,21.5138889 L17.0791962,24.9201545 C17.0047069,25.0421442 16.9814965,25.1889636 17.0149627,25.3282262 C17.0484289,25.4674888 17.1358728,25.5875893 17.2578625,25.6623484 L24.3494586,30 L17.2578625,34.3379214 C17.1358728,34.4124107 17.0484289,34.5327811 17.0149627,34.6717738 C16.9814965,34.8113063 17.0047069,34.9581257 17.0791962,35.0801154 L19.163007,38.4861111 C19.3184629,38.7403463 19.650426,38.8207731 19.905201,38.6653172 L26.6748198,34.5241447 L26.6748198,42.4602226 C26.6748198,42.7581797 26.9166401,43 27.2145973,43 L31.2070612,43 C31.5050183,43 31.7468386,42.7581797 31.7468386,42.4602226 L31.7468386,34.5244145 L38.5164574,38.6650473 C38.7706926,38.8205032 39.1034654,38.7403463 39.2586514,38.486381 L41.3424623,35.0801154 C41.4169515,34.9581257 41.440162,34.8113063 41.4066958,34.6720437 C41.3734995,34.5325112 41.2857856,34.4126806 41.1637959,34.3379214 Z" id="Shape" stroke="#FFFFFF" stroke-width="1.2" fill-rule="nonzero"></path>
        </g>
    </g>
</svg>