<?xml version="1.0" encoding="UTF-8"?>
<svg width="59px" height="59px" viewBox="0 0 59 59" version="1.1" xmlns="http://www.w3.org/2000/svg" xmlns:xlink="http://www.w3.org/1999/xlink">
    <!-- Generator: Sketch 44.1 (41455) - http://www.bohemiancoding.com/sketch -->
    <title>sample_Emergency</title>
    <desc>Created with Sketch.</desc>
    <defs></defs>
    <g id="Symbols" stroke="none" stroke-width="1" fill="none" fill-rule="evenodd">
        <g id="sample_Emergency">
            <circle id="Oval-12" fill="#F04455" cx="29.5" cy="29.5" r="29.5"></circle>
            <path d="M26.2237928,16 L33.3851627,16 L32.7883819,34.0899188 L26.8205736,34.0899188 L26.2237928,16 Z M26,40.1696234 C26,39.0879528 26.3325777,38.2487381 26.9977429,37.6519543 C27.6629082,37.0551705 28.5984771,36.7567831 29.8044778,36.7567831 C31.0104784,36.7567831 31.9491555,37.0551705 32.6205373,37.6519543 C33.2919191,38.2487381 33.6276049,39.0879528 33.6276049,40.1696234 C33.6276049,41.2388611 33.2919191,42.0718593 32.6205373,42.6686431 C31.9491555,43.2654269 31.0104784,43.5638144 29.8044778,43.5638144 C28.5984771,43.5638144 27.6629082,43.2654269 26.9977429,42.6686431 C26.3325777,42.0718593 26,41.2388611 26,40.1696234 L26,40.1696234 Z" id="!" fill="#FFFFFF"></path>
        </g>
    </g>
</svg>