<?xml version="1.0" encoding="UTF-8"?>
<svg width="15px" height="14px" viewBox="0 0 15 14" version="1.1" xmlns="http://www.w3.org/2000/svg" xmlns:xlink="http://www.w3.org/1999/xlink">
    <!-- Generator: Sketch 43.2 (39069) - http://www.bohemiancoding.com/sketch -->
    <title>svg_Training</title>
    <desc>Created with Sketch.</desc>
    <defs></defs>
    <g id="Symbols" stroke="none" stroke-width="1" fill="none" fill-rule="evenodd">
        <g id="SVG/Training" transform="translate(-9.000000, -9.000000)" fill-rule="nonzero" fill="#15A9C7">
            <path d="M10.3706897,12.7887931 L10.3706897,18.9439655 C10.3706897,19.2413793 10.6034483,19.4741379 10.9008621,19.4741379 L12.8405172,19.4741379 L10.9886084,22.1176108 C10.833436,22.3633005 10.8980911,22.6865764 11.1437808,22.8417488 C11.234298,22.8934729 11.3248153,22.919335 11.4282635,22.919335 C11.596367,22.919335 11.7774015,22.8288177 11.8679187,22.6736453 L14.0818966,19.4612069 L18.8922414,19.4612069 L21.1062192,22.6865764 C21.2096675,22.8417488 21.3777709,22.932266 21.5458744,22.932266 C21.6493227,22.932266 21.7398399,22.9064039 21.8303571,22.8546798 C22.0760468,22.6995074 22.153633,22.3762315 21.9855296,22.1305419 L20.1465517,19.4741379 L22.0991379,19.4741379 C22.3965517,19.4741379 22.6293103,19.2413793 22.6293103,18.9439655 L22.6293103,12.7887931 L23.4698276,12.7887931 C23.7672414,12.7887931 24,12.5560345 24,12.2586207 L24,9.53017241 C24,9.23275862 23.7672414,9 23.4698276,9 L9.53017241,9 C9.23275862,9 9,9.23275862 9,9.53017241 L9,12.2586207 C9,12.5560345 9.23275862,12.7887931 9.53017241,12.7887931 L10.3706897,12.7887931 Z M21.5689655,18.4267241 L19.3318966,18.4267241 C19.2155172,18.387931 19.0991379,18.387931 18.9827586,18.4267241 L13.8362069,18.4267241 L13.7844828,18.4267241 L11.4310345,18.4267241 L11.4310345,12.7887931 L21.5818966,12.7887931 L21.5818966,18.4267241 L21.5689655,18.4267241 Z M10.0344828,10.0603448 L22.9267241,10.0603448 L22.9267241,11.7284483 L22.0862069,11.7284483 L10.887931,11.7284483 L10.0474138,11.7284483 L10.0474138,10.0603448 L10.0344828,10.0603448 Z M12.9956897,17.3922414 L12.9956897,17.3922414 C12.8534483,17.3922414 12.7241379,17.3405172 12.6077586,17.25 C12.4008621,17.0431034 12.4008621,16.7068966 12.6077586,16.5 L13.6681034,15.4396552 C13.7974138,15.2974138 13.9913793,15.2456897 14.1724138,15.2974138 L15.8793103,15.737069 L17.4310345,13.9008621 C17.625,13.6810345 17.9612069,13.6422414 18.1810345,13.8362069 C18.4008621,14.0301724 18.4396552,14.3663793 18.2456897,14.5862069 L16.487069,16.6810345 C16.3448276,16.8362069 16.137931,16.9008621 15.9439655,16.8491379 L14.2112069,16.3965517 L13.3706897,17.237069 C13.2672414,17.3405172 13.125,17.3922414 12.9956897,17.3922414 Z" id="svg_Training"></path>
        </g>
    </g>
</svg>