<?xml version="1.0" encoding="UTF-8"?>
<svg width="22px" height="23px" viewBox="0 0 22 23" version="1.1" xmlns="http://www.w3.org/2000/svg" xmlns:xlink="http://www.w3.org/1999/xlink">
    <!-- Generator: Sketch 44.1 (41455) - http://www.bohemiancoding.com/sketch -->
    <title>FIngerPrint-Login-Button</title>
    <desc>Created with Sketch.</desc>
    <defs></defs>
    <g id="iStaff-Apps" stroke="none" stroke-width="1" fill="none" fill-rule="evenodd">
        <g id="Login" transform="translate(-140.000000, -374.000000)" fill="#FFFFFF">
            <g id="FIngerPrint-Login-Button" transform="translate(140.000000, 374.000000)">
                <path d="M10.9440435,10.0778733 C10.7422174,10.1342419 10.6245652,10.341548 10.6824348,10.5381395 C10.6934348,10.5726128 11.7154783,14.1140538 11.4333043,21.9753819 C11.4261304,22.1808247 11.592087,22.3536574 11.8034783,22.3611111 L11.8163913,22.3611111 C12.0220435,22.3611111 12.1918261,22.2027199 12.1975652,22.0010041 C12.4835652,14.0213484 11.4615217,10.478044 11.4184783,10.3308333 C11.3606087,10.1342419 11.1492174,10.0215046 10.9440435,10.0778733 L10.9440435,10.0778733 Z" id="Fill-1"></path>
                <path d="M20.5652174,6.51453704 C18.9453478,2.78442419 15.211087,0.373151042 11.0502174,0.373151042 C9.67904348,0.373151042 8.33991304,0.634962384 7.073,1.15019965 C6.37234783,1.43390625 5.70947826,1.77444734 5.10208696,2.15644965 C4.92656522,2.26918692 4.87586957,2.50025174 4.99017391,2.67308449 C5.10591304,2.84591725 5.34313043,2.89529803 5.52056522,2.78256076 C6.08682609,2.42385127 6.70856522,2.1056713 7.36808696,1.83780382 C8.54126087,1.35936921 9.77995652,1.11898727 11.0502174,1.11898727 C14.9026087,1.11898727 18.360913,3.34997396 19.8607391,6.80569734 C20.4829565,8.24146701 20.821087,10.8856684 20.9669565,12.3344821 C20.9856087,12.5273466 21.1520435,12.6708304 21.3462174,12.6708304 C21.3591304,12.6708304 21.3725217,12.6708304 21.3854348,12.668967 C21.5944348,12.6489352 21.7479565,12.4672512 21.7273913,12.2613426 C21.5461304,10.4417072 21.1946087,7.96521412 20.5652174,6.51453704 L20.5652174,6.51453704 Z" id="Fill-2"></path>
                <path d="M3.96813043,3.99239005 C4.11926087,3.84890625 4.12117391,3.61225116 3.97195652,3.46504051 C3.82417391,3.31922743 3.58313043,3.317364 3.432,3.46131366 C1.37308696,5.43561343 -0.67626087,9.10796007 1.24443478,15.385842 C1.29273913,15.5479601 1.44578261,15.6537095 1.61030435,15.6537095 C1.6476087,15.6537095 1.68347826,15.6481192 1.72078261,15.6369387 C1.9226087,15.5787066 2.03834783,15.3714005 1.97665217,15.1729456 C0.543782609,10.4854977 1.23295652,6.61842303 3.96813043,3.99239005 L3.96813043,3.99239005 Z" id="Fill-4"></path>
                <path d="M11.3457826,2.61485243 C10.1740435,2.56966435 9.03482609,2.77510706 7.95873913,3.21347801 C4.20534783,4.7368287 2.21195652,8.75670428 3.31817391,12.56182 C3.42817391,12.9419589 3.542,13.3458565 3.60178261,13.7502199 C3.74,14.661901 3.74765217,16.3413137 3.74765217,19.0074103 C3.74765217,19.212853 3.91743478,19.3786979 4.12882609,19.3786979 C4.34165217,19.3786979 4.51191304,19.212853 4.51191304,19.0074103 C4.51191304,16.226713 4.50426087,14.60693 4.36030435,13.6407436 C4.29334783,13.1930556 4.17186957,12.7621383 4.05421739,12.3577749 C3.05273913,8.91509549 4.85721739,5.27908565 8.25191304,3.89968461 C9.22708696,3.50463831 10.2639565,3.32481771 11.3175652,3.35929109 C14.0393478,3.45385995 17.1222174,5.79059606 18.0524348,8.4599537 C18.8578261,10.7710677 18.865,14.7070891 18.764087,18.2503935 C18.7588261,18.4576997 18.9247826,18.628669 19.138087,18.6342593 C19.3451739,18.6305324 19.5245217,18.4777315 19.5302609,18.2722888 C19.6311739,14.6600376 19.6216087,10.6420255 18.7774783,8.22003762 C17.7386957,5.23529514 14.4037826,2.72060185 11.3457826,2.61485243 L11.3457826,2.61485243 Z" id="Fill-6"></path>
                <path d="M11.0502174,4.84583912 C10.6355652,4.84583912 10.220913,4.88962963 9.81917391,4.97534722 C9.614,5.01867187 9.48295652,5.21899016 9.52982609,5.41930845 C9.57478261,5.62102431 9.77613043,5.74494213 9.9856087,5.70301505 C10.3313913,5.62847801 10.6915217,5.59027778 11.0502174,5.59027778 C13.0531739,5.59027778 14.8523913,6.75119213 15.6314783,8.54753472 C16.5616957,10.6872135 16.6214783,14.1215075 16.4067391,20.111956 C16.399087,20.3173987 16.5655217,20.4902315 16.7764348,20.4976852 L16.7893478,20.4976852 C16.995,20.4976852 17.1652609,20.339294 17.1724348,20.1375781 C17.3948261,13.9048843 17.3273913,10.5381395 16.3354783,8.25823785 C15.4368261,6.1851765 13.3616522,4.84583912 11.0502174,4.84583912 L11.0502174,4.84583912 Z" id="Fill-7"></path>
                <path d="M8.20886957,6.46189525 C8.38247826,6.34356771 8.42552174,6.11063947 8.30213043,5.94339699 C8.18256522,5.77429109 7.94343478,5.732364 7.76982609,5.85255498 C5.79891304,7.19888021 4.94330435,9.78857639 5.64013043,12.2976794 C5.64921739,12.3251649 6.42495652,15.0783767 6.42495652,19.3805613 C6.42495652,19.5860041 6.59665217,19.7513831 6.80756522,19.7513831 C7.02086957,19.7513831 7.19065217,19.5860041 7.19065217,19.3805613 C7.19065217,14.9763542 6.41156522,12.2124277 6.37808696,12.0996904 C5.76543478,9.89572338 6.50147826,7.63026331 8.20886957,6.46189525 L8.20886957,6.46189525 Z" id="Fill-8"></path>
                <path d="M14.8428261,18.2648351 C14.8447391,18.0575289 14.6749565,17.8898206 14.4635652,17.8879572 L14.4597391,17.8879572 C14.2507391,17.8879572 14.0790435,18.0538021 14.0771304,18.2592448 C14.0752174,18.5396904 14.0862174,18.9491782 14.0957826,19.391276 C14.1106087,20.0336921 14.1273478,20.76136 14.1106087,21.2309433 C14.1029565,21.4368519 14.2693913,21.6096846 14.4803043,21.614809 L14.4936957,21.614809 C14.6988696,21.614809 14.8691304,21.4568837 14.8748696,21.2565654 C14.8935217,20.7669502 14.8763043,20.0262384 14.8595652,19.3731076 C14.8504783,18.9398611 14.840913,18.5396904 14.8428261,18.2648351 L14.8428261,18.2648351 Z" id="Fill-9"></path>
                <path d="M11.0502174,7.4537037 C10.6451304,7.4537037 10.2491304,7.53196759 9.87369565,7.68476852 C8.38247826,8.28898437 7.65982609,9.92693576 8.18830435,11.4917477 C8.47813043,12.3433333 8.7206087,16.8090336 8.7206087,21.2439873 C8.7206087,21.44943 8.89278261,21.614809 9.10369565,21.614809 C9.31508696,21.614809 9.48678261,21.44943 9.48678261,21.2439873 C9.48678261,17.2529948 9.26821739,12.2995428 8.91717391,11.2588194 C8.51352174,10.0666927 9.05156522,8.82565104 10.1668696,8.37283854 C10.4490435,8.25823785 10.7460435,8.20000579 11.0502174,8.20000579 C11.9751739,8.20000579 12.8044783,8.73480903 13.167,9.56636285 C13.8805652,11.2131655 14.0938696,14.1960446 14.146,16.4069994 C14.1498261,16.6105787 14.3215217,16.7708333 14.529087,16.7708333 L14.5367391,16.7708333 C14.7476522,16.7671065 14.916,16.5961372 14.9102609,16.3906944 C14.8557391,14.1140538 14.6338261,11.0333449 13.8695652,9.27333912 C13.3893913,8.1687934 12.2836522,7.4537037 11.0502174,7.4537037 L11.0502174,7.4537037 Z" id="Fill-10"></path>
            </g>
        </g>
    </g>
</svg>