<?xml version="1.0" encoding="UTF-8"?>
<svg width="33px" height="45px" viewBox="0 0 33 45" version="1.1" xmlns="http://www.w3.org/2000/svg" xmlns:xlink="http://www.w3.org/1999/xlink">
    <!-- Generator: Sketch 44.1 (41455) - http://www.bohemiancoding.com/sketch -->
    <title>pin_Question@2x</title>
    <desc>Created with Sketch.</desc>
    <defs>
        <path d="M17.4888727,44.0843364 C17.2271761,44.3809924 16.851848,44.5503134 16.4558596,44.5503134 C16.0392109,44.5406772 15.6817884,44.3789275 15.4207804,44.0808949 C14.816812,43.392598 0.640428092,27.0964806 0.640428092,16.3542308 C0.640428092,7.61217188 7.74549261,0.5 16.4799632,0.5 C25.173802,0.5 32.2795552,7.60941869 32.3188097,16.3473479 C32.3683943,27.0957923 18.0962845,43.3960395 17.4888727,44.0843364 Z M22.7269607,16.4707754 C22.7269607,13.0278263 19.9248534,10.2264787 16.4800108,10.2264787 C13.0351682,10.2264787 10.23228,13.0278263 10.23228,16.4707754 C10.23228,19.9145051 13.0351682,22.7150722 16.4800108,22.7150722 C19.9248534,22.7150722 22.7269607,19.9145051 22.7269607,16.4707754 Z" id="path-1"></path>
    </defs>
    <g id="Symbols" stroke="none" stroke-width="1" fill="none" fill-rule="evenodd">
        <g id="Icon/Pin/Grey">
            <g id="Group-2">
                <g id="Combined-Shape">
                    <use fill="#737E85" fill-rule="evenodd" xlink:href="#path-1"></use>
                    <path stroke="#FFFFFF" stroke-width="1.5" d="M16.9264392,43.5881826 L16.9265312,43.5880784 C17.1049075,43.3859489 17.3793777,43.067818 17.728736,42.6527727 C18.2678307,42.0123165 18.8568116,41.2929594 19.4817651,40.5053678 C21.2188358,38.3162414 22.9363998,35.9780133 24.5245027,33.574895 C28.9574877,26.8668992 31.5896989,20.8772422 31.5688172,16.3507171 C31.5314141,8.02489415 24.7601106,1.25 16.4799632,1.25 C8.16004344,1.25 1.39042809,8.02604817 1.39042809,16.3542308 C1.39042809,20.8803093 4.01917275,26.868792 8.43071564,33.5756386 C10.0110207,35.9781686 11.7189863,38.3158937 13.4453864,40.5043434 C14.066616,41.2918374 14.6520043,42.0111238 15.1875285,42.6512587 C15.5350639,43.0666827 15.8102283,43.3875986 15.9849975,43.5867704 C16.1052251,43.7240526 16.2632011,43.7956571 16.4558596,43.8003134 C16.6366737,43.8003134 16.807143,43.7234152 16.9264392,43.5881826 Z M23.4769607,16.4707754 C23.4769607,20.3286756 20.3391101,23.4650722 16.4800108,23.4650722 C12.6207918,23.4650722 9.48227995,20.3285561 9.48227995,16.4707754 C9.48227995,12.6135204 12.6210469,9.47647872 16.4800108,9.47647872 C20.338855,9.47647872 23.4769607,12.6134009 23.4769607,16.4707754 Z"></path>
                </g>
                <path d="M25.1736806,16.4707754 C25.1736806,11.6794234 21.2741508,7.78095088 16.4801638,7.78095088 C11.6861767,7.78095088 7.78556009,11.6794234 7.78556009,16.4707754 C7.78556009,21.2632137 11.6861767,25.1606 16.4801638,25.1606 C21.2741508,25.1606 25.1736806,21.2632137 25.1736806,16.4707754 L25.1736806,16.4707754 Z" id="17-path" fill="#FFFFFF"></path>
            </g>
            <path d="M13.0456771,13.9140625 C13.0665105,12.9192659 13.4102571,12.1223988 14.0769271,11.5234375 C14.7435971,10.9244762 15.6654629,10.625 16.8425521,10.625 C17.957141,10.625 18.8542674,10.9062472 19.5339583,11.46875 C20.2136492,12.0312528 20.5534896,12.7656205 20.5534896,13.671875 C20.5534896,14.2500029 20.4154701,14.752602 20.1394271,15.1796875 C19.863384,15.606773 19.4441174,15.9843734 18.8816146,16.3125 C18.3607787,16.6145848 18.0092197,16.8854155 17.8269271,17.125 C17.6446345,17.3645845 17.5534896,17.6718731 17.5534896,18.046875 L17.5534896,18.4609375 L15.4831771,18.4609375 L15.4675521,18.03125 C15.4154685,17.4166636 15.5001031,16.9127624 15.7214583,16.5195312 C15.9428136,16.1263001 16.3269244,15.7682308 16.8738021,15.4453125 C17.3842213,15.1432277 17.730572,14.8736991 17.9128646,14.6367188 C18.0951572,14.3997384 18.1863021,14.1015643 18.1863021,13.7421875 C18.1863021,13.3776023 18.0495847,13.0794282 17.7761458,12.8476562 C17.502707,12.6158843 17.1446376,12.5 16.7019271,12.5 C16.2540082,12.5 15.8920326,12.6276029 15.6159896,12.8828125 C15.3399465,13.1380221 15.1889064,13.4817687 15.1628646,13.9140625 L13.0456771,13.9140625 Z M16.6003646,22.234375 C16.1628624,22.234375 15.8165117,22.1158866 15.5613021,21.8789062 C15.3060925,21.6419259 15.1784896,21.3177104 15.1784896,20.90625 C15.1784896,20.4947896 15.3060925,20.169272 15.5613021,19.9296875 C15.8165117,19.690103 16.1628624,19.5703125 16.6003646,19.5703125 C17.0378668,19.5703125 17.3829154,19.690103 17.6355208,19.9296875 C17.8881263,20.169272 18.0144271,20.4947896 18.0144271,20.90625 C18.0144271,21.3177104 17.8881263,21.6419259 17.6355208,21.8789062 C17.3829154,22.1158866 17.0378668,22.234375 16.6003646,22.234375 Z" id="?" fill="#737E85"></path>
        </g>
    </g>
</svg>