<?xml version="1.0" encoding="UTF-8"?>
<svg width="34px" height="48px" viewBox="0 0 34 48" version="1.1" xmlns="http://www.w3.org/2000/svg" xmlns:xlink="http://www.w3.org/1999/xlink">
    <!-- Generator: Sketch 44.1 (41455) - http://www.bohemiancoding.com/sketch -->
    <title>svg_Pin</title>
    <desc>Created with Sketch.</desc>
    <defs>
        <path d="M17.8484446,45.5843364 C17.586748,45.8809924 17.2114199,46.0503134 16.8154315,46.0503134 C16.3987828,46.0406772 16.0413603,45.8789275 15.7803523,45.5808949 C15.1763839,44.892598 1,28.5964806 1,17.8542308 C1,9.11217188 8.10506451,2 16.8395351,2 C25.5333739,2 32.6391271,9.10941869 32.6783816,17.8473479 C32.7279662,28.5957923 18.4558564,44.8960395 17.8484446,45.5843364 Z M23.0865326,17.9707754 C23.0865326,14.5278263 20.2844253,11.7264787 16.8395827,11.7264787 C13.3947401,11.7264787 10.5918519,14.5278263 10.5918519,17.9707754 C10.5918519,21.4145051 13.3947401,24.2150722 16.8395827,24.2150722 C20.2844253,24.2150722 23.0865326,21.4145051 23.0865326,17.9707754 Z" id="path-1"></path>
    </defs>
    <g id="Symbols" stroke="none" stroke-width="1" fill="none" fill-rule="evenodd">
        <g id="Combined-Shape">
            <use fill="#00AADD" fill-rule="evenodd" xlink:href="#path-1"></use>
            <path stroke="#FFFFFF" stroke-width="1.5" d="M17.2860111,45.0881826 L17.2861031,45.0880784 C17.4644794,44.8859489 17.7389496,44.567818 18.0883079,44.1527727 C18.6274026,43.5123165 19.2163835,42.7929594 19.841337,42.0053678 C21.5784077,39.8162414 23.2959717,37.4780133 24.8840746,35.074895 C29.3170596,28.3668992 31.9492709,22.3772422 31.9283891,17.8507171 C31.890986,9.52489415 25.1196825,2.75 16.8395351,2.75 C8.51961535,2.75 1.75,9.52604817 1.75,17.8542308 C1.75,22.3803093 4.37874466,28.368792 8.79028755,35.0756386 C10.3705926,37.4781686 12.0785582,39.8158937 13.8049583,42.0043434 C14.4261879,42.7918374 15.0115762,43.5111238 15.5471004,44.1512587 C15.8946358,44.5666827 16.1698002,44.8875986 16.3445694,45.0867704 C16.464797,45.2240526 16.622773,45.2956571 16.8154315,45.3003134 C16.9962456,45.3003134 17.1667149,45.2234152 17.2860111,45.0881826 Z M23.8365326,17.9707754 C23.8365326,21.8286756 20.698682,24.9650722 16.8395827,24.9650722 C12.9803637,24.9650722 9.84185186,21.8285561 9.84185186,17.9707754 C9.84185186,14.1135204 12.9806188,10.9764787 16.8395827,10.9764787 C20.698427,10.9764787 23.8365326,14.1134009 23.8365326,17.9707754 Z"></path>
        </g>
    </g>
</svg>