<?xml version="1.0" encoding="UTF-8"?>
<svg width="17px" height="17px" viewBox="0 0 17 17" version="1.1" xmlns="http://www.w3.org/2000/svg" xmlns:xlink="http://www.w3.org/1999/xlink">
    <!-- Generator: Sketch 43.2 (39069) - http://www.bohemiancoding.com/sketch -->
    <title>svg_Setting</title>
    <desc>Created with Sketch.</desc>
    <defs></defs>
    <g id="Symbols" stroke="none" stroke-width="1" fill="none" fill-rule="evenodd">
        <g id="SVG/Settings" transform="translate(-8.000000, -8.000000)" stroke="#15A9C7" stroke-width="0.5" fill="#15A9C7" fill-rule="nonzero">
            <path d="M23.7744444,15.5327778 L22.9055556,15.3655556 C22.3938889,15.2672222 21.9747222,14.9191667 21.7847222,14.4338889 C21.5941667,13.9491667 21.6644444,13.4088889 21.9727778,12.9886111 L22.5183333,12.2444444 C22.5994444,12.1341667 22.5875,11.9808333 22.4905556,11.8838889 L21.3122222,10.7055556 C21.2180556,10.6113889 21.0702778,10.5972222 20.96,10.6719444 L20.2272222,11.1680556 C19.7961111,11.4602778 19.2536111,11.51 18.7761111,11.3019444 C18.2986111,11.0936111 17.9661111,10.6616667 17.8869444,10.1469444 L17.7466667,9.23527778 C17.7258333,9.1 17.6094444,9 17.4722222,9 L15.8055556,9 C15.6725,9 15.5577778,9.09444444 15.5327778,9.22555556 L15.3169444,10.3477778 C15.2205556,10.8480556 14.8822222,11.2633333 14.4113889,11.4580556 C13.9408333,11.6536111 13.4077778,11.5988889 12.9861111,11.3133333 L12.04,10.6722222 C11.9297222,10.5977778 11.7819444,10.6116667 11.6877778,10.7058333 L10.5091667,11.8841667 C10.4122222,11.9811111 10.4005556,12.1341667 10.4813889,12.245 L11.0269444,12.9891667 C11.335,13.4091667 11.4052778,13.9494444 11.215,14.4344444 C11.0244444,14.9191667 10.6055556,15.2675 10.0938889,15.3658333 L9.225,15.5330556 C9.09444444,15.5577778 9,15.6725 9,15.8055556 L9,17.4722222 C9,17.6091667 9.1,17.7258333 9.23555556,17.7466667 L10.1475,17.8869444 C10.6622222,17.9661111 11.0941667,18.2983333 11.3022222,18.7758333 C11.5105556,19.2536111 11.4605556,19.7961111 11.1683333,20.2275 L10.6722222,20.9602778 C10.5975,21.0702778 10.6116667,21.2183333 10.7058333,21.3125 L11.8841667,22.4908333 C11.9811111,22.5875 12.1338889,22.6 12.2447222,22.5186111 L12.9888889,21.9730556 C13.4088889,21.665 13.9491667,21.5938889 14.4338889,21.785 C14.9188889,21.9752778 15.2672222,22.3941667 15.3655556,22.9058333 L15.5327778,23.7747222 C15.5577778,23.9055556 15.6725,24 15.8055556,24 L17.4722222,24 C17.6094444,24 17.7261111,23.9 17.7466667,23.7644444 L17.8452778,23.1230556 C17.9263889,22.5963889 18.2683333,22.1605556 18.7602778,21.9569444 C19.2522222,21.7541667 19.8022222,21.8194444 20.2316667,22.1347222 L20.755,22.5183333 C20.8658333,22.5997222 21.0188889,22.5872222 21.1155556,22.4905556 L22.2938889,21.3122222 C22.3880556,21.2180556 22.4022222,21.0702778 22.3275,20.96 L21.8313889,20.2272222 C21.5391667,19.7958333 21.4891667,19.2533333 21.6975,18.7758333 C21.9058333,18.2980556 22.3375,17.9658333 22.8525,17.8866667 L23.7641667,17.7463889 C23.9,17.7258333 24,17.6091667 24,17.4722222 L24,15.8055556 C24,15.6725 23.9055556,15.5577778 23.7744444,15.5327778 Z M23.4444444,17.2338889 L22.7680556,17.3380556 C22.0638889,17.4463889 21.4733333,17.9008333 21.1883333,18.5541667 C20.9036111,19.2072222 20.9719444,19.9491667 21.3716667,20.5391667 L21.7391667,21.0819444 L20.8913889,21.9297222 L20.5602778,21.6869444 C19.9727778,21.2561111 19.2208333,21.1661111 18.5475,21.4441667 C17.8747222,21.7230556 17.4066667,22.3188889 17.2961111,23.0388889 L17.2338889,23.4444444 L16.035,23.4444444 L15.9111111,22.8011111 C15.7766667,22.1011111 15.3,21.5280556 14.6366667,21.2675 C13.9741667,21.0072222 13.2347222,21.1038889 12.6602778,21.5247222 L12.1083333,21.9294444 L11.2605556,21.0816667 L11.6283333,20.5388889 C12.0277778,19.9491667 12.0963889,19.2069444 11.8113889,18.5538889 C11.5263889,17.9008333 10.9358333,17.4463889 10.2316667,17.3380556 L9.55555556,17.2338889 L9.55555556,16.0352778 L10.1991667,15.9116667 C10.8988889,15.7772222 11.4719444,15.3008333 11.7325,14.6375 C11.9927778,13.9741667 11.8966667,13.2352778 11.4752778,12.6605556 L11.0705556,12.1083333 L11.9183333,11.2605556 L12.6747222,11.7730556 C13.2516667,12.1638889 13.9805556,12.2383333 14.6241667,11.9711111 C15.2677778,11.7044444 15.7308333,11.1366667 15.8625,10.4522222 L16.035,9.55555556 L17.2338889,9.55555556 L17.3380556,10.2319444 C17.4463889,10.9361111 17.9011111,11.5266667 18.5541667,11.8116667 C19.2072222,12.0966667 19.9491667,12.0277778 20.5391667,11.6286111 L21.0819444,11.2611111 L21.9297222,12.1088889 L21.525,12.6605556 C21.1036111,13.235 21.0075,13.9741667 21.2680556,14.6375 C21.5283333,15.3008333 22.1013889,15.7772222 22.8013889,15.9116667 L23.4444444,16.035 L23.4444444,17.2338889 Z M16.6388889,13.7222222 C15.0305556,13.7222222 13.7222222,15.0305556 13.7222222,16.6388889 C13.7222222,18.2472222 15.0305556,19.5555556 16.6388889,19.5555556 C18.2472222,19.5555556 19.5555556,18.2472222 19.5555556,16.6388889 C19.5555556,15.0305556 18.2472222,13.7222222 16.6388889,13.7222222 Z M16.6388889,19 C15.3369444,19 14.2777778,17.9408333 14.2777778,16.6388889 C14.2777778,15.3369444 15.3369444,14.2777778 16.6388889,14.2777778 C17.9408333,14.2777778 19,15.3369444 19,16.6388889 C19,17.9408333 17.9408333,19 16.6388889,19 Z" id="svg_Setting"></path>
        </g>
    </g>
</svg>