<?xml version="1.0" encoding="UTF-8"?>
<svg width="17px" height="16px" viewBox="0 0 17 16" version="1.1" xmlns="http://www.w3.org/2000/svg" xmlns:xlink="http://www.w3.org/1999/xlink">
    <!-- Generator: Sketch 43.2 (39069) - http://www.bohemiancoding.com/sketch -->
    <title>svg_Expense</title>
    <desc>Created with Sketch.</desc>
    <defs></defs>
    <g id="Symbols" stroke="none" stroke-width="1" fill="none" fill-rule="evenodd">
        <g id="SVG/Expense" transform="translate(-7.000000, -8.000000)" stroke="#15A9C7" stroke-width="0.5" fill="#15A9C7" fill-rule="nonzero">
            <path d="M21.4731253,11.0964916 C22.8247685,12.4481348 23.569617,14.2460449 23.569617,16.1563244 C23.569617,18.066604 22.8247685,19.8645141 21.4763359,21.2161572 C20.1246927,22.5678004 18.3267826,23.3126489 16.4165031,23.3126489 C14.5062236,23.3126489 12.7083134,22.5678004 11.3566703,21.2161572 C10.0050271,19.8645141 9.26017866,18.066604 9.26017866,16.1563244 L9.26017866,16.0760606 L8.04396973,17.4906975 C7.8930737,17.6415935 7.34727955,17.0957994 7.49817558,16.9449034 L9.37254804,14.8721029 C9.52344407,14.7212069 9.76744616,14.7212069 9.91834219,14.8721029 L11.9847094,16.7579637 C12.1716481,16.9449034 11.4977351,17.4860933 11.4238924,17.4122506 L10.0307116,16.0760606 L10.0307116,16.1563244 C10.0307116,19.678302 12.891315,22.542116 16.4132925,22.542116 C19.9352701,22.542116 22.7990841,19.678302 22.7990841,16.1563244 C22.7990841,12.6343469 19.9352701,9.77053291 16.4132925,9.77374347 C14.6763829,9.77374347 13.0550533,10.4575914 11.8414639,11.7000758 C11.6905679,11.8509718 11.1415632,11.3115987 11.2892487,11.1607027 C12.6473129,9.76732236 14.4676969,9 16.4132925,9 C18.3235721,9 20.1214822,9.74484848 21.4731253,11.0964916 Z M16.0280261,12.0660789 C16.0280261,11.8541823 16.798559,11.8541823 16.798559,12.0660789 L16.798559,13.00035 L18.0057272,13.00035 C18.2176238,13.00035 18.2176238,13.770883 18.0057272,13.770883 L15.784024,13.770883 C15.2350193,13.770883 14.7887523,14.2171499 14.7887523,14.7661546 C14.7887523,15.3151593 15.2350193,15.7614263 15.784024,15.7614263 L17.0425611,15.7614263 C18.0153589,15.7614263 18.8083657,16.5544331 18.8083657,17.5272309 C18.8083657,18.4936076 18.0282011,19.2801933 17.0554033,19.2930355 L16.798559,19.2930355 L16.798559,20.2401489 C16.798559,20.4520454 16.0280261,20.4520454 16.0280261,20.2401489 L16.0280261,19.2930355 L14.7791207,19.2930355 C14.5672241,19.2930355 14.5672241,18.5225026 14.7791207,18.5225026 L17.0425611,18.5225026 C17.5915658,18.5225026 18.0378328,18.0762356 18.0378328,17.5272309 C18.0378328,16.9782262 17.5915658,16.5319592 17.0425611,16.5319592 L15.784024,16.5319592 C14.8112262,16.5319592 14.0182194,15.7389524 14.0182194,14.7661546 C14.0182194,13.7933568 14.8112262,13.00035 15.784024,13.00035 L16.0280261,13.00035 L16.0280261,12.0660789 Z" id="svg_Expense"></path>
        </g>
    </g>
</svg>