<?xml version="1.0" encoding="UTF-8"?>
<svg width="33px" height="32px" viewBox="0 0 33 32" version="1.1" xmlns="http://www.w3.org/2000/svg" xmlns:xlink="http://www.w3.org/1999/xlink">
    <!-- Generator: Sketch 44 (41411) - http://www.bohemiancoding.com/sketch -->
    <title>nav_Training_Active</title>
    <desc>Created with Sketch.</desc>
    <defs>
        <path d="M5.33998735,11.4680782 L5.33998735,21.975946 C5.33998735,22.4836791 5.7373437,22.8810354 6.2450768,22.8810354 L9.55637966,22.8810354 L6.39487383,27.3938682 C6.12996961,27.8132999 6.24034637,28.3651837 6.65977806,28.6300879 C6.81430553,28.7183893 6.968833,28.76254 7.14543582,28.76254 C7.4324154,28.76254 7.74147033,28.6080126 7.8959978,28.3431083 L11.6756135,22.8589601 L19.8876446,22.8589601 L23.6672603,28.3651837 C23.8438631,28.6300879 24.1308427,28.7846154 24.4178222,28.7846154 C24.5944251,28.7846154 24.7489525,28.7404647 24.90348,28.6521633 C25.3229117,28.387259 25.4553638,27.8353752 25.1683842,27.4159435 L22.0289538,22.8810354 L25.362332,22.8810354 C25.8700651,22.8810354 26.2674214,22.4836791 26.2674214,21.975946 L26.2674214,11.4680782 L27.7023193,11.4680782 C28.2100524,11.4680782 28.6074088,11.0707219 28.6074088,10.5629888 L28.6074088,5.90508945 C28.6074088,5.39735634 28.2100524,5 27.7023193,5 L3.90508945,5 C3.39735634,5 3,5.39735634 3,5.90508945 L3,10.5629888 C3,11.0707219 3.39735634,11.4680782 3.90508945,11.4680782 L5.33998735,11.4680782 Z M24.4572425,21.0929319 L20.6382066,21.0929319 C20.4395284,21.0267058 20.2408502,21.0267058 20.042172,21.0929319 L11.2561818,21.0929319 L11.1678804,21.0929319 L7.15016625,21.0929319 L7.15016625,11.4680782 L24.4793179,11.4680782 L24.4793179,21.0929319 L24.4572425,21.0929319 Z M4.76602819,6.8101789 L26.7751545,6.8101789 L26.7751545,9.65789935 L25.3402566,9.65789935 L6.22300145,9.65789935 L4.78810354,9.65789935 L4.78810354,6.8101789 L4.76602819,6.8101789 Z M9.82128389,19.3269037 L9.82128389,19.3269037 C9.57845501,19.3269037 9.35770149,19.2386023 9.15902332,19.0840748 C8.80581768,18.7308692 8.80581768,18.15691 9.15902332,17.8037044 L10.9692022,15.9935255 C11.1899557,15.7506966 11.521086,15.6623952 11.830141,15.7506966 L14.7440875,16.5012586 L17.3931298,13.3665586 C17.72426,12.9912776 18.2982192,12.9250515 18.6735002,13.2561818 C19.0487812,13.5873121 19.1150072,14.1612712 18.783877,14.5365522 L15.781629,18.1127593 C15.5388002,18.3776635 15.1855945,18.4880403 14.8544642,18.3997389 L11.896367,17.6271016 L10.4614691,19.0619995 C10.2848663,19.2386023 10.0420374,19.3269037 9.82128389,19.3269037 Z" id="path-1"></path>
        <linearGradient x1="39.3057638%" y1="56.1810924%" x2="59.2101313%" y2="-60.934621%" id="linearGradient-3">
            <stop stop-color="#14A5CC" offset="0%"></stop>
            <stop stop-color="#1CC99C" offset="100%"></stop>
        </linearGradient>
    </defs>
    <g id="Symbols" stroke="none" stroke-width="1" fill="none" fill-rule="evenodd">
        <g id="Nav/Training-Active" transform="translate(-30.000000, -4.000000)">
            <g id="Training">
                <g transform="translate(30.666667, 4.000000)">
                    <rect id="Bound" x="0" y="1.77635684e-15" width="32" height="32"></rect>
                    <mask id="mask-2" fill="white">
                        <use xlink:href="#path-1"></use>
                    </mask>
                    <use id="Combined-Shape" fill="#B5C6D3" fill-rule="nonzero" xlink:href="#path-1"></use>
                    <polygon id="Oval-7" fill="url(#linearGradient-3)" mask="url(#mask-2)" points="78 49 78 -4 -47 -4 -47 49"></polygon>
                </g>
            </g>
        </g>
    </g>
</svg>