<?xml version="1.0" encoding="UTF-8"?>
<svg width="32px" height="32px" viewBox="0 0 32 32" version="1.1" xmlns="http://www.w3.org/2000/svg" xmlns:xlink="http://www.w3.org/1999/xlink">
    <!-- Generator: Sketch 43.2 (39069) - http://www.bohemiancoding.com/sketch -->
    <title>nav_Attendance</title>
    <desc>Created with Sketch.</desc>
    <defs></defs>
    <g id="Symbols" stroke="none" stroke-width="1" fill="none" fill-rule="evenodd">
        <g id="Nav/Clock-In" transform="translate(-31.000000, -4.000000)">
            <g id="Attendance">
                <rect id="Bound" x="2" y="0" width="92.8300018" height="53"></rect>
                <g transform="translate(30.666667, 4.000000)">
                    <rect id="Bound" x="0.333333333" y="1.77635684e-15" width="32" height="32"></rect>
                    <path d="M19.6355175,3.42892314 C20.2536967,3.5956472 20.6205517,4.23521492 20.4549111,4.85743761 C20.2892705,5.47966029 19.653859,5.84891488 19.0356798,5.68219082 C13.6486895,4.22930966 8.11153196,7.44709967 6.66809226,12.869326 C5.22465257,18.2915522 8.42153196,23.864928 13.8085222,25.3178092 C19.1955125,26.7706903 24.73267,23.5529003 26.1761097,18.130674 C26.3417504,17.5084514 26.9771619,17.1391968 27.5953411,17.3059208 C28.2135203,17.4726449 28.5803753,18.1122126 28.4147347,18.7344353 C26.6400138,25.401107 19.8320332,29.3574062 13.2086845,27.5710769 C6.58533579,25.7847476 2.65474637,18.9322364 4.42946731,12.2655647 C6.20418824,5.59889304 13.0121688,1.64259385 19.6355175,3.42892314 Z M22.0971538,15.7090677 C22.6579604,15.7090677 23.1126479,16.1667293 23.1126479,16.7312041 C23.1126479,17.295679 22.6579604,17.7533406 22.0971538,17.7533406 L15.5390925,17.7533406 C14.9782859,17.7533406 14.5235983,17.295679 14.5235983,16.7312041 L14.5235983,9.00129722 C14.5235983,8.43682236 14.9782859,7.97916077 15.5390925,7.97916077 C16.0998992,7.97916077 16.5545867,8.43682236 16.5545867,9.00129722 L16.5545867,15.7090677 L22.0971538,15.7090677 Z M23.3748863,7.96854406 C22.6434735,7.96854406 22.0505462,7.37173852 22.0505462,6.63554157 C22.0505462,5.89934463 22.6434735,5.30253908 23.3748863,5.30253908 C24.1062991,5.30253908 24.6992263,5.89934463 24.6992263,6.63554157 C24.6992263,7.37173852 24.1062991,7.96854406 23.3748863,7.96854406 Z M26.2222194,11.3676841 C25.4908066,11.3676841 24.8978794,10.7708786 24.8978794,10.0346817 C24.8978794,9.29848471 25.4908066,8.70167916 26.2222194,8.70167916 C26.9536322,8.70167916 27.5465595,9.29848471 27.5465595,10.0346817 C27.5465595,10.7708786 26.9536322,11.3676841 26.2222194,11.3676841 Z M27.6789914,15.5 C26.9475786,15.5 26.3546514,14.9031945 26.3546514,14.1669975 C26.3546514,13.4308006 26.9475786,12.833995 27.6789914,12.833995 C28.4104043,12.833995 29.0033315,13.4308006 29.0033315,14.1669975 C29.0033315,14.9031945 28.4104043,15.5 27.6789914,15.5 Z" id="Combined-Shape" fill="#B5C6D3" fill-rule="nonzero"></path>
                </g>
            </g>
        </g>
    </g>
</svg>