<?xml version="1.0" encoding="UTF-8"?>
<svg width="32px" height="32px" viewBox="0 0 32 32" version="1.1" xmlns="http://www.w3.org/2000/svg" xmlns:xlink="http://www.w3.org/1999/xlink">
    <!-- Generator: Sketch 43.2 (39069) - http://www.bohemiancoding.com/sketch -->
    <title>nav_Journey_Active</title>
    <desc>Created with Sketch.</desc>
    <defs>
        <path d="M10.3356288,21.8500848 C11.298222,20.6369861 12.249927,19.3413701 13.1275438,18.0133598 C15.5036208,14.4178785 16.9079272,11.2223472 16.8976842,9.00197681 C16.8798488,5.03187543 13.6496863,1.8 9.70860036,1.8 C5.74609768,1.8 2.51914382,5.03002027 2.51914382,8.99779684 C2.51914382,11.2220269 3.92260707,14.4192243 6.288611,18.0162482 C7.16207577,19.3441723 8.10859606,20.6396927 9.06539951,21.8525728 C9.29289937,22.1409602 9.50512639,22.404833 9.69761862,22.6403 C9.89162437,22.4044369 10.1056475,22.1399165 10.3356288,21.8500848 Z M10.2811897,24.7355427 C10.1326682,24.9039047 9.91965717,25 9.69492075,25 C9.45845896,24.9945312 9.25560992,24.9027329 9.10747931,24.7335896 C8.76470742,24.3429585 0.719143816,15.0943765 0.719143816,8.99779684 C0.719143816,4.03639119 4.75150135,0 9.70860036,0 C14.6426395,0 18.6753878,4.03482867 18.6976661,8.99389053 C18.725807,15.0939858 10.6259158,24.3449116 10.2811897,24.7355427 Z M12.2248868,9.06393974 C12.2248868,7.68246063 11.0928188,6.55081956 9.70883695,6.55081956 C8.32452178,6.55081956 7.19192472,7.68279407 7.19192472,9.06393974 C7.19192472,10.4455651 8.32413952,11.5770599 9.70883695,11.5770599 C11.093201,11.5770599 12.2248868,10.4458985 12.2248868,9.06393974 Z M14.1888043,9.06393974 C14.1888043,11.5336757 12.17922,13.5421555 9.70868581,13.5421555 C7.23815165,13.5421555 5.22800722,11.5336757 5.22800722,9.06393974 C5.22800722,6.59476354 7.23815165,4.58572401 9.70868581,4.58572401 C12.17922,4.58572401 14.1888043,6.59476354 14.1888043,9.06393974 Z" id="path-1"></path>
        <linearGradient x1="39.3057638%" y1="56.1810924%" x2="59.2101313%" y2="-60.934621%" id="linearGradient-3">
            <stop stop-color="#14A5CC" offset="0%"></stop>
            <stop stop-color="#1CC99C" offset="100%"></stop>
        </linearGradient>
    </defs>
    <g id="Symbols" stroke="none" stroke-width="1" fill="none" fill-rule="evenodd">
        <g id="Nav/Journey-Active" transform="translate(-31.000000, -4.000000)">
            <g>
                <rect id="Bound" x="1" y="0" width="92.8300018" height="53"></rect>
                <g id="Attendance" transform="translate(37.666667, 8.000000)">
                    <mask id="mask-2" fill="white">
                        <use xlink:href="#path-1"></use>
                    </mask>
                    <use id="Combined-Shape" fill="#B5C6D3" fill-rule="nonzero" xlink:href="#path-1"></use>
                    <polygon id="Oval-7" fill="url(#linearGradient-3)" mask="url(#mask-2)" points="72 44 72 -9 -53 -9 -53 44"></polygon>
                </g>
            </g>
        </g>
    </g>
</svg>