<?xml version="1.0" encoding="UTF-8"?>
<svg width="32px" height="32px" viewBox="0 0 32 32" version="1.1" xmlns="http://www.w3.org/2000/svg" xmlns:xlink="http://www.w3.org/1999/xlink">
    <!-- Generator: Sketch 43.2 (39069) - http://www.bohemiancoding.com/sketch -->
    <title>nav_Journey</title>
    <desc>Created with Sketch.</desc>
    <defs></defs>
    <g id="Symbols" stroke="none" stroke-width="1" fill="none" fill-rule="evenodd">
        <g id="Nav/Journey" transform="translate(-31.000000, -4.000000)">
            <g id="Attendance">
                <rect id="Bound" x="1" y="0" width="93.8300018" height="53"></rect>
                <g transform="translate(30.666667, 4.000000)">
                    <rect id="Bound" x="0" y="1.77635684e-15" width="32" height="32"></rect>
                    <path d="M17.3356288,25.8500848 C18.298222,24.6369861 19.249927,23.3413701 20.1275438,22.0133598 C22.5036208,18.4178785 23.9079272,15.2223472 23.8976842,13.0019768 C23.8798488,9.03187543 20.6496863,5.8 16.7086004,5.8 C12.7460977,5.8 9.51914382,9.03002027 9.51914382,12.9977968 C9.51914382,15.2220269 10.9226071,18.4192243 13.288611,22.0162482 C14.1620758,23.3441723 15.1085961,24.6396927 16.0653995,25.8525728 C16.2928994,26.1409602 16.5051264,26.404833 16.6976186,26.6403 C16.8916244,26.4044369 17.1056475,26.1399165 17.3356288,25.8500848 Z M17.2811897,28.7355427 C17.1326682,28.9039047 16.9196572,29 16.6949208,29 C16.458459,28.9945312 16.2556099,28.9027329 16.1074793,28.7335896 C15.7647074,28.3429585 7.71914382,19.0943765 7.71914382,12.9977968 C7.71914382,8.03639119 11.7515013,4 16.7086004,4 C21.6426395,4 25.6753878,8.03482867 25.6976661,12.9938905 C25.725807,19.0939858 17.6259158,28.3449116 17.2811897,28.7355427 Z M19.2248868,13.0639397 C19.2248868,11.6824606 18.0928188,10.5508196 16.7088369,10.5508196 C15.3245218,10.5508196 14.1919247,11.6827941 14.1919247,13.0639397 C14.1919247,14.4455651 15.3241395,15.5770599 16.7088369,15.5770599 C18.093201,15.5770599 19.2248868,14.4458985 19.2248868,13.0639397 Z M21.1888043,13.0639397 C21.1888043,15.5336757 19.17922,17.5421555 16.7086858,17.5421555 C14.2381517,17.5421555 12.2280072,15.5336757 12.2280072,13.0639397 C12.2280072,10.5947635 14.2381517,8.58572401 16.7086858,8.58572401 C19.17922,8.58572401 21.1888043,10.5947635 21.1888043,13.0639397 Z" id="Combined-Shape" fill="#B5C6D3" fill-rule="nonzero"></path>
                </g>
            </g>
        </g>
    </g>
</svg>