<?xml version="1.0" encoding="UTF-8"?>
<svg width="13px" height="16px" viewBox="0 0 13 16" version="1.1" xmlns="http://www.w3.org/2000/svg" xmlns:xlink="http://www.w3.org/1999/xlink">
    <!-- Generator: Sketch 43.2 (39069) - http://www.bohemiancoding.com/sketch -->
    <title>Icon/Sidebar Icons/Device Mgmt Copy 15</title>
    <desc>Created with Sketch.</desc>
    <defs></defs>
    <g id="Web" stroke="none" stroke-width="1" fill="none" fill-rule="evenodd">
        <g id="Sidebar" transform="translate(-21.000000, -321.000000)" fill="#15A9C7" stroke="#14A5CC">
            <g id="Sidebar-Copy">
                <g id="List-of-Dashboard" transform="translate(0.000000, 273.000000)">
                    <g id="Group-14" transform="translate(0.000000, 33.000000)">
                        <g id="Icon/Sidebar-Icons/Pilgrim-Location" transform="translate(12.000000, 7.000000)">
                            <g id="placeholder" transform="translate(10.000000, 9.000000)">
                                <g id="Capa_1" stroke-width="0.5" fill-rule="nonzero">
                                    <g id="Group">
                                        <path d="M5.61761006,0 C2.52410901,0 0.00587002096,2.51823899 0.00587002096,5.61174004 C0.00587002096,5.9639413 0.0381551363,6.31907757 0.105660377,6.66540881 C0.108595388,6.68595388 0.12033543,6.7475891 0.143815514,6.85324948 C0.228930818,7.23186583 0.355136268,7.60461216 0.519496855,7.95974843 C1.12410901,9.38322851 2.45366876,11.5698113 5.37106918,13.9119497 C5.44444444,13.9706499 5.53249476,14 5.62054507,14 C5.70859539,14 5.7966457,13.9706499 5.87002096,13.9119497 C8.78448637,11.5698113 10.1169811,9.38322851 10.7215933,7.95974843 C10.8859539,7.60461216 11.0121593,7.23480084 11.0972746,6.85324948 C11.1207547,6.7475891 11.1324948,6.68595388 11.1354298,6.66540881 C11.2,6.31907757 11.2352201,5.9639413 11.2352201,5.61174004 C11.2293501,2.51823899 8.71111111,0 5.61761006,0 Z M10.348847,6.52746331 C10.348847,6.53333333 10.3459119,6.53920335 10.3459119,6.54507338 C10.3429769,6.55974843 10.3341719,6.60377358 10.3194969,6.67127883 L10.3194969,6.67714885 C10.2461216,7.00587002 10.1375262,7.32578616 9.99371069,7.63396226 C9.99077568,7.63689727 9.99077568,7.6427673 9.98784067,7.64570231 C9.43899371,8.94591195 8.23563941,10.929979 5.61761006,13.0930818 C2.99958071,10.929979 1.79622642,8.94591195 1.24737945,7.64570231 C1.24444444,7.6427673 1.24444444,7.63689727 1.24150943,7.63396226 C1.10062893,7.32872117 0.992033543,7.00587002 0.91572327,6.67714885 L0.91572327,6.67127883 C0.898113208,6.60377358 0.892243187,6.55974843 0.889308176,6.54507338 C0.889308176,6.53920335 0.886373166,6.53333333 0.886373166,6.5245283 C0.827672956,6.22222222 0.798322851,5.91698113 0.798322851,5.60880503 C0.798322851,2.95262055 2.96142558,0.78951782 5.61761006,0.78951782 C8.27379455,0.78951782 10.4368973,2.95262055 10.4368973,5.60880503 C10.4368973,5.91991614 10.4075472,6.22809224 10.348847,6.52746331 Z" id="Shape"></path>
                                        <path d="M5.61761006,3.22851153 C4.27031695,3.22851153 3.17274633,4.32608215 3.17274633,5.67337526 C3.17274633,7.02066837 4.27031695,8.11823899 5.61761006,8.11823899 C6.96490317,8.11823899 8.06247379,7.02066837 8.06247379,5.67337526 C8.06247379,4.32608215 6.96490317,3.22851153 5.61761006,3.22851153 Z M5.61761006,7.57448841 C4.56837283,7.57448841 3.71649691,6.72059861 3.71649691,5.67337526 C3.71649691,4.62615192 4.57038672,3.77226211 5.61761006,3.77226211 C6.66483341,3.77226211 7.51872321,4.62615192 7.51872321,5.67337526 C7.51872321,6.72059861 6.6668473,7.57448841 5.61761006,7.57448841 Z" id="Shape"></path>
                                    </g>
                                </g>
                            </g>
                        </g>
                    </g>
                </g>
            </g>
        </g>
    </g>
</svg>